SplineFontDB: 3.0
FontName: SPThotsakan-BoldOblique
FullName: SP Thotsakan Bold Oblique
FamilyName: SP Thotsakan
Weight: Bold
Copyright: Copyright (c) 2006 by Department of Intellectual Property (DIP), Ministry of Commerce and Software Industry Promotion Agency (Public Organization) (SIPA). All rights reserved.
Version: 2.1
ItalicAngle: -12
UnderlinePosition: -58
UnderlineWidth: 35
Ascent: 800
Descent: 200
LayerCount: 2
Layer: 0 0 "Back" 
Layer: 1 0 "Fore" 
NeedsXUIDChange: 1
XUID: [1021 375 425136265 15796904]
FSType: 0
OS2Version: 3
OS2_WeightWidthSlopeOnly: 0
OS2_UseTypoMetrics: 1
CreationTime: 1157677620
ModificationTime: 1211189727
PfmFamily: 17
TTFWeight: 700
TTFWidth: 5
LineGap: 21
VLineGap: 0
Panose: 2 0 5 6 4 0 0 2 0 4
OS2TypoAscent: 0
OS2TypoAOffset: 1
OS2TypoDescent: 0
OS2TypoDOffset: 1
OS2TypoLinegap: 0
OS2WinAscent: -83
OS2WinAOffset: 1
OS2WinDescent: -208
OS2WinDOffset: 1
HheadAscent: -5
HheadAOffset: 1
HheadDescent: 170
HheadDOffset: 1
OS2SubXSize: 700
OS2SubYSize: 650
OS2SubXOff: 0
OS2SubYOff: 140
OS2SupXSize: 700
OS2SupYSize: 650
OS2SupXOff: 0
OS2SupYOff: 477
OS2StrikeYSize: 50
OS2StrikeYPos: 250
OS2FamilyClass: 2053
OS2Vendor: 'b513'
Lookup: 4 0 1 "'rlig' Required Ligatures in Latin lookup 0"  {"'rlig' Required Ligatures in Latin lookup 0 subtable"  } ['rlig' ('latn' <'dflt' > ) ]
Lookup: 4 0 0 "'frac' Diagonal Fractions in Latin lookup 1"  {"'frac' Diagonal Fractions in Latin lookup 1 subtable"  } ['frac' ('latn' <'dflt' > ) ]
Lookup: 4 0 0 "'ccmp' Glyph Composition/Decomposition in Latin lookup 2"  {"'ccmp' Glyph Composition/Decomposition in Latin lookup 2 subtable"  } ['ccmp' ('latn' <'dflt' > ) ]
Lookup: 6 0 0 "'liga' Standard Ligatures in Latin lookup 3"  {"'liga' Standard Ligatures in Latin lookup 3 subtable"  } ['liga' ('latn' <'dflt' > ) ]
Lookup: 6 0 0 "'liga' Standard Ligatures in Latin lookup 4"  {"'liga' Standard Ligatures in Latin lookup 4 subtable"  } ['liga' ('latn' <'dflt' > ) ]

StartChar: exclam
Encoding: 33 33 2
Width: 281
VWidth: 1473
Flags: W
HStem: 0 116<100 205> 696 20G<224.578 357>
VStem: 77 280<0 716 1.53064e-18 1.53064e-18>
LayerCount: 2
Fore
SplineSet
357 716 m 1
 231 225 l 1
 144 225 l 1
 228 716 l 1
 357 716 l 1
77 0 m 1
 100 116 l 1
 228 116 l 1
 205 0 l 1
 77 0 l 1
EndSplineSet
EndChar

StartChar: quotedbl
Encoding: 34 34 3
Width: 331
VWidth: 1473
Flags: W
HStem: 517 237<211 242 358 389 161 439 211 211>
LayerCount: 2
Fore
SplineSet
211 754 m 1
 292 754 l 1
 242 517 l 1
 161 517 l 1
 211 754 l 1
358 754 m 1
 439 754 l 1
 389 517 l 1
 308 517 l 1
 358 754 l 1
EndSplineSet
EndChar

StartChar: numbersign
Encoding: 35 35 4
Width: 530
VWidth: 1473
Flags: W
HStem: 0 21G<90 173.299 277 361.204> 211 60<82 166 262 354 449 524> 405 61<150 236 331 423 520 592>
LayerCount: 2
Fore
SplineSet
524 211 m 1
 430 211 l 1
 354 0 l 1
 277 0 l 1
 354 211 l 1
 243 211 l 1
 166 0 l 1
 90 0 l 1
 166 211 l 1
 69 211 l 1
 82 271 l 1
 186 271 l 1
 236 405 l 1
 137 405 l 1
 150 466 l 1
 253 466 l 1
 333 689 l 1
 411 689 l 1
 331 466 l 1
 442 466 l 1
 520 689 l 1
 598 689 l 1
 520 466 l 1
 605 466 l 1
 592 405 l 1
 498 405 l 1
 449 271 l 1
 538 271 l 1
 524 211 l 1
311 405 m 1
 262 271 l 1
 373 271 l 1
 423 405 l 1
 311 405 l 1
EndSplineSet
EndChar

StartChar: dollar
Encoding: 36 36 5
Width: 623
VWidth: 1473
Flags: W
HStem: 0 68<219.845 286 352 454.899> 334 83<269.526 374>
VStem: 171 93<456.876 589.613> 532 92<140.417 271.107> 601 74<566.857 619.737>
LayerCount: 2
Fore
SplineSet
675 588 m 1xe8
 671 588 614 539 601 535 c 1xe8
 573 620 528 642 476 650 c 1
 423 401 l 1
 491 381 624 342 624 225 c 0xf0
 624 135 561 -0 339 0 c 1
 309 -133 l 1
 256 -133 l 1
 286 0 l 1
 169 4 93 68 66 164 c 1
 146 215 l 1
 156 174 180 68 299 68 c 1
 357 334 l 1
 267 362 171 399 171 495 c 0
 171 558 204 678 346 710 c 0
 376 716 406 719 438 720 c 1
 461 828 l 1
 514 828 l 1
 491 720 l 1
 578 718 655 662 675 588 c 1xe8
423 651 m 1
 286 651 264 562 264 510 c 0
 264 464 286 439 374 417 c 1
 423 651 l 1
352 68 m 1
 499 70 532 158 532 217 c 0xf0
 532 283 478 296 407 321 c 1
 352 68 l 1
EndSplineSet
EndChar

StartChar: percent
Encoding: 37 37 6
Width: 879
VWidth: 1473
Flags: W
HStem: 0 69<593.84 714.603> 256 68<627.989 744.059> 390 70<284.249 403.815> 645 71<314.781 434.865>
VStem: 193 71<481.111 594.152> 455 71<511.625 625.054> 503 71<89.1277 202.525> 766 70<120.346 233.679>
LayerCount: 2
Fore
SplineSet
193 519 m 0xfd
 193 620 296 716 393 716 c 0
 473 716 526 658 526 586 c 0
 526 494 436 390 324 390 c 0
 242 390 193 450 193 519 c 0xfd
455 575 m 0
 455 616 423 645 379 645 c 0
 317 645 264 592 264 530 c 0
 264 492 295 460 339 460 c 0
 400 460 455 512 455 575 c 0
503 129 m 0xfb
 503 221 592 324 703 324 c 0
 788 324 836 262 836 197 c 0
 836 99 738 0 635 0 c 0
 557 0 503 62 503 129 c 0xfb
766 183 m 0
 766 223 735 256 688 256 c 0
 625 256 574 194 574 139 c 0
 574 109 596 69 648 69 c 0
 710 69 766 122 766 183 c 0
277 -10 m 1
 202 -10 l 1
 753 726 l 1
 829 726 l 1
 277 -10 l 1
EndSplineSet
EndChar

StartChar: ampersand
Encoding: 38 38 7
Width: 702
VWidth: 1473
Flags: W
HStem: -10 75<192.877 378.39 583.745 626> 650 76<380.466 474.825>
VStem: 73 89<95.1236 222.792> 268 78<492.087 611.534> 483 83<549.08 642.286> 589 74<222.973 336>
LayerCount: 2
Fore
SplineSet
162 144 m 0
 162 88 217 65 274 65 c 0
 362 65 417 102 442 124 c 1
 409 161 354 265 324 340 c 1
 289 322 162 262 162 144 c 0
432 650 m 0
 362 650 346 566 346 531 c 0
 346 513 350 483 370 443 c 1
 472 498 483 574 483 598 c 0
 483 623 473 650 432 650 c 0
507 168 m 1
 540 206 575 272 589 336 c 1
 663 324 l 1
 651 279 622 202 544 113 c 1
 599 69 634 67 657 65 c 1
 626 -10 l 1
 568 -6 527 15 480 68 c 1
 411 11 322 -10 255 -10 c 0
 145 -10 73 48 73 134 c 0
 73 296 256 385 293 404 c 1
 275 448 268 493 268 522 c 0
 268 595 305 726 451 726 c 0
 523 726 566 684 566 622 c 0
 566 582 549 512 504 462 c 0
 475 430 440 401 399 376 c 1
 457 261 454 241 507 168 c 1
EndSplineSet
EndChar

StartChar: quotesingle
Encoding: 39 39 8
Width: 235
VWidth: 1473
Flags: W
HStem: 517 237<233 271 183 321 233 233>
LayerCount: 2
Fore
SplineSet
233 754 m 1
 321 754 l 1
 271 517 l 1
 183 517 l 1
 233 754 l 1
EndSplineSet
EndChar

StartChar: parenleft
Encoding: 40 40 9
Width: 397
VWidth: 1473
Flags: W
VStem: 138 101<12.3956 369.225>
LayerCount: 2
Fore
SplineSet
194 -99 m 1
 156 -25 138 65 138 170 c 0
 138 344 203 667 402 874 c 1
 517 874 l 1
 295 666 239 341 239 178 c 0
 239 12 295 -76 309 -99 c 1
 194 -99 l 1
EndSplineSet
EndChar

StartChar: parenright
Encoding: 41 41 10
Width: 397
VWidth: 1473
Flags: W
VStem: 323 101<406.297 760.015>
LayerCount: 2
Fore
SplineSet
424 603 m 0
 424 417 350 100 159 -99 c 1
 44 -99 l 1
 262 105 323 436 323 591 c 0
 323 761 265 854 252 874 c 1
 367 874 l 1
 379 851 424 767 424 603 c 0
EndSplineSet
EndChar

StartChar: asterisk
Encoding: 42 42 11
Width: 736
VWidth: 1473
Flags: W
HStem: 604 460<545 600 545 545>
VStem: 308 482<852 857 852 852>
LayerCount: 2
Fore
SplineSet
592 869 m 1
 779 944 l 1
 790 857 l 1
 594 807 l 1
 688 666 l 1
 600 604 l 1
 533 766 l 1
 396 604 l 1
 331 659 l 1
 489 807 l 1
 308 852 l 1
 359 941 l 1
 519 869 l 1
 545 1064 l 1
 645 1064 l 1
 592 869 l 1
EndSplineSet
EndChar

StartChar: plus
Encoding: 43 43 12
Width: 751
VWidth: 1473
Flags: W
HStem: 270 79<147 385 496 734> 569 20G<449.667 548>
LayerCount: 2
Fore
SplineSet
454 589 m 1
 548 589 l 1
 496 349 l 1
 751 349 l 1
 734 270 l 1
 479 270 l 1
 429 29 l 1
 334 29 l 1
 385 270 l 1
 130 270 l 1
 147 349 l 1
 402 349 l 1
 454 589 l 1
EndSplineSet
EndChar

StartChar: comma
Encoding: 44 44 13
Width: 315
VWidth: 1473
Flags: W
HStem: -171 287<112 246 246 246>
LayerCount: 2
Fore
SplineSet
246 116 m 1
 222 0 l 1
 112 -171 l 1
 55 -171 l 1
 141 0 l 1
 93 0 l 1
 116 116 l 1
 246 116 l 1
EndSplineSet
EndChar

StartChar: hyphen
Encoding: 45 45 14
Width: 490
VWidth: 1473
Flags: W
HStem: 299 88<143 492 125 510 143 143>
LayerCount: 2
Fore
SplineSet
125 299 m 1
 143 387 l 1
 510 387 l 1
 492 299 l 1
 125 299 l 1
EndSplineSet
EndChar

StartChar: period
Encoding: 46 46 15
Width: 315
VWidth: 1473
Flags: W
HStem: 0 116<116 222 93 246 116 116>
LayerCount: 2
Fore
SplineSet
93 0 m 1
 116 116 l 1
 246 116 l 1
 222 0 l 1
 93 0 l 1
EndSplineSet
EndChar

StartChar: slash
Encoding: 47 47 16
Width: 331
VWidth: 1473
Flags: W
LayerCount: 2
Fore
SplineSet
87 -56 m 1
 -12 -56 l 1
 442 829 l 1
 536 829 l 1
 87 -56 l 1
EndSplineSet
EndChar

StartChar: zero
Encoding: 48 48 17
Width: 626
VWidth: 1473
Flags: W
HStem: -7 72<232.621 428.105> 601 74<335.013 535.57>
VStem: 105 88<103.442 278.233> 574 87<380.205 562.714>
LayerCount: 2
Fore
SplineSet
457 675 m 0
 620 675 661 576 661 474 c 0
 661 379 632 195 532 82 c 0
 478 23 405 -7 311 -7 c 0
 203 -7 105 33 105 191 c 0
 105 274 135 469 235 584 c 0
 288 645 362 675 457 675 c 0
193 183 m 0
 193 97 235 65 327 65 c 256
 480 65 518 162 552 327 c 0
 569 402 574 449 574 479 c 0
 574 569 537 601 440 601 c 256
 286 601 255 519 214 327 c 0
 195 242 193 197 193 183 c 0
EndSplineSet
EndChar

StartChar: one
Encoding: 49 49 18
Width: 475
VWidth: 1473
Flags: W
HStem: 0 68<80 211 296 410>
VStem: 66 358<0 672 -11.2086 0>
LayerCount: 2
Fore
SplineSet
66 0 m 1
 80 68 l 1
 211 68 l 1
 318 573 l 1
 189 544 l 1
 202 608 l 1
 370 672 l 1
 424 672 l 1
 296 68 l 1
 423 68 l 1
 410 0 l 1
 66 0 l 1
EndSplineSet
EndChar

StartChar: two
Encoding: 50 50 19
Width: 558
VWidth: 1473
Flags: W
HStem: 0 72<152 488> 604 72<333.912 491.396>
VStem: 514 93<434.276 581.112>
LayerCount: 2
Fore
SplineSet
417 604 m 0
 315 604 269 525 247 477 c 1
 169 491 l 1
 231 642 359 676 437 676 c 0
 583 676 607 591 607 534 c 0
 607 362 440 282 355 247 c 0
 178 179 162 124 152 72 c 1
 502 72 l 1
 488 0 l 1
 59 0 l 1
 69 55 l 2
 91 145 113 229 330 312 c 0
 409 342 514 395 514 520 c 0
 514 587 473 604 417 604 c 0
EndSplineSet
EndChar

StartChar: three
Encoding: 51 51 20
Width: 584
VWidth: 1473
Flags: W
HStem: -10 73<220.04 395.965> 320 72<273 436.605> 605 71<329.522 496.827>
VStem: 471 93<173.111 289.273> 516 96<464.756 584.772>
LayerCount: 2
Fore
SplineSet
470 358 m 1xe8
 543 338 564 283 564 239 c 0
 564 203 548 105 477 44 c 0
 436 8 372 -10 287 -10 c 0
 178 -10 108 35 77 124 c 1
 155 166 l 1
 175.115 115.12 210.688 63 306 63 c 0
 355 63 392 76 418 102 c 0
 463 149 471 203 471 233 c 0xf0
 471 285 444 320 320 320 c 2
 258 320 l 1
 273 392 l 1
 324 392 l 2
 442 392 516 430 516 537 c 0
 516 591 471 605 412 605 c 0
 341 605 283 556 250 524 c 1
 202 573 l 1
 255 622 331 676 433 676 c 0
 517 676 612 653 612 559 c 0
 612 515 592 396 470 358 c 1xe8
EndSplineSet
EndChar

StartChar: four
Encoding: 52 52 21
Width: 545
VWidth: 1473
Flags: W
HStem: 0 21G<343 432.969> 131 74<166 370 471 557>
LayerCount: 2
Fore
SplineSet
72 202 m 1
 464 672 l 1
 570 672 l 1
 471 205 l 1
 573 205 l 1
 557 131 l 1
 455 131 l 1
 429 0 l 1
 343 0 l 1
 370 131 l 1
 56 131 l 1
 72 202 l 1
166 205 m 1
 386 205 l 1
 464 575 l 1
 457 575 l 1
 166 205 l 1
EndSplineSet
EndChar

StartChar: five
Encoding: 53 53 22
Width: 608
VWidth: 1473
Flags: W
HStem: -10 73<214.337 408.93> 379 73<314.009 473.634> 600 72<330 619>
VStem: 90 74<58.8557 116> 503 95<211.542 351.42>
LayerCount: 2
Fore
SplineSet
387 379 m 0
 346 379 262 363 215 296 c 1
 153 303 l 1
 262 672 l 1
 633 672 l 1
 619 600 l 1
 330 600 l 1
 270 402 l 1
 284 413 328 452 414 452 c 0
 569 452 598 356 598 292 c 0
 598 231 573 105 478 42 c 0
 428 8 361 -10 280 -10 c 0
 217 -10 119 16 90 116 c 1
 164 161 l 1
 181 103 214 63 302 63 c 0
 406 63 470 101 495 220 c 0
 500 246 503 268 503 287 c 0
 503 342 481 379 387 379 c 0
EndSplineSet
EndChar

StartChar: six
Encoding: 54 54 23
Width: 601
VWidth: 1473
Flags: W
HStem: -10 75<235.25 431.406> 345 72<323.437 482.662> 605 71<387.331 532.219>
VStem: 115 87<96.3128 231.542> 507 93<194.825 321.369>
LayerCount: 2
Fore
SplineSet
320 -10 m 0
 158 -10 115 65 115 177 c 0
 115 255 154 568 344 652 c 0
 381 668 423 676 470 676 c 0
 511 676 588 665 636 622 c 1
 583 557 l 1
 551 593 500 605 454 605 c 0
 311 605 271 519 228 336 c 1
 275 377 343 417 429 417 c 0
 519 417 600 388 600 274 c 0
 600 165 547 -10 320 -10 c 0
507 264 m 0
 507 326 467 345 396 345 c 0
 301 345 214 262 211 237 c 0
 205 209 202 185 202 165 c 0
 202 85 251 65 337 65 c 0
 433 65 476 98 499 208 c 0
 504 229 507 248 507 264 c 0
EndSplineSet
EndChar

StartChar: seven
Encoding: 55 55 24
Width: 499
VWidth: 1473
Flags: W
HStem: 0 21G<84 199.552> 600 72<186 496>
LayerCount: 2
Fore
SplineSet
186 672 m 1
 611 672 l 1
 600 611 l 1
 186 0 l 1
 84 0 l 1
 496 600 l 1
 171 600 l 1
 186 672 l 1
EndSplineSet
EndChar

StartChar: eight
Encoding: 56 56 25
Width: 623
VWidth: 1473
Flags: W
HStem: -10 73<226.89 430.303> 607 71<348.292 525.209>
VStem: 98 95<96.8371 221.172> 194 93<432.188 551.228> 504 93<155.758 259.634> 550 93<464.447 582.57>
LayerCount: 2
Fore
SplineSet
643 544 m 0xf4
 643 431 543 376 479 355 c 1
 556 317 597 275 597 210 c 0xf8
 597 193 591 98 505 38 c 0
 458 6 393 -10 309 -10 c 256
 193 -10 98 21 98 131 c 0
 98 264 210 321 295 355 c 1
 227 380 194 427 194 475 c 0
 194 533 241 678 455 678 c 256
 559 678 643 643 643 544 c 0xf4
326 63 m 0
 478 63 504 160 504 207 c 0
 504 252 471 282 380 321 c 1
 308 296 193 255 193 157 c 0
 193 94 233 63 326 63 c 0
440 607 m 0
 306 607 287 517 287 485 c 0
 287 440 322 407 393 387 c 1
 458 404 550 439 550 531 c 0xf4
 550 582 515 607 440 607 c 0
EndSplineSet
EndChar

StartChar: nine
Encoding: 57 57 26
Width: 599
VWidth: 1473
Flags: W
HStem: -9 72<215.771 383.139> 250 74<258.516 385.802> 604 74<310.701 504.358>
VStem: 141 94<346.4 475.799> 541 84<437.263 568.838>
LayerCount: 2
Fore
SplineSet
421 678 m 2
 580 678 625 604 625 493 c 0
 625 423 588 191 502 87 c 0
 445 19 369 -9 271 -9 c 0
 209 -9 128 14 90 47 c 1
 146 112 l 1
 178 73 252 63 287 63 c 0
 422 63 474 145 513 333 c 1
 421 252 338 250 314 250 c 0
 222 250 141 279 141 394 c 0
 141 503 195 678 420 678 c 2
 421 678 l 2
235 406 m 0
 235 357 254 324 343 324 c 0
 449 324 528 412 532 430 c 0
 538 457 541 480 541 500 c 0
 541 582 490 604 404 604 c 0
 308 604 265 571 242 460 c 0
 237 440 235 421 235 406 c 0
EndSplineSet
EndChar

StartChar: colon
Encoding: 58 58 27
Width: 331
VWidth: 1473
Flags: W
HStem: 0 122<124 233> 364 122<202 309>
VStem: 99 237<0 486 274.212 372.248>
LayerCount: 2
Fore
SplineSet
99 0 m 1
 124 122 l 1
 258 122 l 1
 233 0 l 1
 99 0 l 1
175 364 m 1
 202 486 l 1
 336 486 l 1
 309 364 l 1
 175 364 l 1
EndSplineSet
EndChar

StartChar: semicolon
Encoding: 59 59 28
Width: 331
VWidth: 1473
Flags: W
HStem: 364 122<202 309>
VStem: 57 279<-180 486 218.747 316.784>
LayerCount: 2
Fore
SplineSet
258 122 m 1
 233 0 l 1
 118 -180 l 1
 57 -180 l 1
 150 0 l 1
 99 0 l 1
 124 122 l 1
 258 122 l 1
175 364 m 1
 202 486 l 1
 336 486 l 1
 309 364 l 1
 175 364 l 1
EndSplineSet
EndChar

StartChar: less
Encoding: 60 60 29
Width: 715
VWidth: 1473
Flags: W
HStem: -7 21G<625.35 670.615>
LayerCount: 2
Fore
SplineSet
666 -7 m 1
 103 270 l 1
 121 351 l 1
 801 628 l 1
 782 536 l 1
 208 311 l 1
 687 84 l 1
 666 -7 l 1
EndSplineSet
EndChar

StartChar: equal
Encoding: 61 61 30
Width: 715
VWidth: 1473
Flags: W
HStem: 159 78<97 701> 398 78<147 753>
LayerCount: 2
Fore
SplineSet
753 398 m 1
 131 398 l 1
 147 476 l 1
 769 476 l 1
 753 398 l 1
701 159 m 1
 80 159 l 1
 97 237 l 1
 719 237 l 1
 701 159 l 1
EndSplineSet
EndChar

StartChar: greater
Encoding: 62 62 31
Width: 715
VWidth: 1473
Flags: W
HStem: -7 21G<48.6154 94.4833>
LayerCount: 2
Fore
SplineSet
65 84 m 1
 638 311 l 1
 161 536 l 1
 180 628 l 1
 744 358 l 1
 723 262 l 1
 44 -7 l 1
 65 84 l 1
EndSplineSet
EndChar

StartChar: question
Encoding: 63 63 32
Width: 508
VWidth: 1473
Flags: W
HStem: 0 122<178 301> 787 87<346.814 490.89>
VStem: 515 107<664.774 763.538>
LayerCount: 2
Fore
SplineSet
515 711 m 0
 515 734 502 787 427 787 c 0
 363 787 313 757 268 682 c 1
 187 726 l 1
 238 817 347 874 448 874 c 0
 542 874 622 830 622 728 c 0
 622 680 606 622 566 579 c 0
 453 459 375 431 352 320 c 2
 339 262 l 1
 231 262 l 1
 245 320 l 2
 265 425 355 475 462 595 c 0
 502 640 515 691 515 711 c 0
153 0 m 1
 178 122 l 1
 326 122 l 1
 301 0 l 1
 153 0 l 1
EndSplineSet
EndChar

StartChar: at
Encoding: 64 64 33
Width: 808
VWidth: 1473
Flags: W
HStem: -10 65<320.037 548.273> 150 65<353.113 427.984 546.503 643.827> 505 67<462.444 572.917> 670 64<450.495 679.335>
VStem: 119 71<181.533 404.818> 270 77<220.993 357.383> 784 71<383.888 575.252>
LayerCount: 2
Fore
SplineSet
347 266 m 0
 347 234 357 215 400 215 c 0
 500 215 577 377 577 456 c 0
 577 487 568 505 538 505 c 0
 394 505 347 323 347 266 c 0
270 259 m 0
 270 348 355 572 557 572 c 0
 593 572 637 555 635 498 c 1
 667 551 l 1
 735 551 l 1
 582 295 l 2
 570 274 563 247 563 236 c 0
 563 224 570 218 586 218 c 256
 691 218 784 365 784 490 c 0
 784 572 729 670 563 670 c 0
 335 670 190 465 190 288 c 0
 190 137 294 55 433 55 c 0
 597 55 674 139 706 174 c 1
 778 174 l 1
 699 71 563 -10 420 -10 c 0
 225 -10 119 130 119 286 c 0
 119 520 346 734 575 734 c 0
 737 734 855 638 855 493 c 0
 855 308 678 150 562 150 c 0
 530 150 504 171 504 201 c 2
 504 208 l 1
 438 153 399 150 373 150 c 0
 303 150 270 199 270 259 c 0
EndSplineSet
EndChar

StartChar: A
Encoding: 65 65 34
Width: 682
VWidth: 1473
Flags: W
HStem: 0 21G<29 146.674 544.513 653> 193 80<280 519> 695 20G<424.615 553.853>
LayerCount: 2
Fore
SplineSet
519 273 m 1
 473 619 l 1
 280 273 l 1
 519 273 l 1
436 715 m 1
 551 715 l 1
 653 0 l 1
 547 0 l 1
 523 193 l 1
 239 193 l 1
 136 0 l 1
 29 0 l 1
 436 715 l 1
EndSplineSet
EndChar

StartChar: B
Encoding: 66 66 35
Width: 629
VWidth: 1473
Flags: W
HStem: 0 77<205 399.779> 359 74<280 493.455> 635 81<323 544.852>
VStem: 534 102<203.812 329.725> 560 105<525.237 621.475>
LayerCount: 2
Fore
SplineSet
665 593 m 0xe8
 665 517 621 424 541 399 c 1
 600 385 636 321 636 260 c 0xf0
 636 227 613 66 458 16 c 0
 425 5 385 -0 340 0 c 2
 88 0 l 1
 240 716 l 1
 495 716 l 2
 587 716 665 687 665 593 c 0xe8
560 576 m 0xe8
 560 623 524 635 477 635 c 2
 323 635 l 1
 280 433 l 1
 405 433 l 2
 548 433 560 553 560 576 c 0xe8
534 274 m 0xf0
 534 325 508 359 386 359 c 2
 264 359 l 1
 205 77 l 1
 342 77 l 2
 460 77 508 118 527 221 c 0
 531 241 534 258 534 274 c 0xf0
EndSplineSet
EndChar

StartChar: C
Encoding: 67 67 36
Width: 558
VWidth: 1473
Flags: W
HStem: -10 79<250.071 451.957> 591 21G<598.5 625.429> 644 79<363.171 565.579>
VStem: 111 100<109.53 294.278>
LayerCount: 2
Fore
SplineSet
327 -10 m 0
 201 -10 111 28 111 181 c 0
 111 262 148 522 252 637 c 0
 285 674 347 723 483 723 c 0
 534 723 616 709 669 661 c 1
 608 591 l 1
 589 611 550 644 464 644 c 0
 326 644 282 573 234 357 c 256
 217 276 211 225 211 192 c 0
 211 103 249 69 342 69 c 0
 442 69 495 112 508 122 c 1
 539 52 l 1
 469 6 380 -10 327 -10 c 0
EndSplineSet
EndChar

StartChar: D
Encoding: 68 68 37
Width: 687
VWidth: 1473
Flags: W
HStem: 0 77<208 462.632> 639 77<327 571.562>
VStem: 620 99<410.272 593.455>
LayerCount: 2
Fore
SplineSet
620 511 m 0
 620 610 567 639 461 639 c 2
 327 639 l 1
 208 77 l 1
 342 77 l 2
 522 77 556 167 597 348 c 0
 617 444 620 494 620 511 c 0
477 716 m 2
 639 716 719 645 719 486 c 0
 719 385 684 192 574 87 c 0
 514 29 431 0 326 0 c 2
 88 0 l 1
 240 716 l 1
 477 716 l 2
EndSplineSet
EndChar

StartChar: E
Encoding: 69 69 38
Width: 539
VWidth: 1473
Flags: W
HStem: 0 77<208 505> 336 76<278 536> 639 77<327 645>
LayerCount: 2
Fore
SplineSet
208 77 m 1
 522 77 l 1
 505 0 l 1
 88 0 l 1
 240 716 l 1
 661 716 l 1
 645 639 l 1
 327 639 l 1
 278 412 l 1
 552 412 l 1
 536 336 l 1
 262 336 l 1
 208 77 l 1
EndSplineSet
EndChar

StartChar: F
Encoding: 70 70 39
Width: 539
VWidth: 1473
Flags: W
HStem: 0 21G<88 196.167> 336 76<278 536> 639 77<327 645>
LayerCount: 2
Fore
SplineSet
192 0 m 1
 88 0 l 1
 240 716 l 1
 661 716 l 1
 645 639 l 1
 327 639 l 1
 278 412 l 1
 552 412 l 1
 536 336 l 1
 262 336 l 1
 192 0 l 1
EndSplineSet
EndChar

StartChar: G
Encoding: 71 71 40
Width: 640
VWidth: 1473
Flags: W
HStem: -10 79<266.456 413.099> 303 79<423 532> 591 21G<613.5 640.429> 644 79<378.939 580.579>
VStem: 126 99<109.85 235.094>
LayerCount: 2
Fore
SplineSet
225 192 m 0
 225 104 264 69 357 69 c 0
 381 69 436 79 494 122 c 1
 532 303 l 1
 501 303 l 2
 423 303 420 286 412 306 c 0
 410 312 409 318 409 326 c 0
 409 350 416 374 423 382 c 1
 648 382 l 1
 583 80 l 1
 528 32 444 -10 342 -10 c 0
 197 -10 126 43 126 181 c 0
 126 224 150 511 266 637 c 0
 326 702 405 723 498 723 c 0
 549 723 631 709 684 661 c 1
 623 591 l 1
 604 611 565 644 479 644 c 0
 330 644 293 553 249 357 c 256
 231 276 225 225 225 192 c 0
EndSplineSet
EndChar

StartChar: H
Encoding: 72 72 41
Width: 671
VWidth: 1473
Flags: W
HStem: 0 21G<88 196.167 480 587.246> 336 76<278 551> 696 20G<235.754 343 627.724 735>
LayerCount: 2
Fore
SplineSet
567 412 m 1
 632 716 l 1
 735 716 l 1
 583 0 l 1
 480 0 l 1
 551 336 l 1
 262 336 l 1
 192 0 l 1
 88 0 l 1
 240 716 l 1
 343 716 l 1
 278 412 l 1
 567 412 l 1
EndSplineSet
EndChar

StartChar: I
Encoding: 73 73 42
Width: 406
VWidth: 1473
Flags: W
HStem: 0 69<43 164 265 373> 647 69<186 287 389 514>
LayerCount: 2
Fore
SplineSet
265 69 m 1
 386 69 l 1
 373 0 l 1
 29 0 l 1
 43 69 l 1
 164 69 l 1
 287 647 l 1
 171 647 l 1
 186 716 l 1
 529 716 l 1
 514 647 l 1
 389 647 l 1
 265 69 l 1
EndSplineSet
EndChar

StartChar: J
Encoding: 74 74 43
Width: 487
VWidth: 1473
Flags: W
HStem: -10 79<123.645 278.298> 696 20G<443.725 551>
LayerCount: 2
Fore
SplineSet
85 122 m 1
 120 85 153 69 214 69 c 0
 299 69 319 122 364 323 c 2
 448 716 l 1
 551 716 l 1
 467 323 l 2
 411 63 359 -10 196 -10 c 0
 124 -10 66 15 25 52 c 1
 85 122 l 1
EndSplineSet
EndChar

StartChar: K
Encoding: 75 75 44
Width: 639
VWidth: 1473
Flags: W
HStem: 0 21G<88 196.143 453.299 585> 696 20G<235.754 343 581.618 734>
LayerCount: 2
Fore
SplineSet
88 0 m 1
 240 716 l 1
 343 716 l 1
 278 412 l 1
 603 716 l 1
 734 716 l 1
 405 415 l 1
 585 0 l 1
 461 0 l 1
 327 348 l 1
 250 280 l 1
 192 0 l 1
 88 0 l 1
EndSplineSet
EndChar

StartChar: L
Encoding: 76 76 45
Width: 524
VWidth: 1473
Flags: W
HStem: 0 77<208 510 88 526 208 208> 696 20G<235.754 343>
LayerCount: 2
Fore
SplineSet
208 77 m 1
 526 77 l 1
 510 0 l 1
 88 0 l 1
 240 716 l 1
 343 716 l 1
 208 77 l 1
EndSplineSet
EndChar

StartChar: M
Encoding: 77 77 46
Width: 857
VWidth: 1473
Flags: W
HStem: 0 21G<88 193.202 374.882 490.555 669 773.246> 575 20G<783.445 789.798> 696 20G<235.754 394.074 758.465 921>
LayerCount: 2
Fore
SplineSet
769 716 m 1
 921 716 l 1
 769 0 l 1
 669 0 l 1
 794 595 l 1
 480 0 l 1
 377 0 l 1
 314 595 l 1
 189 0 l 1
 88 0 l 1
 240 716 l 1
 392 716 l 1
 454 118 l 1
 769 716 l 1
EndSplineSet
EndChar

StartChar: N
Encoding: 78 78 47
Width: 701
VWidth: 1473
Flags: W
HStem: 0 21G<88 196.202 489.017 617.246> 696 20G<235.754 383.143 656.759 765>
LayerCount: 2
Fore
SplineSet
88 0 m 1
 240 716 l 1
 377 716 l 1
 545 169 l 1
 661 716 l 1
 765 716 l 1
 613 0 l 1
 495 0 l 1
 317 595 l 1
 192 0 l 1
 88 0 l 1
EndSplineSet
EndChar

StartChar: O
Encoding: 79 79 48
Width: 695
VWidth: 1473
Flags: W
HStem: -9 84<269.617 464.904> 639 81<379.738 576.613>
VStem: 117 104<122.743 312.642> 624 105<393.453 592.334>
LayerCount: 2
Fore
SplineSet
221 210 m 0
 221 130 248 75 362 75 c 0
 507 75 564 162 604 349 c 0
 620 423 624 470 624 500 c 0
 624 600 584 639 483 639 c 256
 357 639 287 583 239 349 c 0
 227 294 221 247 221 210 c 0
499 720 m 0
 649 720 729 654 729 506 c 0
 729 412 698 204 588 84 c 0
 530 22 450 -9 345 -9 c 0
 189 -9 117 59 117 212 c 0
 117 292 148 508 256 626 c 0
 314 689 394 720 499 720 c 0
EndSplineSet
EndChar

StartChar: P
Encoding: 80 80 49
Width: 629
VWidth: 1473
Flags: W
HStem: 0 21G<88 196.151> 265 77<264 503.604> 639 77<327 555.791>
VStem: 592 105<477.951 607.53>
LayerCount: 2
Fore
SplineSet
592 545 m 0
 592 602 565 639 461 639 c 2
 327 639 l 1
 264 342 l 1
 383 342 l 2
 524 342 565 394 585 488 c 0
 589 510 592 529 592 545 c 0
477 716 m 2
 651 716 697 656 697 567 c 0
 697 473 662 380 587 324 c 0
 536 284 457 265 352 265 c 2
 247 265 l 1
 192 0 l 1
 88 0 l 1
 240 716 l 1
 477 716 l 2
EndSplineSet
EndChar

StartChar: Q
Encoding: 81 81 50
Width: 754
VWidth: 1473
Flags: W
HStem: -9 84<299.007 434.277> 639 81<408.989 606.938>
VStem: 146 104<120.735 313.332> 654 104<346.004 591.318>
LayerCount: 2
Back
SplineSet
392 75 m 0
 426 75 455.833 80 481.5 90 c 128
 507.167 100 529.333 116 548 138 c 128
 566.667 160 582.833 188.167 596.5 222.5 c 128
 610.167 256.833 622.333 299 633 349 c 0
 645 404.333 651.833 450.333 653.5 487 c 128
 655.167 523.667 651.333 553.333 642 576 c 128
 632.667 598.667 617.333 614.833 596 624.5 c 128
 574.667 634.167 547 639 513 639 c 256
 478.333 639 448.333 634.167 423 624.5 c 128
 397.667 614.833 375.333 598.667 356 576 c 128
 336.667 553.333 320.167 523.667 306.5 487 c 128
 292.833 450.333 280 404.333 268 349 c 0
 246.667 249.667 244.833 179.167 262.5 137.5 c 128
 280.167 95.8333 323.333 75 392 75 c 0
374 -9 m 0
 270 -9 202.5 22 171.5 84 c 128
 140.5 146 137.333 234.333 162 349 c 0
 187.333 471.667 228.5 564.167 285.5 626.5 c 128
 342.5 688.833 423.667 720 529 720 c 0
 581 720 623.667 712.167 657 696.5 c 128
 690.333 680.833 715.333 657.5 732 626.5 c 128
 748.667 595.5 757.333 556.667 758 510 c 128
 758.667 463.333 752.667 409.667 740 349 c 0
 715.333 234.333 674.5 146 617.5 84 c 128
 560.5 22 479.333 -9 374 -9 c 0
491 215 m 1
 654 -53 l 1
 545 -77 l 1
 408 193 l 1
 491 215 l 1
EndSplineSet
Fore
SplineSet
758 503 m 0
 758 377 709 153 588 56 c 1
 654 -53 l 1
 545 -77 l 1
 501 10 l 1
 464 -3 421 -9 374 -9 c 0
 182 -9 146 94 146 221 c 0
 146 288 177 507 286 626 c 0
 342 689 424 720 529 720 c 0
 681 720 758 652 758 503 c 0
542 131 m 1
 626 220 654 450 654 503 c 0
 654 599 614 639 513 639 c 0
 366 639 313 558 268 349 c 0
 256 295 250 249 250 212 c 0
 250 131 276 75 392 75 c 0
 419 75 442 78 463 84 c 1
 408 193 l 1
 491 215 l 1
 542 131 l 1
EndSplineSet
EndChar

StartChar: R
Encoding: 82 82 51
Width: 643
VWidth: 1473
Flags: W
HStem: 0 21G<88 196.136 456.617 582> 324 77<275 390> 625 91<324 560.625>
VStem: 590 109<463.963 597.846>
LayerCount: 2
Fore
SplineSet
699 571 m 0
 699 448 621 344 496 329 c 1
 582 0 l 1
 461 0 l 1
 390 324 l 1
 259 324 l 1
 192 0 l 1
 88 0 l 1
 240 716 l 1
 477 716 l 2
 605 716 699 687 699 571 c 0
590 546 m 0
 590 593 562 625 458 625 c 2
 324 625 l 1
 275 401 l 1
 424 401 l 2
 463 401 498 409 528 424 c 0
 576 450 590 510 590 546 c 0
EndSplineSet
EndChar

StartChar: S
Encoding: 83 83 52
Width: 657
VWidth: 1473
Flags: W
HStem: -9 84<278.662 460.075> 636 83<362.833 536.663>
VStem: 103 103<151.825 212> 189 105<466.408 572.912> 534 108<138.03 250.693> 591 98<514.539 591.005>
LayerCount: 2
Fore
SplineSet
294 512 m 0xd4
 294 390 642 403 642 226 c 0
 642 150 576 -9 357 -9 c 0
 192 -9 116 57 103 212 c 1
 206 233 l 1
 212 101 301 75 376 75 c 0
 461 75 534 132 534 200 c 0xe8
 534 293 364 313 266 371 c 0
 196 413 189 465 189 495 c 0
 189 585 261 719 468 719 c 0
 599 719 678 651 689 523 c 1
 591 504 l 1
 579 612 525 636 451 636 c 0
 336 636 294 556 294 512 c 0xd4
EndSplineSet
EndChar

StartChar: T
Encoding: 84 84 53
Width: 545
VWidth: 1473
Flags: W
HStem: 0 21G<221 328.257> 639 77<166 357 460 666>
LayerCount: 2
Fore
SplineSet
324 0 m 1
 221 0 l 1
 357 639 l 1
 150 639 l 1
 166 716 l 1
 682 716 l 1
 666 639 l 1
 460 639 l 1
 324 0 l 1
EndSplineSet
EndChar

StartChar: U
Encoding: 85 85 54
Width: 724
VWidth: 1473
Flags: W
HStem: -9 83<270.331 491.206> 696 20G<235.759 343 680.759 788>
VStem: 135 104<103.772 222.954> 240 103<313.138 716>
LayerCount: 2
Fore
SplineSet
239 181 m 0
 239 91 282 74 377 74 c 256
 504 74 553 104 597 301 c 2
 685 716 l 1
 788 716 l 1
 700 301 l 2
 650 60 555 -9 359 -9 c 256
 176 -9 135 59 135 162 c 0
 135 200 141 247 152 301 c 2
 240 716 l 1
 343 716 l 1
 255 301 l 2
 244 250 239 210 239 181 c 0
EndSplineSet
EndChar

StartChar: V
Encoding: 86 86 55
Width: 652
VWidth: 1473
Flags: W
HStem: 0 21G<271.402 391.034> 696 20G<181 291.757 655.744 775>
LayerCount: 2
Fore
SplineSet
666 716 m 1
 775 716 l 1
 380 0 l 1
 274 0 l 1
 181 716 l 1
 290 716 l 1
 345 90 l 1
 666 716 l 1
EndSplineSet
EndChar

StartChar: W
Encoding: 87 87 56
Width: 833
VWidth: 1473
Flags: W
HStem: 0 21G<159 285.809 556.674 682.849> 696 20G<180.385 290 509.955 619.536 839.898 956>
VStem: 557 78<119 214.55>
LayerCount: 2
Fore
SplineSet
619 716 m 1
 635 119 l 1
 847 716 l 1
 956 716 l 1
 675 0 l 1
 557 0 l 1
 547 613 l 1
 277 0 l 1
 159 0 l 1
 181 716 l 1
 290 716 l 1
 249 119 l 1
 519 716 l 1
 619 716 l 1
EndSplineSet
EndChar

StartChar: X
Encoding: 88 88 57
Width: 617
VWidth: 1473
Flags: W
HStem: 0 21G<15 147.679 474.264 603> 696 20G<181 305.621 597.966 731>
LayerCount: 2
Fore
SplineSet
181 716 m 1
 299 716 l 1
 395 426 l 1
 613 716 l 1
 731 716 l 1
 440 355 l 1
 603 0 l 1
 483 0 l 1
 362 277 l 1
 131 0 l 1
 15 0 l 1
 321 355 l 1
 181 716 l 1
EndSplineSet
EndChar

StartChar: Y
Encoding: 89 89 58
Width: 623
VWidth: 1473
Flags: W
HStem: 0 21G<259 366.214> 696 20G<181 303.546 615.018 745>
LayerCount: 2
Fore
SplineSet
362 0 m 1
 259 0 l 1
 318 280 l 1
 181 716 l 1
 298 716 l 1
 392 377 l 1
 629 716 l 1
 745 716 l 1
 421 280 l 1
 362 0 l 1
EndSplineSet
EndChar

StartChar: Z
Encoding: 90 90 59
Width: 583
VWidth: 1473
Flags: W
HStem: 0 77<193 524> 638 78<211 542>
LayerCount: 2
Fore
SplineSet
542 638 m 1
 194 638 l 1
 211 716 l 1
 669 716 l 1
 651 633 l 1
 193 77 l 1
 541 77 l 1
 524 0 l 1
 62 0 l 1
 78 77 l 1
 542 638 l 1
EndSplineSet
EndChar

StartChar: bracketleft
Encoding: 91 91 60
Width: 397
VWidth: 1473
Flags: W
HStem: -87 59<199 308> 803 59<376 496>
VStem: 85 425<-87 862 -87 -87>
LayerCount: 2
Fore
SplineSet
510 862 m 1
 496 803 l 1
 376 803 l 1
 199 -28 l 1
 320 -28 l 1
 308 -87 l 1
 85 -87 l 1
 287 862 l 1
 510 862 l 1
EndSplineSet
EndChar

StartChar: backslash
Encoding: 92 92 61
Width: 331
VWidth: 1473
Flags: W
HStem: -12 886<243 267 171 343 171 171>
LayerCount: 2
Fore
SplineSet
171 874 m 1
 267 874 l 1
 343 -12 l 1
 243 -12 l 1
 171 874 l 1
EndSplineSet
EndChar

StartChar: bracketright
Encoding: 93 93 62
Width: 397
VWidth: 1473
Flags: W
HStem: -87 59<63 184> 803 59<253 361>
VStem: 52 424<-87 862 -122.223 -87>
LayerCount: 2
Fore
SplineSet
52 -87 m 1
 63 -28 l 1
 184 -28 l 1
 361 803 l 1
 240 803 l 1
 253 862 l 1
 476 862 l 1
 274 -87 l 1
 52 -87 l 1
EndSplineSet
EndChar

StartChar: asciicircum
Encoding: 94 94 63
Width: 671
VWidth: 1473
Flags: W
HStem: 331 478<551 678 551 551>
LayerCount: 2
Fore
SplineSet
551 809 m 1
 678 331 l 1
 575 331 l 1
 480 698 l 1
 236 331 l 1
 133 331 l 1
 461 809 l 1
 551 809 l 1
EndSplineSet
EndChar

StartChar: underscore
Encoding: 95 95 64
Width: 699
VWidth: 1473
Flags: W
HStem: -175 85<-18 661>
LayerCount: 2
Fore
SplineSet
-37 -175 m 1
 -18 -90 l 1
 681 -90 l 1
 661 -175 l 1
 -37 -175 l 1
EndSplineSet
EndChar

StartChar: grave
Encoding: 96 96 65
Width: 248
VWidth: 1473
Flags: W
HStem: 647 154<259 270 155 331 155 155>
LayerCount: 2
Fore
SplineSet
270 801 m 1
 331 647 l 1
 259 647 l 1
 155 801 l 1
 270 801 l 1
EndSplineSet
EndChar

StartChar: a
Encoding: 97 97 66
Width: 559
VWidth: 1473
Flags: W
HStem: -12 69<157.619 297.328> 284 70<354.915 433> 526 68<294.294 442.846>
VStem: 57 91<67.6018 170.681> 466 94<406.9 411 423 437.023 437.023 448.807 442.915 504.33>
LayerCount: 2
Fore
SplineSet
383 526 m 0
 266 526 204 425 187 425 c 0
 175 425 153 445 145 456 c 2
 130 474 l 1
 184 530 300 594 388 594 c 0
 515 594 560 546 560 470 c 0
 560 452 558 432 553 411 c 2
 503 175 l 2
 494 134 491 100 491 73 c 0
 491 46 494 26 499 12 c 1
 478 -1 426 -7 413 -7 c 256
 395 -7 391 2 391 15 c 0
 391 57 l 0
 391 61 391 66 392 71 c 1
 344 31 291 -12 186 -12 c 0
 108 -12 57 38 57 115 c 0
 57 128 59 141 62 156 c 0
 96 314 199 341 448 354 c 1
 463 423 l 2
 465 433 466 442 466 451 c 0
 466 511 415 526 383 526 c 0
212 57 m 0
 256 57 306 71 406 153 c 1
 433 284 l 1
 359 283 199 278 167 194 c 0
 164 186 148 146 148 114 c 0
 148 72 173 57 212 57 c 0
EndSplineSet
Substitution2: "Single Substitution lookup 27 subtable" uni0E38
Substitution2: "Single Substitution lookup 27 subtable" uni0E38
EndChar

StartChar: b
Encoding: 98 98 67
Width: 611
VWidth: 1473
Flags: W
HStem: -12 69<301.772 436.068> 526 68<377.497 531.309> 789 20G<269.739 367>
VStem: 555 94<334.951 500.951>
LayerCount: 2
Fore
SplineSet
555 430 m 0
 555 485 537 526 463 526 c 0
 429 526 379 514 292 457 c 1
 230 164 l 1
 253 117 303 57 367 57 c 0
 433 57 495 98 533 283 c 0
 549 355 555 401 555 430 c 0
357 -12 m 0
 270 -12 244 22 200 75 c 1
 198 64 195 55 192 46 c 0
 176.38 -0.859971 163.869 -4 152 -4 c 256
 122 -4 91 1 78 7 c 1
 99.3936 55.1356 97.4466 47.8575 108 76 c 2
 125 126 l 2
 131 144 136 162 140 180 c 2
 274 809 l 1
 367 809 l 1
 311 544 l 1
 360 570 421 594 495 594 c 0
 574 594 649 562 649 433 c 0
 649 376 625 163 528 61 c 0
 481 12 424 -12 357 -12 c 0
EndSplineSet
Substitution2: "Single Substitution lookup 27 subtable" uni0E39
Substitution2: "Single Substitution lookup 27 subtable" uni0E39
EndChar

StartChar: c
Encoding: 99 99 68
Width: 533
VWidth: 1473
Flags: W
HStem: -10 67<209.988 337.977> 526 68<297.126 451.52>
VStem: 89 93<85.3149 263.733>
LayerCount: 2
Fore
SplineSet
271 -10 m 0
 177 -10 89 26 89 172 c 0
 89 253 116 413 204 513 c 0
 251 567 316 594 399 594 c 0
 447 594 486 583 517 560 c 0
 548 537 573 509 592 474 c 1
 568 456 l 2
 540 433 517 418 510 427 c 2
 484 468 l 2
 458 510 427 526 376 526 c 0
 308 526 247 508 199 292 c 256
 188 241 182 200 182 169 c 0
 182 83 214 57 277 57 c 0
 341 57 377 80 452 156 c 0
 468 172 506 121 514 109 c 1
 401 -6 310 -10 271 -10 c 0
EndSplineSet
Substitution2: "Single Substitution lookup 27 subtable" uni0E3A
Substitution2: "Single Substitution lookup 27 subtable" uni0E3A
EndChar

StartChar: d
Encoding: 100 100 69
Width: 611
VWidth: 1473
Flags: W
HStem: -12 69<206.473 350.083> 526 68<293.347 432.45> 789 20G<581.814 679>
VStem: 87 94<82.7791 264.445> 436 100<7 29.8846 15.6099 71.5415>
LayerCount: 2
Fore
SplineSet
181 166 m 0
 181 103 199 57 268 57 c 0
 346 57 393 100 449 164 c 1
 511 457 l 1
 458 524 396 526 370 526 c 0
 258 526 229 439 196 283 c 0
 186 237 181 198 181 166 c 0
374 594 m 0
 446 594 477 582 532 551 c 1
 586 809 l 1
 679 809 l 1
 545 180 l 2
 534 131 534 66 534 53 c 0
 534 38 535 17 536 7 c 1
 522 1 481 -4 457 -4 c 0
 444 -4 436 3 436 24 c 0
 436 27 440 75 440 75 c 1
 392 36 l 2
 347 1 303 -12 249 -12 c 0
 152 -12 87 37 87 164 c 0
 87 234 111 408 197 514 c 0
 240 568 299 594 374 594 c 0
EndSplineSet
EndChar

StartChar: e
Encoding: 101 101 70
Width: 565
VWidth: 1473
Flags: W
HStem: -13 78<224.883 396.647> 267 69<208 494> 526 68<309.341 470.645>
VStem: 89 95<108.017 248.667> 503 86<369.169 492.517>
LayerCount: 2
Fore
SplineSet
503 415 m 0
 503 479 481 526 392 526 c 0
 245 526 215 369 208 336 c 1
 494 336 l 1
 500 366 503 392 503 415 c 0
589 420 m 0
 589 381 580 322 569 267 c 1
 193 267 l 1
 187 239 184 214 184 192 c 0
 184 136 205 65 293 65 c 0
 349 65 409 72 483 152 c 0
 496 163 529 133 547 106 c 1
 491 51 395 -13 286 -13 c 0
 159 -13 89 50 89 179 c 0
 89 252 119 433 215 522 c 0
 267 570 330 594 405 594 c 0
 503 594 589 559 589 420 c 0
EndSplineSet
EndChar

StartChar: f
Encoding: 102 102 71
Width: 312
VWidth: 1473
Flags: W
HStem: 0 21G<93 193.241> 514 68<134 202 311 402> 744 77<380.212 442.183>
VStem: 93 398<0 796 0 91>
LayerCount: 2
Fore
SplineSet
489 810 m 1
 490 806 491 801 491 796 c 0
 491 777 482 722 467 729 c 0
 448 739 426 744 401 744 c 0
 392 744 344 740 331 673 c 2
 311 582 l 1
 415 582 l 1
 402 514 l 1
 298 514 l 1
 189 0 l 1
 93 0 l 1
 202 514 l 1
 121 514 l 1
 134 582 l 1
 215 582 l 1
 233 664 l 2
 264 814 380 821 420 821 c 0
 443 821 466 817 489 810 c 1
EndSplineSet
EndChar

StartChar: g
Encoding: 103 103 72
Width: 559
VWidth: 1473
Flags: W
HStem: -206 68<128.263 378.786> 28 75<175.899 421.834> 192 67<257.419 378.352> 526 68<304.138 449.199> 544 78<582.081 648>
VStem: 5 92<-111.455 -41.2632> 73 88<120.044 162.68> 127 98<291.082 436.087> 443 92<-89.0686 6.52381> 477 100<346.965 487.629>
LayerCount: 2
Fore
SplineSet
407 594 m 0xf1
 476 594 519 558 519 558 c 1
 545 580 604 622 654 622 c 0
 664 622 669 618 669 609 c 0
 669 602 659 561 648 544 c 1
 612 544 587 537 557 516 c 1
 568 498 577 475 577 448 c 0
 577 365 522 192 302 192 c 0
 279 192 253 198 224 211 c 1
 168 189 161 161 161 149 c 0xea40
 161 116 209 103 315 103 c 0
 421 103 535 84 535 -16 c 0
 535 -92 480 -206 233 -206 c 256
 60 -206 5 -159 5 -89 c 0xec80
 5 -80 6 -41 42 0 c 0
 60 22 91 40 136 55 c 1
 137 57 l 1
 80 68 73 103 73 121 c 0xea
 73 142 88 212 175 240 c 1
 150 256 127 299 127 346 c 0
 127 432 201 594 407 594 c 0xf1
443 -30 m 0xe480
 443 5 417 28 268 28 c 0
 123 28 97 -36 97 -71 c 0
 97 -128 181 -138 237 -138 c 0
 390 -138 443 -95 443 -30 c 0xe480
477 432 m 0xf140
 477 480 458 526 379 526 c 0
 266 526 225 409 225 352 c 0
 225 290 273 259 323 259 c 0
 355 259 385 268 414 287 c 0
 458 316 477 384 477 432 c 0xf140
EndSplineSet
EndChar

StartChar: h
Encoding: 104 104 73
Width: 637
VWidth: 1473
Flags: W
HStem: 0 21G<93 193.149 448 549.221> 526 68<401.437 525.754> 789 20G<259.773 359>
VStem: 539 99<422.48 512.785>
LayerCount: 2
Fore
SplineSet
539 456 m 0
 539 504 516 526 470 526 c 0
 396 526 306 455 278 429 c 1
 189 0 l 1
 93 0 l 1
 264 809 l 1
 359 809 l 1
 295 505 l 1
 370 577 463 594 498 594 c 0
 603 594 638 543 638 466 c 0
 638 446 635 423 629 398 c 2
 545 0 l 1
 448 0 l 1
 530 390 l 2
 536 416 539 438 539 456 c 0
EndSplineSet
EndChar

StartChar: i
Encoding: 105 105 74
Width: 263
VWidth: 1473
Flags: W
HStem: 0 21G<84 184.192> 562 20G<201.808 302> 710 99<255 330>
VStem: 84 267<0 809 745.367 826.874>
LayerCount: 2
Fore
SplineSet
180 0 m 1
 84 0 l 1
 206 582 l 1
 302 582 l 1
 180 0 l 1
234 710 m 1
 255 809 l 1
 351 809 l 1
 330 710 l 1
 234 710 l 1
EndSplineSet
EndChar

StartChar: j
Encoding: 106 106 75
Width: 248
VWidth: 1473
Flags: W
HStem: -206 84<-66.1315 46.2792> 562 20G<194.743 295> 710 99<247 323>
VStem: -116 459<-170 809 358.926 497.478>
LayerCount: 2
Fore
SplineSet
-98 -104 m 0
 -85 -85 -68 -122 -3 -122 c 0
 47 -122 56 -88 60 -71 c 2
 199 582 l 1
 295 582 l 1
 158 -63 l 2
 135 -170 53 -206 -12 -206 c 0
 -20 -206 -100 -204 -110 -197 c 1
 -114 -190 -116 -181 -116 -170 c 0
 -116 -140 -106 -115 -98 -104 c 0
227 710 m 1
 247 809 l 1
 343 809 l 1
 323 710 l 1
 227 710 l 1
EndSplineSet
EndChar

StartChar: k
Encoding: 107 107 76
Width: 586
VWidth: 1473
Flags: W
HStem: 0 21G<93 190.141 423.405 561> 562 20G<506.322 656> 789 20G<259.773 357>
LayerCount: 2
Fore
SplineSet
93 0 m 1
 264 809 l 1
 357 809 l 1
 258 343 l 1
 529 582 l 1
 656 582 l 1
 345 321 l 1
 561 0 l 1
 436 0 l 1
 271 262 l 1
 233 227 l 1
 186 0 l 1
 93 0 l 1
EndSplineSet
EndChar

StartChar: l
Encoding: 108 108 77
Width: 263
VWidth: 1473
Flags: W
HStem: 0 21G<84 184.227> 789 20G<250.773 351>
VStem: 84 267<0 809 1.53064e-18 1.53064e-18>
LayerCount: 2
Fore
SplineSet
255 809 m 1
 351 809 l 1
 180 0 l 1
 84 0 l 1
 255 809 l 1
EndSplineSet
EndChar

StartChar: m
Encoding: 109 109 78
Width: 947
VWidth: 1473
Flags: W
HStem: 0 21G<93 193.155 426 526.155 757 858.23> 519 75<397.465 510.624 739.973 841.505>
VStem: 850 96<425.366 435 442 450.368 450.368 454.569 452.468 507.876>
LayerCount: 2
Fore
SplineSet
521 463 m 0
 521 508 489 519 455 519 c 0
 404 519 324 471 275 414 c 1
 189 0 l 1
 93 0 l 1
 215 582 l 1
 311 582 l 1
 296 508 l 1
 377 577 447 594 485 594 c 0
 564 594 604 563 607 502 c 1
 703 591 777 594 819 594 c 0
 936 594 951 524 951 480 c 0
 951 466 949 451 946 435 c 2
 854 0 l 1
 757 0 l 1
 850 442 l 2
 852 452 853 460 853 467 c 0
 853 488 842 519 788 519 c 0
 710 519 644 457 608 414 c 1
 522 0 l 1
 426 0 l 1
 519 442 l 2
 520 450 521 457 521 463 c 0
EndSplineSet
EndChar

StartChar: n
Encoding: 110 110 79
Width: 652
VWidth: 1473
Flags: W
HStem: 0 21G<93 193.155 463 564.221> 519 75<396.964 528.971>
VStem: 545 99<381.417 390 398 404.592 404.592 414.623 409.608 499.191>
LayerCount: 2
Fore
SplineSet
550 440 m 0
 550 503 509 519 468 519 c 0
 393 519 310 451 275 414 c 1
 189 0 l 1
 93 0 l 1
 215 582 l 1
 311 582 l 1
 295 505 l 1
 361 574 447 594 513 594 c 0
 595 594 650 535 650 451 c 0
 650 435 648 417 644 398 c 2
 560 0 l 1
 463 0 l 1
 545 390 l 2
 549 409 550 426 550 440 c 0
EndSplineSet
EndChar

StartChar: o
Encoding: 111 111 80
Width: 574
VWidth: 1473
Flags: W
HStem: -12 69<221.514 386.954> 526 68<309.722 477.504>
VStem: 89 96<93.7507 276.72> 513 96<306.749 488.519>
LayerCount: 2
Fore
SplineSet
399 526 m 0
 280 526 231 444 199 292 c 256
 190 247 185 209 185 177 c 0
 185 95 216 57 299 57 c 256
 379 57 456 86 499 292 c 256
 508 336 513 373 513 404 c 0
 513 476 490 526 399 526 c 0
284 -12 m 0
 180 -12 89 25 89 172 c 0
 89 257 117 414 205 513 c 0
 253 567 322 594 412 594 c 0
 516 594 609 557 609 411 c 0
 609 330 581 169 492 69 c 0
 445 15 375 -12 284 -12 c 0
EndSplineSet
EndChar

StartChar: p
Encoding: 112 112 81
Width: 606
VWidth: 1473
Flags: W
HStem: -206 21G<59 156.234> -12 68<249.948 412.559> 524 70<389.103 535.804>
VStem: 208 102<514.923 569.796> 557 91<339.69 503.549>
LayerCount: 2
Fore
SplineSet
557 436 m 0
 557 491 539 524 466 524 c 0
 405 524 353 504 284 418 c 1
 217 103 l 1
 238 83 276 56 320 56 c 0
 451 56 505 146 538 299 c 0
 552 366 557 408 557 436 c 0
648 431 m 0
 648 285 583 -12 323 -12 c 0
 274 -12 233 -3 199 16 c 1
 152 -206 l 1
 59 -206 l 1
 184 386 l 2
 186 395 188 408 192 425 c 2
 200 478 l 2
 204 502 208 530 208 548 c 0
 208 556 207 562 206 567 c 1
 230 572 251 582 287 582 c 0
 296 582 310 576 310 553 c 0
 310 552.99 305.001 507.004 305 507 c 1
 350 559 407 594 492 594 c 0
 600 594 648 543 648 431 c 0
EndSplineSet
EndChar

StartChar: q
Encoding: 113 113 82
Width: 611
VWidth: 1473
Flags: W
HStem: -206 21G<371 468.223> -12 68<207.002 348.281> 524 70<298.165 438.951>
VStem: 89 89<84.8893 244.634>
LayerCount: 2
Fore
SplineSet
529 514 m 1
 540 559 553 582 569 582 c 256
 604 582 631 570 647 567 c 1
 627 528 611 473 600 431 c 2
 589 386 l 1
 464 -206 l 1
 371 -206 l 1
 421 31 l 1
 382 11 325 -12 261 -12 c 0
 170 -12 89 25 89 174 c 0
 89 261 126 437 202 521 c 0
 246 569 301 594 369 594 c 0
 444 594 484 573 529 514 c 1
178 152 m 0
 178 80 216 56 293 56 c 0
 322 56 395 71 440 118 c 1
 504 418 l 1
 466 498 422 524 367 524 c 0
 292 524 220 475 180 190 c 0
 179 177 178 164 178 152 c 0
EndSplineSet
EndChar

StartChar: r
Encoding: 114 114 83
Width: 424
VWidth: 1473
Flags: W
HStem: 0 21G<87 188.204> 489 105<383.489 486.256>
VStem: 87 441<0 577 -78.1772 0>
LayerCount: 2
Fore
SplineSet
479 594 m 0
 534 594 528 583 528 577 c 0
 528 552 496 476 486 476 c 1
 473 485 458 489 439 489 c 256
 363 489 273 425 250 314 c 2
 184 0 l 1
 87 0 l 1
 209 582 l 1
 306 582 l 1
 287 486 l 1
 289 486 l 1
 350 584 441 594 479 594 c 0
EndSplineSet
EndChar

StartChar: s
Encoding: 115 115 84
Width: 511
VWidth: 1473
Flags: W
HStem: -12 69<218.852 335.27> 526 68<274.733 405.155>
VStem: 132 100<381.95 483.326> 393 99<112.383 224.214>
LayerCount: 2
Fore
SplineSet
393 178 m 0
 393 290 132 248 132 397 c 0
 132 498 212 594 355 594 c 0
 442 594 508 552 533 489 c 1
 518 472 477 443 463 443 c 0
 455 443 450 447 446 455 c 0
 416 508 381 526 337 526 c 0
 259 526 232 453 232 421 c 0
 232 335 428 361 483 244 c 0
 489 231 492 215 492 197 c 0
 492 72 377 -12 250 -12 c 0
 194 -12 97 2 50 106 c 1
 58 114 108 156 124 156 c 0
 145 156 144 112 198 78 c 0
 220 64 244 57 270 57 c 0
 311 57 393 95 393 178 c 0
EndSplineSet
EndChar

StartChar: t
Encoding: 116 116 85
Width: 355
VWidth: 1473
Flags: W
HStem: -12 84<223.824 317.607> 514 68<134 208 317 433> 752 20G<257.684 358>
VStem: 115 331<66 582 162 278> 115 104<40.679 110.695>
LayerCount: 2
Fore
SplineSet
252 -12 m 0xe8
 186 -12 115 4 115 66 c 0
 115 74 116 82 118 91 c 2
 208 514 l 1
 121 514 l 1
 134 582 l 1
 221 582 l 1
 262 772 l 1
 358 772 l 1
 317 582 l 1
 446 582 l 1xf0
 433 514 l 1
 303 514 l 1
 221 131 l 2
 220 127 219 122 219 118 c 0
 219 87 234 72 270 72 c 0
 330 72 348 102 350 80 c 0
 352 56 338 13 329 -3 c 1
 300 -11 291 -8 252 -12 c 0xe8
EndSplineSet
EndChar

StartChar: u
Encoding: 117 117 86
Width: 652
VWidth: 1473
Flags: W
HStem: -12 69<244.1 376.983> 562 20G<210.779 311 580.787 682>
VStem: 123 98<79.5991 166.509> 479 101<12 60.0176>
LayerCount: 2
Fore
SplineSet
505 0 m 0
 488 0 479 4 479 27 c 0
 479 38 481 55 486 78 c 1
 443 30 346 -12 277 -12 c 0
 157 -12 123 53 123 122 c 0
 123 140 126 161 131 184 c 2
 215 582 l 1
 311 582 l 1
 228 192 l 2
 224 172 221 154 221 139 c 0
 221 73 267 57 303 57 c 0
 342 57 432 91 498 169 c 1
 585 582 l 1
 682 582 l 1
 591 150 l 2
 581 101 580 50 580 25 c 2
 580 12 l 1
 560 3 520 0 505 0 c 0
EndSplineSet
EndChar

StartChar: v
Encoding: 118 118 87
Width: 525
VWidth: 1473
Flags: W
HStem: 0 21G<212.32 322.065> 562 20G<137 241.026 521.526 633>
VStem: 137 496<582 582 582 582>
LayerCount: 2
Fore
SplineSet
137 582 m 1
 239 582 l 1
 286 118 l 1
 289 118 l 1
 532 582 l 1
 633 582 l 1
 311 0 l 1
 215 0 l 1
 137 582 l 1
EndSplineSet
EndChar

StartChar: w
Encoding: 119 119 88
Width: 776
VWidth: 1473
Flags: W
HStem: 0 21G<169.625 263.044 515.496 608.034> 562 20G<131 227.841 451.531 558.796 781.619 890>
VStem: 131 96<531.075 582>
LayerCount: 2
Fore
SplineSet
131 582 m 1
 227 582 l 1
 246 130 l 1
 247 130 l 1
 461 582 l 1
 558 582 l 1
 576 130 l 1
 579 130 l 1
 791 582 l 1
 890 582 l 1
 598 0 l 1
 517 0 l 1
 483 452 l 1
 480 452 l 1
 253 0 l 1
 171 0 l 1
 131 582 l 1
EndSplineSet
EndChar

StartChar: x
Encoding: 120 120 89
Width: 527
VWidth: 1473
Flags: W
HStem: 0 21G<12 138.522 398.739 516> 562 20G<156 275 488.59 614>
LayerCount: 2
Fore
SplineSet
122 0 m 1
 12 0 l 1
 274 309 l 1
 156 582 l 1
 267 582 l 1
 345 387 l 1
 505 582 l 1
 614 582 l 1
 383 309 l 1
 516 0 l 1
 407 0 l 1
 312 230 l 1
 122 0 l 1
EndSplineSet
EndChar

StartChar: y
Encoding: 121 121 90
Width: 525
VWidth: 1473
Flags: W
HStem: -206 82<3.47314 124.549> 562 20G<137 241.297 522.144 636>
LayerCount: 2
Fore
SplineSet
137 582 m 1
 239 582 l 1
 290 138 l 1
 292 138 l 1
 533 582 l 1
 636 582 l 1
 286 -43 l 2
 207 -185 89 -206 22 -206 c 0
 -1 -206 -24 -203 -47 -196 c 1
 -48 -192 -49 -187 -49 -181 c 0
 -49 -162 -36 -101 -22 -108 c 0
 -3 -119 19 -124 44 -124 c 0
 113 -124 165 -91 217 9 c 1
 137 582 l 1
EndSplineSet
EndChar

StartChar: z
Encoding: 122 122 91
Width: 496
VWidth: 1473
Flags: W
HStem: 0 68<161 463> 514 68<177 443>
LayerCount: 2
Fore
SplineSet
177 582 m 1
 576 582 l 1
 564 526 l 1
 161 68 l 1
 476 68 l 1
 463 0 l 1
 28 0 l 1
 40 57 l 1
 443 514 l 1
 164 514 l 1
 177 582 l 1
EndSplineSet
EndChar

StartChar: braceleft
Encoding: 123 123 92
Width: 402
VWidth: 1473
Flags: W
HStem: -93 56<215.002 293> 337 53<131 165.406> 765 56<378.823 389 389 476>
VStem: 118 96<-34.9716 23.3438> 168 96<229.216 243 246 258.313 258.313 259.097 258.705 322.122>
LayerCount: 2
Fore
SplineSet
172 283 m 0xe8
 172 320 158 337 119 337 c 1
 131 390 l 1
 132 390 l 2
 183 390 207 428 218 482 c 2
 262 692 l 2
 276 760 315 821 389 821 c 2
 488 821 l 1
 476 765 l 1
 420 765 l 2
 382 765 368 740 358 691 c 2
 314 485 l 2
 304 440 286 386 209 365 c 1
 209 362 l 1
 267 349 269 304 269 287 c 0
 269 274 267 259 264 243 c 2xe8
 220 37 l 2
 216 20 214 6 214 -5 c 0
 214 -24 223 -37 249 -37 c 2
 305 -37 l 1
 293 -93 l 1
 194 -93 l 2
 133 -93 118 -51 118 -13 c 0xf0
 118 1 120 17 124 35 c 2
 168 246 l 2
 171 260 172 272 172 283 c 0xe8
EndSplineSet
EndChar

StartChar: bar
Encoding: 124 124 93
Width: 263
VWidth: 1473
Flags: W
HStem: -12 21G<84 178.25> 801 20G<256.75 351>
VStem: 84 267<-12 821 -12 -12>
LayerCount: 2
Fore
SplineSet
261 821 m 1
 351 821 l 1
 174 -12 l 1
 84 -12 l 1
 261 821 l 1
EndSplineSet
EndChar

StartChar: braceright
Encoding: 125 125 94
Width: 402
VWidth: 1473
Flags: W
HStem: -93 56<80 177.609> 337 53<390.156 424> 765 56<262 339.849>
VStem: 287 96<396.497 469.81 467.651 471.97 471.97 482 485 498.333> 341 96<698.524 763.595>
LayerCount: 2
Fore
SplineSet
383 447 m 0xf0
 383 401 404 390 436 390 c 1
 424 337 l 1
 372 337 349 301 337 246 c 2
 293 35 l 2
 268 -87 191 -93 166 -93 c 2
 68 -93 l 1
 80 -37 l 1
 136 -37 l 2
 173 -37 186 -14 197 37 c 2
 242 243 l 2
 251 291 272 348 346 362 c 1
 346 365 l 1
 312 375 287 395 287 440 c 0xf0
 287 453 288 468 292 485 c 2
 336 691 l 2
 340 708 341 722 341 732 c 0
 341 751 334 765 306 765 c 2
 250 765 l 1
 262 821 l 1
 361 821 l 2
 411 821 437 792 437 738 c 0xe8
 437 724 436 709 432 692 c 2
 387 482 l 2
 385 469 383 457 383 447 c 0xf0
EndSplineSet
EndChar

StartChar: asciitilde
Encoding: 126 126 95
Width: 671
VWidth: 1473
Flags: W
HStem: 222 79<448.27 592.643> 296 78<204.866 348.349>
LayerCount: 2
Fore
SplineSet
529 301 m 0x80
 573 301 589 315 635 364 c 1
 681 317 l 1
 663 293 640 271 614 252 c 0
 587 232 553 222 512 222 c 0x80
 420.093 222 341.965 296 268 296 c 0
 224 296 209 282 162 233 c 1
 116 281 l 1
 133 304 155 325 183 344 c 0
 211 364 245 374 286 374 c 0x40
 374.087 374 456.1 301 529 301 c 0x80
EndSplineSet
EndChar

StartChar: uni0E33.alt1
Encoding: 65537 -1 96
Width: 514
VWidth: 1473
Flags: W
HStem: 0 21G<334 426.5> 532 66<257.202 399.549> 688 59<-207.196 -137.464> 826 59<-199.655 -129.028>
VStem: -269 60<757.03 816.255> -128 62<755.876 824.529> 430 92<382.392 500.952>
LayerCount: 2
Fore
SplineSet
-66 809 m 0
 -66 748 -121 688 -189 688 c 256
 -240 688 -269 724 -269 767 c 0
 -269 827 -212 885 -147 885 c 256
 -97 885 -66 850 -66 809 c 0
-209 779 m 0
 -209 768 -202 747 -177 747 c 256
 -146 747 -128 774 -128 796 c 0
 -128 812 -138 826 -159 826 c 256
 -181 826 -209 807 -209 779 c 0
435 21 m 0
 435 6 432 0 421 0 c 2
 334 0 l 1
 357 98 352 82 369 164 c 2
 382 225 l 2
 400 312 430 396 430 442 c 0
 430 514 369 532 337 532 c 0
 280 532 243 511 162 435 c 0
 160 433 158 432 155 432 c 0
 139 432 109 464 102 480 c 1
 148 531 267 598 343 598 c 0
 421 598 522 570 522 457 c 0
 522 443 520 427 517 410 c 2
 494 320 l 2
 473 241 458 161 451 122 c 2
 440 60 l 2
 437 41 435 28 435 21 c 0
EndSplineSet
EndChar

StartChar: exclamdown
Encoding: 161 161 100
Width: 279
VWidth: 1473
Flags: W
HStem: 467 115<199 302>
VStem: 165 85<270.593 318>
LayerCount: 2
Fore
SplineSet
28 -227 m 1
 165 318 l 1
 250 318 l 1
 155 -227 l 1
 28 -227 l 1
326 582 m 1
 302 467 l 1
 175 467 l 1
 199 582 l 1
 326 582 l 1
EndSplineSet
EndChar

StartChar: cent
Encoding: 162 162 101
Width: 623
VWidth: 1473
Flags: W
HStem: -3 66<256.115 267.594 262.173 391.583> 491 64<309.858 418.985>
VStem: 106 466<169 653 175.173 304.583> 106 83<131.701 262.983> 492 68<408.371 454.778>
LayerCount: 2
Fore
SplineSet
432 482 m 1xd0
 402 489 406 491 389 491 c 0
 272 491 226 393 202 273 c 0
 193 232 189 198 189 172 c 0
 189 146 194 112 215 85 c 1
 432 482 l 1xd0
184 15 m 1
 109 62 106 140 106 169 c 0
 106 225 134 555 404 555 c 0
 423 555 442 552 460 547 c 1
 519 653 l 1
 572 653 l 1xe0
 501 526 l 1
 536 501 556 463 560 414 c 1
 492 385 l 1xc8
 488 414 483 435 468 454 c 1
 256 63 l 1
 267 59 283 56 298 56 c 0
 387 56 417 89 455 152 c 1
 513 121 l 1
 439 2 341 -10 283 -10 c 0
 262 -10 244 -8 227 -3 c 1
 164 -119 l 1
 110 -119 l 1
 184 15 l 1
EndSplineSet
EndChar

StartChar: sterling
Encoding: 163 163 102
Width: 581
VWidth: 1473
Flags: W
HStem: -10 75<29 80.1699> -10 66<276.912 411.351> 333 59<97 196 290 395> 659 67<370.419 515.798>
VStem: 196 85<276.351 333> 202 88<392 424.092 424.092 456 456 551.1> 555 76<544 615.717>
LayerCount: 2
Fore
SplineSet
564 165 m 1x7a
 526 71 457 -10 331 -10 c 0
 218 -10 183 31 150 53 c 1
 110 13 47 -3 13 -10 c 1x7a
 29 65 l 1
 189 117 188 292 196 333 c 1xba
 85 333 l 1
 97 392 l 1
 202 392 l 1
 211 477 204 589 302 672 c 0
 345 708 397 726 459 726 c 0
 571 726 631 659 631 551 c 2
 631 544 l 1
 555 517 l 1
 555 626 511 659 445 659 c 0
 323 659 294 527 292 456 c 0
 292 437 291 415 290 392 c 1xb6
 407 392 l 1
 395 333 l 1
 281 333 l 1
 272 220 233 155 203 112 c 1
 276 58 301 56 336 56 c 0
 402 56 461 100 501 190 c 1
 564 165 l 1x7a
EndSplineSet
EndChar

StartChar: currency
Encoding: 164 164 103
Width: 623
VWidth: 1473
Flags: W
HStem: 82 80<264.195 436.288> 560 78<340.019 510.174>
VStem: 102 89<237.106 407.185> 585 88<313.986 482.646>
LayerCount: 2
Fore
SplineSet
261 576 m 1
 306 609 372 638 446 638 c 0
 512 638 566 617 607 576 c 1
 682 638 l 1
 715 595 l 1
 642 535 l 1
 663 501 673 464 673 422 c 0
 673 350 638 250 567 186 c 1
 616 125 l 1
 563 82 l 1
 514 143 l 1
 454 102 392 82 327 82 c 0
 271 82 211 99 168 143 c 1
 91 82 l 1
 60 125 l 1
 133 186 l 1
 109 221 102 257 102 295 c 0
 102 345 120 453 208 535 c 1
 159 595 l 1
 211 638 l 1
 261 576 l 1
191 319 m 0
 191 241 245 162 345 162 c 256
 471 162 585 285 585 402 c 0
 585 485 524 560 429 560 c 256
 307 560 191 439 191 319 c 0
EndSplineSet
EndChar

StartChar: yen
Encoding: 165 165 104
Width: 598
VWidth: 1473
Flags: W
HStem: 0 21G<249 346.156> 231 59<133 298 402 566> 376 60<164 275 499 597> 696 20G<189 285.714 607.863 713>
LayerCount: 2
Fore
SplineSet
597 376 m 1
 460 376 l 1
 405 303 l 1
 402 290 l 1
 577 290 l 1
 566 231 l 1
 390 231 l 1
 342 0 l 1
 249 0 l 1
 298 231 l 1
 121 231 l 1
 133 290 l 1
 309 290 l 1
 312 303 l 1
 292 376 l 1
 152 376 l 1
 164 436 l 1
 275 436 l 1
 189 716 l 1
 280 716 l 1
 374 387 l 1
 623 716 l 1
 713 716 l 1
 499 436 l 1
 608 436 l 1
 597 376 l 1
EndSplineSet
EndChar

StartChar: brokenbar
Encoding: 166 166 105
Width: 278
VWidth: 1473
Flags: W
HStem: -12 21G<91 185.281>
VStem: 91 248<-12 732 155.883 442.818>
LayerCount: 2
Fore
SplineSet
155 287 m 1
 245 287 l 1
 181 -12 l 1
 91 -12 l 1
 155 287 l 1
249 732 m 1
 339 732 l 1
 275 433 l 1
 186 433 l 1
 249 732 l 1
EndSplineSet
EndChar

StartChar: section
Encoding: 167 167 106
Width: 539
VWidth: 1473
Flags: W
HStem: -90 63<197.551 317.498> 426 57<250.322 305> 660 65<353.538 458.973>
VStem: 149 85<285.146 410.268> 259 71<552.771 621.935> 343 71<13.2411 89.6377> 441 86<226.693 351.481> 511 68<596.529 647.027>
LayerCount: 2
Fore
SplineSet
259 577 m 0xfe
 259 635 292 725 429 725 c 0
 509 725 563 679 579 614 c 1
 511 572 l 1xfd
 486 656 439 660 417 660 c 0
 343 660 330 605 330 589 c 0
 330 513 527 451 527 306 c 0
 527 206 461 155 374 147 c 1
 412 89 414 73 414 55 c 0
 414 -31 343 -90 237 -90 c 0
 156 -90 99 -37 88 15 c 1
 158 59 l 1
 167 16 207 -27 250 -27 c 0
 341 -27 343 43 343 44 c 0
 343 115 149 200 149 340 c 0
 149 454 241 483 305 483 c 1
 309 486 l 1
 260 527 259 564 259 577 c 0xfe
441 286 m 0xfe
 441 349 373 426 306 426 c 256
 273 426 234 412 234 357 c 0
 234 284 308 205 361 205 c 0
 425 205 441 252 441 286 c 0xfe
EndSplineSet
EndChar

StartChar: dieresis
Encoding: 168 168 107
Width: 307
VWidth: 1473
Flags: W
HStem: 659 120<165 243 370 448 140 473 165 165>
LayerCount: 2
Fore
SplineSet
268 779 m 1
 243 659 l 1
 140 659 l 1
 165 779 l 1
 268 779 l 1
473 779 m 1
 448 659 l 1
 345 659 l 1
 370 779 l 1
 473 779 l 1
EndSplineSet
EndChar

StartChar: copyright
Encoding: 169 169 108
Width: 895
VWidth: 1473
Flags: W
HStem: -10 66<302.631 517.618> 137 62<382.165 513.177> 517 62<437.253 572.236> 660 66<423.544 644.556>
VStem: 95 75<191.006 402.462> 278 82<222.219 370.552> 588 79<432 445 445 501.795> 773 75<315.501 532.145>
LayerCount: 2
Fore
SplineSet
95 282 m 0
 95 511 319 726 550 726 c 256
 732 726 848 591 848 433 c 0
 848 205 624 -10 393 -10 c 256
 223 -10 95 112 95 282 c 0
170 291 m 0
 170 175 247 56 408 56 c 0
 604 56 773 236 773 427 c 0
 773 565 679 660 536 660 c 0
 350 660 170 489 170 291 c 0
636 287 m 1
 577 159 505 137 434 137 c 0
 334 137 278 186 278 285 c 0
 278 349 302 459 368 522 c 0
 407 560 460 579 525 579 c 0
 599 579 668 555 668 458 c 0
 668 449 668 441 667 432 c 1
 588 432 l 1
 590 503 556 517 514 517 c 0
 426 517 391 463 368 359 c 0
 363 334 360 312 360 292 c 0
 360 230 385 199 449 199 c 0
 492 199 531 219 557 287 c 1
 636 287 l 1
EndSplineSet
EndChar

StartChar: ordfeminine
Encoding: 170 170 109
Width: 335
VWidth: 1473
Flags: W
HStem: 460 54<210.913 279.737> 719 21G<194.739 245.5> 768 53<263.12 378.71>
VStem: 128 72<516.665 591.656> 339 65<466 476.023 476.023 503.394> 381 71<697 711 711 713 713 724.867 724.867 730.023 727.445 764.567>
LayerCount: 2
Fore
SplineSet
333 768 m 0xf4
 286 768 258 747 233 719 c 1
 189 742 l 1
 226 791 269 821 351 821 c 0
 430 821 452 791 452 747 c 0xf4
 452 737 451 725 448 713 c 2
 411 538 l 2
 404 507 403 496 403 486 c 0
 403 480 403 473 404 466 c 1
 339 466 l 1xf8
 340 504 l 1
 280 459 233 460 217 460 c 0
 170 460 128 481 128 527 c 0
 128 620 223 666 308 682 c 0
 333 687 355 692 374 697 c 1
 380 725 l 2
 381 729 381 732 381 735 c 0
 381 757 366 768 333 768 c 0xf4
200 545 m 0
 200 520 225 514 237 514 c 0
 276 514 312 531 346 563 c 1
 362 642 l 1
 311 630 200 619 200 545 c 0
EndSplineSet
EndChar

StartChar: guillemotleft
Encoding: 171 171 110
Width: 559
VWidth: 1473
Flags: W
HStem: 119 344<463 492 463 463>
VStem: 155 409<295 463 295 295>
LayerCount: 2
Fore
SplineSet
418 295 m 1
 492 119 l 1
 390 119 l 1
 320 295 l 1
 463 463 l 1
 564 463 l 1
 418 295 l 1
253 295 m 1
 326 119 l 1
 222 119 l 1
 155 295 l 1
 295 463 l 1
 398 463 l 1
 253 295 l 1
EndSplineSet
EndChar

StartChar: logicalnot
Encoding: 172 172 111
Width: 671
VWidth: 1473
Flags: W
HStem: 358 77<136 613>
LayerCount: 2
Fore
SplineSet
613 358 m 1
 119 358 l 1
 136 435 l 1
 719 435 l 1
 659 149 l 1
 569 149 l 1
 613 358 l 1
EndSplineSet
EndChar

StartChar: registered
Encoding: 174 174 112
Width: 895
VWidth: 1473
Flags: W
HStem: -10 66<302.631 517.618> 321 61<427 466> 505 61<452 578.699> 660 66<423.544 644.556>
VStem: 95 75<191.006 402.462> 580 78<424.006 500.062> 773 75<315.501 532.145>
LayerCount: 2
Fore
SplineSet
658 478 m 0
 658 391 595 334 533 321 c 1
 598 149 l 1
 514 149 l 1
 466 321 l 1
 414 321 l 1
 377 149 l 1
 299 149 l 1
 387 566 l 1
 547 566 l 2
 605 566 658 548 658 478 c 0
580 471 m 0
 580 492 574 505 520 505 c 2
 452 505 l 1
 427 382 l 1
 508 382 l 2
 563 382 573 422 577 445 c 0
 579 455 580 464 580 471 c 0
95 282 m 0
 95 511 319 726 550 726 c 256
 732 726 848 591 848 433 c 0
 848 205 624 -10 393 -10 c 256
 223 -10 95 112 95 282 c 0
170 291 m 0
 170 175 247 56 408 56 c 0
 604 56 773 236 773 427 c 0
 773 565 679 660 536 660 c 0
 350 660 170 489 170 291 c 0
EndSplineSet
EndChar

StartChar: macron
Encoding: 175 175 113
Width: 248
VWidth: 1473
Flags: W
HStem: 676 80<118 433 118 433 118 118>
LayerCount: 2
Fore
SplineSet
118 756 m 1
 451 756 l 1
 433 676 l 1
 100 676 l 1
 118 756 l 1
EndSplineSet
EndChar

StartChar: degree
Encoding: 176 176 114
Width: 447
VWidth: 1473
Flags: W
HStem: 492 66<284.495 409.323> 756 65<318.585 441.421>
VStem: 195 69<577.619 701.131> 461 69<611.497 736.826>
LayerCount: 2
Fore
SplineSet
461 682 m 0
 461 719 440 756 385 756 c 256
 314 756 264 696 264 633 c 0
 264 603 280 558 342 558 c 256
 414 558 461 621 461 682 c 0
195 618 m 0
 195 727 297 821 398 821 c 256
 471 821 530 770 530 694 c 0
 530 585 427 492 327 492 c 0
 236 492 195 556 195 618 c 0
EndSplineSet
EndChar

StartChar: plusminus
Encoding: 177 177 115
Width: 671
VWidth: 1473
Flags: W
HStem: 0 75<59 628> 330 75<130 359 467 697>
LayerCount: 2
Fore
SplineSet
420 611 m 1
 511 611 l 1
 467 405 l 1
 713 405 l 1
 697 330 l 1
 451 330 l 1
 407 122 l 1
 315 122 l 1
 359 330 l 1
 113 330 l 1
 130 405 l 1
 376 405 l 1
 420 611 l 1
59 75 m 1
 642 75 l 1
 628 0 l 1
 44 0 l 1
 59 75 l 1
EndSplineSet
EndChar

StartChar: twosuperior
Encoding: 178 178 116
Width: 340
VWidth: 1473
Flags: W
HStem: 289 60<171 377> 595 21G<155 230> 667 59<256.586 365.974>
VStem: 373 75<575.292 648.929>
LayerCount: 2
Fore
SplineSet
327 667 m 0
 261 667 239 635 221 595 c 1
 155 603 l 1
 176 651 227 726 336 726 c 256
 403 726 448 695 448 630 c 0
 448 453 181 438 171 349 c 1
 390 349 l 1
 377 289 l 1
 82 289 l 1
 93 337 l 2
 116 464 256 469 340 544 c 0
 373 574 373 612 373 618 c 0
 373 636 364 667 327 667 c 0
EndSplineSet
EndChar

StartChar: threesuperior
Encoding: 179 179 117
Width: 359
VWidth: 1473
Flags: W
HStem: 284 58<204.172 322.139> 488 59<233 345.511> 667 59<248.636 379.61>
VStem: 354 73<373.165 477.448> 382 76<595.022 663.203>
LayerCount: 2
Fore
SplineSet
427 440 m 0xf0
 427 394 403 284 239 284 c 0
 159 284 113 322 99 361 c 1
 155 399 l 1
 186 348 226 342 253 342 c 0
 286 342 354 356 354 435 c 0xf0
 354 467 344 488 264 488 c 2
 221 488 l 1
 233 547 l 1
 268 547 l 2
 346 547 368 566 380 617 c 0
 381 623 382 629 382 634 c 0
 382 654 374 667 327 667 c 0
 268 667 243 644 228 625 c 1
 183 656 l 1
 227 701 279 726 343 726 c 0
 437 726 458 697 458 653 c 0xe8
 458 616 442 578 428 559 c 0
 417 543 396 530 365 519 c 1
 413 504 427 474 427 440 c 0xf0
EndSplineSet
EndChar

StartChar: acute
Encoding: 180 180 118
Width: 248
VWidth: 1473
Flags: W
HStem: 647 154<262 435 435 435>
LayerCount: 2
Fore
SplineSet
435 801 m 1
 262 647 l 1
 190 647 l 1
 318 801 l 1
 435 801 l 1
EndSplineSet
EndChar

StartChar: mu
Encoding: 181 181 119
Width: 623
VWidth: 1473
Flags: W
HStem: -206 21G<49 148.344> -12 69<240.421 357.783> 562 20G<210.787 311 550.831 653>
LayerCount: 2
Fore
SplineSet
221 137 m 0
 221 75 262 57 289 57 c 256
 345 57 407 100 466 155 c 1
 555 582 l 1
 653 582 l 1
 530 0 l 1
 433 0 l 1
 449 78 l 1
 392 13 317 -12 270 -12 c 0
 236 -12 205 -4 192 15 c 1
 144 -206 l 1
 49 -206 l 1
 215 582 l 1
 311 582 l 1
 228 192 l 2
 223 171 221 153 221 137 c 0
EndSplineSet
EndChar

StartChar: paragraph
Encoding: 182 182 120
Width: 559
VWidth: 1473
Flags: W
HStem: 744 65<492 580 666 720>
LayerCount: 2
Fore
SplineSet
139 547 m 0
 139 632 198 809 438 809 c 2
 734 809 l 1
 720 744 l 1
 666 744 l 1
 489 -90 l 1
 404 -90 l 1
 580 744 l 1
 492 744 l 1
 315 -90 l 1
 230 -90 l 1
 329 377 l 1
 217 377 139 450 139 547 c 0
EndSplineSet
EndChar

StartChar: periodcentered
Encoding: 183 183 121
Width: 310
VWidth: 1473
Flags: W
HStem: 224 135<178.057 254.31>
VStem: 147 139<255.706 327.616>
LayerCount: 2
Fore
SplineSet
147 276 m 0
 147 319 190 359 230 359 c 0
 261 359 286 336 286 306 c 0
 286 269 246 224 202 224 c 0
 171 224 147 249 147 276 c 0
EndSplineSet
EndChar

StartChar: cedilla
Encoding: 184 184 122
Width: 248
VWidth: 1473
Flags: W
HStem: -233 46<17.4809 113.121> -97 45<74.0555 135.977> -20 20G<87.2903 149>
VStem: 126 71<-172.632 -100.982>
LayerCount: 2
Fore
SplineSet
125 -52 m 0
 169 -52 197 -75 197 -118 c 0
 197 -210 96 -233 57 -233 c 0
 17 -233 -17 -224 -44 -211 c 1
 -21 -171 l 1
 16 -182 23 -187 41 -187 c 0
 83 -187 126 -179 126 -129 c 0
 126 -103 98 -97 82 -97 c 0
 64 -97 47 -100 32 -106 c 1
 19 -93 l 1
 106 0 l 1
 149 0 l 1
 87 -56 l 1
 90 -59 l 1
 98 -54 110 -52 125 -52 c 0
EndSplineSet
EndChar

StartChar: onesuperior
Encoding: 185 185 123
Width: 387
VWidth: 1473
Flags: W
HStem: 289 437<152 324 307.722 324> 289 60<165 233 308 367>
LayerCount: 2
Fore
SplineSet
152 289 m 1x80
 165 349 l 1
 233 349 l 1x40
 299 661 l 1
 217 642 l 1
 227 692 l 1
 324 726 l 1
 387 726 l 1x80
 308 349 l 1
 380 349 l 1
 367 289 l 1x40
 152 289 l 1x80
EndSplineSet
EndChar

StartChar: ordmasculine
Encoding: 186 186 124
Width: 304
VWidth: 1473
Flags: W
HStem: 407 66<205.295 308.946> 660 66<236.74 339.977>
VStem: 128 71<480.05 582.57> 346 70<547.708 652.604>
LayerCount: 2
Fore
SplineSet
346 609 m 0
 346 644 330 660 293 660 c 256
 240 660 218 625 205 566 c 256
 201 550 199 536 199 524 c 0
 199 495 210 473 253 473 c 256
 291 473 323 486 340 566 c 256
 344 582 346 597 346 609 c 0
128 506 m 0
 128 586 164 726 306 726 c 256
 363 726 416 705 416 619 c 0
 416 551 381 407 239 407 c 256
 150 407 128 462 128 506 c 0
EndSplineSet
EndChar

StartChar: guillemotright
Encoding: 187 187 125
Width: 559
VWidth: 1473
Flags: W
HStem: 119 344<190 220 190 190>
VStem: 118 409<119 289 119 119>
LayerCount: 2
Fore
SplineSet
264 289 m 1
 190 463 l 1
 292 463 l 1
 362 289 l 1
 220 119 l 1
 118 119 l 1
 264 289 l 1
429 289 m 1
 357 463 l 1
 460 463 l 1
 527 289 l 1
 387 119 l 1
 284 119 l 1
 429 289 l 1
EndSplineSet
EndChar

StartChar: onequarter
Encoding: 188 188 126
Width: 907
VWidth: 1473
Flags: W
HStem: -10 21G<193 280.788 681 759.958> 96 57<589 700 788 838> 289 60<165 233 308 367>
LayerCount: 2
Fore
SplineSet
773 726 m 1
 846 726 l 1
 265 -10 l 1
 193 -10 l 1
 773 726 l 1
152 289 m 1
 165 349 l 1
 233 349 l 1
 299 661 l 1
 217 642 l 1
 227 692 l 1
 324 726 l 1
 387 726 l 1
 308 349 l 1
 380 349 l 1
 367 289 l 1
 152 289 l 1
589 153 m 1
 713 153 l 1
 753 340 l 1
 750 340 l 1
 589 153 l 1
522 159 m 1
 759 430 l 1
 847 430 l 1
 788 153 l 1
 852 153 l 1
 838 96 l 1
 775 96 l 1
 756 0 l 1
 681 0 l 1
 700 96 l 1
 508 96 l 1
 522 159 l 1
EndSplineSet
LCarets2: 2 0 0 
Ligature2: "'frac' Diagonal Fractions in Latin lookup 1 subtable" one fraction four
Ligature2: "'frac' Diagonal Fractions in Latin lookup 1 subtable" one slash four
EndChar

StartChar: onehalf
Encoding: 189 189 127
Width: 903
VWidth: 1473
Flags: W
HStem: 0 60<605 813> 289 60<165 233 308 367> 379 59<691.736 799.348>
VStem: 808 76<287.548 358.651>
LayerCount: 2
Fore
SplineSet
762 726 m 1
 832 726 l 1
 253 -10 l 1
 180 -10 l 1
 762 726 l 1
152 289 m 1
 165 349 l 1
 233 349 l 1
 299 661 l 1
 217 642 l 1
 227 692 l 1
 324 726 l 1
 387 726 l 1
 308 349 l 1
 380 349 l 1
 367 289 l 1
 152 289 l 1
762 379 m 0
 699 379 676 348 657 306 c 1
 591 314 l 1
 621 384 680 438 772 438 c 256
 838 438 884 407 884 343 c 0
 884 170 642 149 610 77 c 0
 608 72 606 66 605 60 c 1
 825 60 l 1
 813 0 l 1
 519 0 l 1
 529 49 l 2
 556 177 690 179 776 256 c 0
 807 285 808 319 808 326 c 0
 808 345 799 379 762 379 c 0
EndSplineSet
LCarets2: 2 0 0 
Ligature2: "'frac' Diagonal Fractions in Latin lookup 1 subtable" one fraction two
Ligature2: "'frac' Diagonal Fractions in Latin lookup 1 subtable" one slash two
EndChar

StartChar: threequarters
Encoding: 190 190 128
Width: 906
VWidth: 1473
Flags: W
HStem: 0 21G<208 296.707 681 759.958> 96 57<589 700 788 837> 284 58<211.924 329.458> 488 59<240 352.511> 667 59<257.501 386.927>
VStem: 361 74<373.769 476.982> 389 76<620.27 663.203>
LayerCount: 2
Fore
SplineSet
589 153 m 1xf8
 713 153 l 1
 753 340 l 1
 750 340 l 1
 589 153 l 1xf8
522 159 m 1
 759 430 l 1
 847 430 l 1
 788 153 l 1
 850 153 l 1
 837 96 l 1
 775 96 l 1
 756 0 l 1
 681 0 l 1
 700 96 l 1
 508 96 l 1
 522 159 l 1
788 726 m 1
 859 726 l 1
 281 -10 l 1
 208 -10 l 1
 788 726 l 1
435 439 m 0xfc
 435 388 407 284 246 284 c 0
 173 284 123 316 106 361 c 1
 162 399 l 1
 194 348 234 342 261 342 c 0
 303 342 361 361 361 437 c 0xfc
 361 468 349 488 271 488 c 2
 228 488 l 1
 240 547 l 1
 275 547 l 2
 353 547 375 566 387 617 c 0
 388 623 389 629 389 634 c 0
 389 654 381 667 334 667 c 0
 283 667 255 650 236 625 c 1
 190 656 l 1
 229 696 279 726 351 726 c 0
 444 726 465 697 465 653 c 0xfa
 465 635 458 589 436 559 c 0
 424 543 403 530 373 519 c 1
 421 504 435 473 435 439 c 0xfc
EndSplineSet
LCarets2: 2 0 0 
Ligature2: "'frac' Diagonal Fractions in Latin lookup 1 subtable" three fraction four
Ligature2: "'frac' Diagonal Fractions in Latin lookup 1 subtable" three slash four
EndChar

StartChar: questiondown
Encoding: 191 191 129
Width: 434
VWidth: 1473
Flags: W
HStem: -239 87<149.563 293.182> 458 122<329 451>
VStem: 19 107<-127.03 -4.49829>
LayerCount: 2
Fore
SplineSet
373 -47 m 1
 452 -91 l 1
 402 -180 297 -239 193 -239 c 0
 97 -239 19 -193 19 -90 c 0
 19 -42 35 14 74 56 c 0
 176 166 263 191 280 275 c 2
 293 333 l 1
 401 333 l 1
 387 275 l 2
 360 130 126 65 126 -76 c 0
 126 -102 142 -152 213 -152 c 0
 277 -152 328 -118 373 -47 c 1
476 580 m 1
 451 458 l 1
 303 458 l 1
 329 580 l 1
 476 580 l 1
EndSplineSet
EndChar

StartChar: AE
Encoding: 198 198 136
Width: 956
VWidth: 1473
Flags: W
HStem: 0 77<625 922> 193 80<333 552> 336 76<695 953> 639 77<610 648 744 1062>
LayerCount: 2
Fore
SplineSet
625 77 m 1
 938 77 l 1
 922 0 l 1
 513 0 l 1
 552 193 l 1
 284 193 l 1
 146 0 l 1
 29 0 l 1
 577 716 l 1
 1078 716 l 1
 1062 639 l 1
 744 639 l 1
 695 412 l 1
 969 412 l 1
 953 336 l 1
 679 336 l 1
 625 77 l 1
570 273 m 1
 648 641 l 1
 610 641 l 1
 333 273 l 1
 570 273 l 1
EndSplineSet
EndChar

StartChar: Eth
Encoding: 208 208 146
Width: 687
VWidth: 1473
Flags: W
HStem: 0 77<208 475.553> 327 74<55 158 275 454> 639 77<327 581.674>
VStem: 623 101<462.157 599.716>
LayerCount: 2
Fore
SplineSet
507 716 m 2
 627 716 724 676 724 517 c 0
 724 462 701 204 590 88 c 0
 527 22 446 -0 355 0 c 2
 88 0 l 1
 158 327 l 1
 40 327 l 1
 55 401 l 1
 172 401 l 1
 240 716 l 1
 507 716 l 2
623 513 m 0
 623 614 573 639 491 639 c 2
 327 639 l 1
 275 401 l 1
 468 401 l 1
 454 327 l 1
 261 327 l 1
 208 77 l 1
 371 77 l 2
 508 77 554 143 600 348 c 0
 617 429 623 480 623 513 c 0
EndSplineSet
EndChar

StartChar: multiply
Encoding: 215 215 153
Width: 565
VWidth: 1473
Flags: W
LayerCount: 2
Fore
SplineSet
395 311 m 1
 555 108 l 1
 489 53 l 1
 329 256 l 1
 82 53 l 1
 40 108 l 1
 286 311 l 1
 127 516 l 1
 193 570 l 1
 352 365 l 1
 600 570 l 1
 642 516 l 1
 395 311 l 1
EndSplineSet
EndChar

StartChar: Oslash
Encoding: 216 216 154
Width: 695
VWidth: 1473
Flags: W
HStem: -9 84<264.949 464.904> 639 81<379.738 552.543> 799 20G<738.462 829>
VStem: 115 99<175.203 334.897> 624 104<397.516 562.561>
LayerCount: 2
Fore
SplineSet
685 654 m 1
 715 617 728 569 728 504 c 0
 728 410 697 203 588 84 c 0
 530 22 450 -9 345 -9 c 0
 263 -9 203 11 166 50 c 1
 49 -88 l 1
 -15 -88 l 1
 137 93 l 1
 123 124 115 161 115 205 c 0
 115 285 147 507 256 626 c 0
 314 689 394 720 499 720 c 0
 559 720 607 710 642 689 c 1
 756 819 l 1
 829 819 l 1
 685 654 l 1
234 124 m 1
 265 87 299 75 362 75 c 0
 507 75 564 162 604 349 c 0
 620 425 624 473 624 504 c 0
 624 519 623 534 616 579 c 1
 234 124 l 1
577 617 m 1
 548 634 526 639 483 639 c 0
 357 639 287 583 239 349 c 0
 225 289 216 230 214 175 c 1
 577 617 l 1
EndSplineSet
EndChar

StartChar: Thorn
Encoding: 222 222 160
Width: 685
VWidth: 1473
Flags: W
HStem: 0 21G<112 219.211> 190 75<271 552.395> 564 77<351 607.867> 789 20G<278.773 386>
VStem: 626 101<457.453 545.498>
LayerCount: 2
Fore
SplineSet
520 641 m 2
 676 641 727 581 727 491 c 0
 727 451 712 320 632 252 c 0
 584 210 516 190 424 190 c 2
 255 190 l 1
 215 0 l 1
 112 0 l 1
 283 809 l 1
 386 809 l 1
 351 641 l 1
 520 641 l 2
626 497 m 0
 626 551 588 564 504 564 c 2
 334 564 l 1
 271 265 l 1
 440 265 l 2
 585 265 590 314 613 415 c 256
 620 448 626 481 626 497 c 0
EndSplineSet
EndChar

StartChar: germandbls
Encoding: 223 223 161
Width: 559
VWidth: 1473
Flags: W
HStem: -12 77<267.015 411.752> 330 68<339 419.596> 644 76<343.778 481.208>
VStem: 469 100<128.578 284.959> 496 97<516.088 628.583>
LayerCount: 2
Fore
SplineSet
496 577 m 0xe8
 496 630 461 644 407 644 c 0
 340 644 309 597 295 527 c 2
 183 0 l 1
 85 0 l 1
 196 523 l 2
 222 643 292 720 434 720 c 0
 533 720 593 666 593 581 c 0xe8
 593 523 568 426 451 374 c 1
 567 336 569 263 569 233 c 0
 569 182 550 -12 330 -12 c 0
 293 -12 253 1 234 15 c 1
 280 87 l 1
 299 76 323 65 351 65 c 0
 439 65 469 162 469 217 c 0xf0
 469 299 407 330 324 330 c 1
 339 398 l 1
 439 401 468 432 491 538 c 0
 494 553 496 566 496 577 c 0xe8
EndSplineSet
EndChar

StartChar: ae
Encoding: 230 230 168
Width: 917
VWidth: 1473
Flags: W
HStem: -12 69<164.852 324.107 570.947 747.089> 281 70<242.834 445 554 847> 526 68<295.646 459.711 665.4 822.608>
VStem: 57 93<71.9022 182.946> 852 81<366.563 498.485>
LayerCount: 2
Fore
SplineSet
933 422 m 0
 933 373 924 320 915 281 c 1
 539 281 l 1
 534 254 528 216 528 184 c 0
 528 121 552 57 650 57 c 0
 751 57 794 106 835 168 c 1
 888 131 l 1
 833 47 762 -12 629 -12 c 0
 562 -12 500 8 464 99 c 1
 367 14 306 -12 200 -12 c 0
 99 -12 57 54 57 115 c 0
 57 149 72 264 182 314 c 0
 231 337 308 354 463 354 c 1
 477 423 l 2
 479 435 481 445 481 455 c 0
 481 512 430 526 379 526 c 0
 342 526 283 519 194 420 c 1
 144 463 l 1
 248 583 353 594 396 594 c 0
 479 594 540 567 554 489 c 1
 637 585 709 594 756 594 c 0
 855 594 933 560 933 422 c 0
445 284 m 1
 185 284 170 232 153 158 c 0
 151 145 150 134 150 124 c 0
 150 79 176 57 227 57 c 0
 308 57 367 96 412 138 c 1
 445 284 l 1
852 428 m 0
 852 506 810 526 738 526 c 0
 654 526 573 442 554 351 c 1
 847 351 l 1
 850 380 852 406 852 428 c 0
EndSplineSet
EndChar

StartChar: eth
Encoding: 240 240 178
Width: 530
VWidth: 1473
Flags: W
HStem: -12 69<205.776 358.876> 438 67<278.142 418.355> 700 20G<321.138 389 527 579.455>
VStem: 83 94<84.6925 243.695> 458 100<274.189 409.866>
LayerCount: 2
Fore
SplineSet
458 341 m 0
 458 419 410 438 358 438 c 256
 261 438 212 369 189 247 c 256
 182 213 177 178 177 155 c 0
 177 77 222 57 277 57 c 256
 378 57 418 121 445 247 c 256
 457 303 458 332 458 341 c 0
371 505 m 0
 403 505 423 503 463 480 c 1
 466 483 l 1
 454 521 434 539 398 592 c 1
 271 532 l 1
 249 576 l 1
 364 631 l 1
 347 653 325 673 296 691 c 1
 377 720 l 1
 401 702 424 682 443 660 c 1
 569 720 l 1
 592 676 l 1
 476 620 l 1
 526 554 558 479 558 384 c 0
 558 329 544 261 541 247 c 0
 511 104 428 -12 262 -12 c 256
 169 -12 83 23 83 162 c 0
 83 240 111 360 187 436 c 0
 233 482 294 505 371 505 c 0
EndSplineSet
EndChar

StartChar: divide
Encoding: 247 247 185
Width: 565
VWidth: 1473
Flags: W
HStem: 21 128<262.358 338.583> 264 81<110 583> 460 128<353.971 433.029>
VStem: 234 133<49.0427 121.171> 327 133<487.508 560.827>
CounterMasks: 1 e0
LayerCount: 2
Fore
SplineSet
94 264 m 1xe0
 110 345 l 1
 600 345 l 1
 583 264 l 1
 94 264 l 1xe0
327 510 m 0xe8
 327 549 364 588 407 588 c 256
 438 588 460 565 460 538 c 0
 460 503 426 460 380 460 c 256
 349 460 327 483 327 510 c 0xe8
234 70 m 0xf0
 234 105 268 149 314 149 c 256
 348 149 367 122 367 98 c 0
 367 59 326 21 286 21 c 256
 255 21 234 43 234 70 c 0xf0
EndSplineSet
EndChar

StartChar: oslash
Encoding: 248 248 186
Width: 559
VWidth: 1473
Flags: W
HStem: -12 69<216.61 388.722> 526 68<295.629 465.206>
VStem: 501 95<373.375 452.538>
LayerCount: 2
Fore
SplineSet
476 495 m 1
 453 518 433 526 390 526 c 0
 254 526 231 447 199 292 c 0
 185 230 187 229 178 134 c 1
 476 495 l 1
202 91 m 1
 227 66 248 57 292 57 c 0
 431 57 447 131 485 292 c 0
 497 353 501 394 501 454 c 1
 202 91 l 1
277 -12 m 0
 235 -12 182 -7 140 25 c 1
 44 -88 l 1
 -15 -88 l 1
 110 62 l 1
 95 88 87 121 87 162 c 0
 87 225 110 415 201 513 c 0
 255 571 323 594 405 594 c 0
 461 594 505 583 536 560 c 1
 645 687 l 1
 706 687 l 1
 567 526 l 1
 591 492 596 451 596 418 c 0
 596 365 576 176 482 69 c 0
 429 10 359 -12 277 -12 c 0
EndSplineSet
EndChar

StartChar: thorn
Encoding: 254 254 192
Width: 623
VWidth: 1473
Flags: W
HStem: -206 21G<59 160.247> -12 69<297.381 438.808> 526 68<421.376 537.451> 789 20G<269.764 371>
VStem: 564 96<271.371 498.673>
LayerCount: 2
Fore
SplineSet
379 -12 m 0
 318 -12 246 4 211 53 c 1
 156 -206 l 1
 59 -206 l 1
 274 809 l 1
 371 809 l 1
 312 529 l 1
 314 529 l 1
 405 594 474 594 496 594 c 0
 612 594 660 541 660 429 c 0
 660 370 634 145 531 46 c 0
 515 31 470 -12 379 -12 c 0
564 419 m 0
 564 499 529 526 477 526 c 0
 389 526 318 465 292 435 c 1
 231 147 l 1
 245 108 307 57 376 57 c 0
 527 57 564 356 564 419 c 0
EndSplineSet
EndChar

StartChar: dotlessi
Encoding: 305 305 194
Width: 248
VWidth: 1473
Flags: W
HStem: 0 21G<77 176.227> 562 20G<194.808 295>
VStem: 77 218<0 582 1.53064e-18 1.53064e-18>
LayerCount: 2
Fore
SplineSet
172 0 m 1
 77 0 l 1
 199 582 l 1
 295 582 l 1
 172 0 l 1
EndSplineSet
EndChar

StartChar: Lslash
Encoding: 321 321 195
Width: 559
VWidth: 1473
Flags: W
HStem: 0 75<230 547> 789 20G<278.745 386>
VStem: 82 479<75 309 817.904 1135.87>
LayerCount: 2
Fore
SplineSet
298 393 m 1
 230 75 l 1
 561 75 l 1
 547 0 l 1
 112 0 l 1
 186 348 l 1
 82 309 l 1
 100 395 l 1
 203 433 l 1
 283 809 l 1
 386 809 l 1
 315 477 l 1
 523 554 l 1
 505 468 l 1
 298 393 l 1
EndSplineSet
EndChar

StartChar: lslash
Encoding: 322 322 196
Width: 278
VWidth: 1473
Flags: W
HStem: 0 21G<91 191.224> 789 20G<257.824 358>
VStem: 68 319<312 526 288.276 312>
LayerCount: 2
Fore
SplineSet
187 0 m 1
 91 0 l 1
 166 359 l 1
 68 312 l 1
 85 399 l 1
 186 445 l 1
 262 809 l 1
 358 809 l 1
 289 480 l 1
 387 526 l 1
 370 440 l 1
 270 393 l 1
 187 0 l 1
EndSplineSet
EndChar

StartChar: OE
Encoding: 338 338 197
Width: 969
VWidth: 1473
Flags: W
HStem: -9 83<271.053 437.505> 0 77<638 935> 336 76<709 966> 639 77<379.612 568.409 757 1075>
VStem: 117 101<145.98 314.029>
LayerCount: 2
Fore
SplineSet
218 220 m 0xb8
 218 173 215 74 362 74 c 0
 419 74 500 80 538 96 c 1
 651 625 l 1
 618 633 550 641 483 641 c 0
 358 641 284 583 236 349 c 0
 225 299 218 255 218 220 c 0xb8
499 720 m 0
 567 720 619 716 670 716 c 2
 1092 716 l 1
 1075 639 l 1
 757 639 l 1
 709 412 l 1
 983 412 l 1
 966 336 l 1
 692 336 l 1
 638 77 l 1
 952 77 l 1
 935 0 l 1
 519 0 l 2x78
 476 0 434 -9 345 -9 c 0
 189 -9 117 59 117 212 c 0
 117 292 148 508 256 626 c 0
 314 689 394 720 499 720 c 0
EndSplineSet
EndChar

StartChar: oe
Encoding: 339 339 198
Width: 932
VWidth: 1473
Flags: W
HStem: -12 77<607.473 755.39> -12 69<214.052 375.557> 281 70<592 863> 526 68<304.903 464.346 681.844 844.727>
VStem: 86 96<88.0802 263.164> 872 90<375.53 499.51>
LayerCount: 2
Fore
SplineSet
497 407 m 0x7c
 497 479 476 526 391 526 c 0
 275 526 230 446 199 292 c 0
 188 243 182 200 182 168 c 0
 182 79 225 57 292 57 c 0
 368 57 440 87 483 292 c 256
 492 337 497 375 497 407 c 0x7c
659 -12 m 0xbc
 524 -12 492 49 486 102 c 1
 453 29 390 -12 277 -12 c 0x7c
 127 -12 86 56 86 158 c 0
 86 221 111 416 204 518 c 0
 250 569 317 594 405 594 c 0
 532.703 594 567.318 529.083 569 482 c 1
 612 555 667 594 794 594 c 0
 928 594 962 522 962 425 c 0
 962 385 956 337 944 281 c 1
 577 281 l 1
 571 250 568 222 568 197 c 0
 568 130 589 65 673 65 c 0
 747 65 811 118 859 174 c 1
 919 131 l 1
 832 24 763 -12 659 -12 c 0xbc
872 426 m 0
 872 492 843 526 777 526 c 0
 652 526 623 454 592 351 c 1
 863 351 l 1
 869 380 872 405 872 426 c 0
EndSplineSet
EndChar

StartChar: florin
Encoding: 402 402 204
Width: 564
VWidth: 1473
Flags: W
HStem: -200 81<12.5076 114.738> 408 66<196 327 451 566> 706 84<633.961 701> 716 82<563.997 659.929>
LayerCount: 2
Fore
SplineSet
349 474 m 1xd0
 426 704 515 798 625 798 c 0xd0
 647.931 798 671.38 796.128 701 790 c 1
 703 785 705 773 705 762 c 0
 705 739 693 702 675 706 c 1xe0
 665 710 642 716 620 716 c 0
 565 716 522 669 482 560 c 2
 451 474 l 1
 580 474 l 1
 566 408 l 1
 429 408 l 1
 278 -13 l 2
 245 -106 178 -200 29 -200 c 0
 -7 -200 -22 -197 -22 -180 c 0
 -22 -165 -6 -140 15 -110 c 1
 34 -118 42 -119 49 -119 c 0
 108 -119 150 -87 197 43 c 2
 327 408 l 1
 181 408 l 1
 196 474 l 1
 349 474 l 1xd0
EndSplineSet
EndChar

StartChar: circumflex
Encoding: 710 710 205
Width: 248
VWidth: 1473
Flags: W
HStem: 647 154<256 427 256 256>
VStem: 94 333<647 647 647 647>
LayerCount: 2
Fore
SplineSet
427 647 m 1
 337 647 l 1
 283 745 l 1
 184 647 l 1
 94 647 l 1
 256 801 l 1
 331 801 l 1
 427 647 l 1
EndSplineSet
EndChar

StartChar: caron
Encoding: 711 711 206
Width: 248
VWidth: 1473
Flags: W
HStem: 647 154<224 231 127 299 127 127>
VStem: 127 333<801 801 801 973>
LayerCount: 2
Fore
SplineSet
127 801 m 1
 231 801 l 1
 274 703 l 1
 355 801 l 1
 460 801 l 1
 299 647 l 1
 224 647 l 1
 127 801 l 1
EndSplineSet
EndChar

StartChar: breve
Encoding: 728 728 207
Width: 248
VWidth: 1473
Flags: W
HStem: 653 75<217.102 330.369> 774 20G<130.5 211 367.5 454>
VStem: 129 81<736.94 783.738 779.477 788 788 794> 374 80<735.681 794>
LayerCount: 2
Fore
SplineSet
210 782 m 0
 210 743 227 728 280 728 c 0
 337 728 361 749 374 794 c 1
 454 794 l 1
 416 655 302 653 264 653 c 0
 189 653 129 675 129 765 c 0
 129 774 130 784 131 794 c 1
 211 794 l 1
 211 790 210 786 210 782 c 0
EndSplineSet
EndChar

StartChar: dotaccent
Encoding: 729 729 208
Width: 248
VWidth: 1473
Flags: W
HStem: 659 106<234 315 212 337 234 234>
LayerCount: 2
Fore
SplineSet
337 765 m 1
 315 659 l 1
 212 659 l 1
 234 765 l 1
 337 765 l 1
EndSplineSet
EndChar

StartChar: ring
Encoding: 730 730 209
Width: 248
VWidth: 1473
Flags: W
HStem: 642 59<234.821 320.687> 807 59<247.206 334.307>
VStem: 169 60<707.957 787.588> 339 60<720.391 801.865>
LayerCount: 2
Fore
SplineSet
169 729 m 0
 169 794 231 866 308 866 c 0
 360 866 399 827 399 780 c 0
 399 707 330 642 261 642 c 0
 208 642 169 679 169 729 c 0
339 769 m 0
 339 792 319 807 296 807 c 256
 257 807 229 773 229 743 c 0
 229 718 250 701 274 701 c 256
 309 701 339 733 339 769 c 0
EndSplineSet
EndChar

StartChar: ogonek
Encoding: 731 731 210
Width: 248
VWidth: 1473
Flags: W
HStem: -231 70<37.714 151.994>
VStem: -30 277<-167 35 -167 -167> -30 87<-189.087 -98.5263>
LayerCount: 2
Fore
SplineSet
57 -231 m 0xa0
 18 -231 -30 -218 -30 -167 c 0
 -30 -83 52 -24 172 12 c 2
 247 35 l 1xc0
 239 -3 l 1
 122 -36 57 -98 57 -133 c 0
 57 -155 69 -161 91 -161 c 0
 112 -161 146 -149 196 -124 c 2
 227 -109 l 1
 230 -172 l 1
 218 -179 126 -231 57 -231 c 0xa0
EndSplineSet
EndChar

StartChar: tilde
Encoding: 732 732 211
Width: 248
VWidth: 1473
Flags: W
HStem: 659 125<410 415 88 466 214 214> 664 70<292.777 389.922> 715 69<166.632 262.722>
LayerCount: 2
Fore
SplineSet
209 715 m 0x20
 171 715 151 674 146 659 c 1
 88 659 l 1
 104 713 156 784 214 784 c 0x80
 264 784 312 734 348 734 c 0
 385 734 404 773 410 788 c 1
 466 788 l 1
 451 748 415 664 340 664 c 0x40
 300 664 237 715 209 715 c 0x20
EndSplineSet
EndChar

StartChar: hungarumlaut
Encoding: 733 733 212
Width: 248
VWidth: 1473
Flags: W
HStem: 647 154<200 373 373 373>
LayerCount: 2
Fore
SplineSet
373 801 m 1
 200 647 l 1
 128 647 l 1
 256 801 l 1
 373 801 l 1
538 801 m 1
 336 647 l 1
 264 647 l 1
 421 801 l 1
 538 801 l 1
EndSplineSet
EndChar

StartChar: uni0E01
Encoding: 3585 3585 214
Width: 648
VWidth: 1473
Flags: W
HStem: 0 21G<97 190.13 479 571.196> 385 61<293.573 354.238> 532 66<339.454 552.732>
VStem: 568 86<411.458 515.898>
LayerCount: 2
Fore
SplineSet
281 427 m 0
 303 427 315 446 337 446 c 0
 347 446 363 410 363 393 c 0
 363 388 362 385 358 385 c 0
 279 385 253 319 237 247 c 2
 186 0 l 1
 97 0 l 1
 152 262 l 2
 166 329 183 358 227 395 c 1
 205 409 165 444 165 468 c 0
 165 500 320 598 467 598 c 0
 581 598 654 561 654 449 c 0
 654 425 651 398 644 367 c 2
 567 0 l 1
 479 0 l 1
 555 367 l 2
 565 413 568 443 568 461 c 0
 568 521 538 532 452 532 c 0
 365 532 259 494 253 473 c 1
 252 462 270 427 281 427 c 0
EndSplineSet
EndChar

StartChar: uni0E02
Encoding: 3586 3586 215
Width: 617
VWidth: 1473
Flags: W
HStem: -9 66<258.618 434.972> 367 53<218.283 272.536> 532 63<246.642 380.884>
VStem: 149 90<77.265 151.668> 155 61<428.276 503.362> 390 73<410.5 520.369>
LayerCount: 2
Fore
SplineSet
216 453 m 0xec
 216 439 222 420 245 420 c 0
 255 420 282 422 293 466 c 2
 302 508 l 1
 327 508 l 1
 345 466 l 1
 333 418 299 367 230 367 c 256
 170 367 155 408 155 442 c 0xec
 155 529 246 595 336 595 c 0
 402 595 463 560 463 484 c 0
 463 379 369 330 291 266 c 0
 272 250 260 231 255 209 c 2
 243 159 l 2
 240 147 239 135 239 125 c 0
 239 84 266 57 337 57 c 0
 436 57 467 89 485 166 c 2
 494 222 l 2
 497 243 502 265 507 290 c 2
 572 589 l 1
 661 589 l 1
 573 174 l 2
 559 109 529 63 483 34 c 0
 437 5 383 -9 321 -9 c 0
 237 -9 149 21 149 113 c 0xf4
 149 125 150 136 153 149 c 2
 165 206 l 2
 191 335 390 345 390 478 c 0
 390 510 373 532 317 532 c 0
 269 532 216 509 216 453 c 0xec
EndSplineSet
EndChar

StartChar: uni0E03
Encoding: 3587 3587 216
Width: 637
VWidth: 1473
Flags: W
HStem: -9 66<269.071 456.657> 390 52<204.84 277.131> 542 52<218.398 290.598> 569 20<392.932 429.5 587.652 682>
VStem: 152 51<443.9 527.719> 167 90<71.0211 127.526 122.133 132.919 132.919 134 144 151.5> 410 68<464.876 517.022>
LayerCount: 2
Fore
SplineSet
257 113 m 0xe6
 257 85 266 57 358 57 c 0
 507 57 497 130 527 290 c 2
 592 589 l 1
 682 589 l 1
 594 174 l 2
 580 109 550 63 504 34 c 0
 458 5 404 -9 342 -9 c 0
 191 -9 167 56 167 100 c 0xd6
 167 110 168 122 171 134 c 2
 187 214 l 2
 214 351 375 334 407 466 c 0
 409 477 410 486 410 493 c 0
 410 502 407 515 399 524 c 1
 329 476 l 1
 294 518 293 542 258 542 c 0
 224 542 203 506 203 475 c 0
 203 454 215 442 237 442 c 0
 259 442 288 468 293 473 c 1
 303 455 l 1
 287 421 l 1
 266 400 245 390 225 390 c 0
 167 390 152 434 152 467 c 0xea
 152 537 207 594 268 594 c 0
 277 594 312 594 346 541 c 1
 417 600 l 1
 442 588 478 542 478 490 c 0
 478 467 465 407 434 374 c 0
 356 291 292 294 275 214 c 2
 261 144 l 2
 258 132 257 122 257 113 c 0xe6
EndSplineSet
EndChar

StartChar: uni0E04
Encoding: 3588 3588 217
Width: 655
VWidth: 1473
Flags: W
HStem: 0 21G<99.5 203.5 489 579.195> 202 51<371.128 439.613> 355 57<364.308 455.641> 532 66<337.887 539.328>
VStem: 142 77<246.102 359.551> 458 56<271.804 351.268> 572 87<386.695 500.082>
LayerCount: 2
Fore
SplineSet
453 598 m 0
 619 598 659 534 659 438 c 0
 659 411 655 381 648 348 c 2
 575 0 l 1
 489 0 l 1
 560 333 l 2
 568 371 572 403 572 428 c 0
 572 509 528 532 443 532 c 0
 391 532 346 519 308 493 c 0
 269 467 243 422 230 357 c 0
 222 326 219 301 219 278 c 0
 219 266 220 255 222 245 c 1
 263 332 344 412 430 412 c 0
 478 412 514 385 514 335 c 0
 514 258 451 202 387 202 c 0
 360 202 338 212 323 231 c 1
 326 277 l 1
 345 295 l 1
 367 268 l 2
 374 258 383 253 396 253 c 0
 433 253 458 291 458 318 c 0
 458 342 444 355 417 355 c 0
 338 355 224 190 183 0 c 1
 103 0 l 2
 96 0 94 3 94 7 c 0
 94 37 139 123 161 156 c 0
 167 167 170 175 170 182 c 0
 170 191 142 228 142 292 c 0
 142 447 261 598 453 598 c 0
EndSplineSet
EndChar

StartChar: uni0E05
Encoding: 3589 3589 218
Width: 655
VWidth: 1473
Flags: W
HStem: 0 21G<99.5 203.5 489 579.195> 202 51<371.128 439.613> 355 57<364.308 455.641> 581 20G<333.5 388.774 514.231 587>
VStem: 142 77<246.102 360.084> 458 56<271.804 351.268> 581 79<412.279 516.329>
LayerCount: 2
Fore
SplineSet
545 601 m 1
 629 586 660 543 660 454 c 0
 660 423 656 388 648 348 c 2
 575 0 l 1
 489 0 l 1
 566 365 l 2
 577 412 581 442 581 461 c 0
 581 505 564 521 527 532 c 1
 430 470 l 1
 354 530 l 1
 289 510 253 465 230 357 c 0
 222 326 219 301 219 278 c 0
 219 266 220 255 222 245 c 1
 263 332 344 412 430 412 c 0
 478 412 514 385 514 335 c 0
 514 258 451 202 387 202 c 0
 360 202 338 212 323 231 c 1
 326 277 l 1
 345 295 l 1
 367 268 l 2
 374 258 383 253 396 253 c 0
 433 253 458 291 458 318 c 0
 458 342 444 355 417 355 c 0
 338 355 224 190 183 0 c 1
 103 0 l 2
 96 0 94 3 94 7 c 0
 94 37 139 123 161 156 c 0
 167 167 170 175 170 182 c 0
 170 191 142 228 142 292 c 0
 142 352 165 446 223 510 c 0
 259 549 305 579 362 598 c 1
 445 536 l 1
 545 601 l 1
EndSplineSet
EndChar

StartChar: uni0E06
Encoding: 3590 3590 219
Width: 721
VWidth: 1473
Flags: W
HStem: -3 53<185.052 236.203> 376 51<201.956 266.587> 535 59<220.072 302.18> 569 20<417.186 464.5 664.612 757>
VStem: 125 56<52.1783 141.161> 149 51<429.215 516.025> 425 83<444.071 511.832>
LayerCount: 2
Fore
SplineSet
508 491 m 0xe6
 508 391 393 350 362 262 c 1
 493 255 550 171 573 119 c 1
 583 177 588 206 590 216 c 2
 600 268 l 2
 603 284 606 299 608 311 c 2
 669 589 l 1
 757 589 l 1
 680 228 l 2
 674 195 667 164 662 136 c 2
 648 63 l 2
 644 42 642 28 642 21 c 0
 642 4 639 0 629 0 c 2
 542 0 l 1
 537 169 425 200 351 205 c 1
 342 146 l 2
 312 -3 220 -3 199 -3 c 0
 164 -3 125 12 125 74 c 0xda
 125 124 145 184 189 218 c 0
 219 240 250 255 283 261 c 1
 307 369 401 367 423 466 c 0
 424 473 425 479 425 484 c 0
 425 500 422 500 412 523 c 1
 342 468 l 1
 302 517 287 535 256 535 c 0
 223 535 200 488 200 461 c 0
 200 440 212 427 234 427 c 0
 241 427 256 429 271 440 c 2
 303 468 l 1
 315 451 l 1
 298 408 l 1
 271 387 246 376 222 376 c 0
 164 376 149 420 149 452 c 0
 149 515 206 594 268 594 c 0
 306 594 345 560 361 541 c 1
 446 600 l 1
 483 584 508 528 508 491 c 0xe6
181 93 m 0
 181 67 193 50 211 50 c 0
 256 50 251 120 271 202 c 1
 204 183 192 159 184 119 c 0
 182 109 181 101 181 93 c 0
EndSplineSet
EndChar

StartChar: uni0E07
Encoding: 3591 3591 220
Width: 565
VWidth: 1473
Flags: W
HStem: -2 57<288.467 370.996> 545 53<405.022 493.842>
VStem: 198 85<56.2584 81.3766 81.3766 263.22> 337 55<464.618 531.935> 498 84<442.565 540.305>
LayerCount: 2
Fore
SplineSet
342 -2 m 0
 281 -2 196 2 196 21 c 0
 197 52 198 80 198 104 c 0
 198 220 184 270 124 361 c 0
 124 362 123 362 123 363 c 0
 123 379.743 214.999 423 215 423 c 1
 251 376 283 270 283 100 c 0
 283 89 283 77 283 65 c 0
 283 57 311 55 328 55 c 0
 340 55 373 56 376 66 c 0
 383 97 391 130 402 162 c 2
 463 344 l 2
 472 371 479 395 483 414 c 2
 494 466 l 2
 497 479 498 490 498 500 c 0
 498 536 480 545 451 545 c 0
 417 545 392 519 392 489 c 0
 392 475 399 454 429 454 c 2
 473 454 l 1
 467 429 l 1
 418 402 l 1
 371 402 337 427 337 473 c 0
 337 551 416 598 477 598 c 0
 550 598 582 556 582 483 c 0
 582 444 573 402 534 291 c 2
 508 218 l 2
 503 204 479 136 465 80 c 2
 456 44 l 2
 449 15 455 14 430 6 c 0
 413 2 386 -2 342 -2 c 0
EndSplineSet
EndChar

StartChar: uni0E08
Encoding: 3592 3592 221
Width: 630
VWidth: 1473
Flags: W
HStem: -3 58<352.638 446.7> 330 53<217.245 295.242> 526 71<352.418 506.831>
VStem: 148 55<250.226 315.285> 303 73<207.457 324.474> 548 93<373.27 487.862>
LayerCount: 2
Fore
SplineSet
433 597 m 0
 591 597 641 518 641 453 c 0
 641 419 627 366 598 282 c 2
 573 215 l 2
 570 206 552 159 544 120 c 2
 534 80 l 2
 519 13 528 15 510 10 c 0
 487 3 450 -3 390 -3 c 256
 319 -3 253 5 256 21 c 2
 284 136 l 2
 296 184 303 227 303 260 c 0
 303 315 286 330 262 330 c 0
 229 330 203 301 203 273 c 0
 203 259 211 239 240 239 c 2
 284 239 l 1
 278 214 l 1
 228 187 l 1
 177.534 187 148 214.717 148 256 c 0
 148 316 193 383 274 383 c 0
 355 383 376 330 376 256 c 0
 376 206 367 143 348 65 c 0
 345 57 379 55 396 55 c 256
 420 55 454 57 454 66 c 0
 463 131 482 197 500 254 c 2
 526 332 l 2
 545 389 548 410 548 430 c 0
 548 507 471 526 426 526 c 0
 383 526 305 521 206 426 c 0
 197 415 146 434 131 479 c 1
 171 522 312 597 433 597 c 0
EndSplineSet
EndChar

StartChar: uni0E09
Encoding: 3593 3593 222
Width: 692
VWidth: 1473
Flags: W
HStem: -6 53<490.283 571.475> 187 62<451.13 510.906> 320 51<199.839 277.997> 526 71<356.327 571.506>
VStem: 126 55<223.12 300.894> 282 75<247.354 317.203> 435 53<57.3392 138.361> 591 83<82.8673 165.679> 611 92<414.906 488.689>
LayerCount: 2
Fore
SplineSet
569 240 m 1xff
 574 251 580 273 583 287 c 2
 608 408 l 2
 610 419 611 428 611 437 c 0
 611 474 583 526 477 526 c 0
 399 526 306 498 239 432 c 0
 237 430 234 429 232 429 c 0
 220 429 193 451 172 494 c 1
 238 540 357 597 494 597 c 0
 591 597 703 569 703 458 c 0xfe80
 703 443 701 426 697 408 c 2
 672 287 l 2
 669 273 656 243 635 224 c 1
 659 208 674 179 674 140 c 0
 674 91 654 42 615 19 c 0
 587 2 558 -6 529 -6 c 256
 487 -6 435 14 435 69 c 0
 435 139 486 175 501 186 c 1
 497 187 492 187 486 187 c 0
 408 187 315 120 290 0 c 1
 218 0 l 2
 188 0 233 37 268 194 c 2
 278 245 l 2
 281 256 282 266 282 275 c 0
 282 302 271 320 247 320 c 0
 206 320 181 284 181 250 c 0
 181 232 189 211 220 211 c 2
 256 211 l 1
 250 184 l 1
 205 161 l 1
 142 161 126 209 126 237 c 0
 126 310 189 371 259 371 c 0
 318 371 357 338 357 280 c 0
 357 266 355 252 351 236 c 2
 339 194 l 2
 330 170 320 152 314 134 c 1
 381 236 484 249 509 249 c 0
 521 249 547 248 569 240 c 1xff
524 47 m 0
 582 47 591 108 591 122 c 0xff
 591 147 573 168 554 174 c 1
 511 149 488 120 488 84 c 0
 488 65 495 47 524 47 c 0
EndSplineSet
EndChar

StartChar: uni0E0A
Encoding: 3594 3594 223
Width: 629
VWidth: 1473
Flags: W
HStem: -9 66<260.245 448.317> 371 55<200.886 260.399> 539 56<226.494 365.121>
VStem: 141 59<426.995 491.701> 151 90<75.5744 134.284 129.133 139.435 139.435 141 152 158.5> 376 64<415.795 527.425> 533 90<337.55 351 354 362.976 362.976 364.523 363.749 417.378>
LayerCount: 2
Fore
SplineSet
505 429 m 0xee
 488 429 497 421 477 421 c 0
 467 421 447 471 458 474 c 0
 483 480 551 493 605 582 c 0
 615 596 624 610 631 625 c 1
 642 623 652 620 661 616 c 2
 686 606 l 2
 690 604 706 598 706 585 c 1
 705 582 643 505 579 466 c 1
 596 452 l 2
 626 424 627 394 627 384 c 0
 627 375 626 365 623 354 c 2
 583 166 l 2
 573 116 532 -9 327 -9 c 0
 182 -9 151 60 151 107 c 0xee
 151 117 152 129 155 141 c 2
 168 206 l 2
 197 339 376 352 376 484 c 0
 376 517 358 539 301 539 c 0
 214 539 206 489 202 471 c 0
 201 466 200 461 200 456 c 0
 200 437 211 426 231 426 c 0
 241 426 271 428 280 470 c 2
 289 513 l 1
 314 513 l 1
 331 470 l 1
 322 421 287 371 220 371 c 256
 157 371 141 415 141 445 c 0xf6
 141 505 196 595 319 595 c 0
 421 595 440 537 440 498 c 0
 440 421 390 368 346 328 c 2
 292 278 l 2
 275 261 264 242 259 221 c 2
 245 152 l 2
 243 141 241 130 241 121 c 0
 241 83 265 57 343 57 c 0
 485 57 484 114 499 186 c 0
 506 221 514 255 517 272 c 2
 533 351 l 2
 536 364 537 375 537 384 c 0
 537 419 518 429 505 429 c 0xee
EndSplineSet
EndChar

StartChar: uni0E0B
Encoding: 3595 3595 224
Width: 637
VWidth: 1473
Flags: W
HStem: -9 66<268.9 456.126> 389 51<199.093 253.33> 539 55<209.913 283.262>
VStem: 144 52<450.083 526.911> 160 90<75.8869 133.305 129.133 137.477 137.477 141 152 159.25> 383 63<452.364 553.966> 546 90<354.732 426.716>
LayerCount: 2
Fore
SplineSet
336 -9 m 0xee
 190 -9 160 60 160 107 c 0xee
 160 117 161 129 164 141 c 2
 178 214 l 2
 211 359 353 351 377 466 c 0
 381 485 383 499 383 508 c 0
 383 513 383 517 382 520 c 1
 318 476 l 1
 275 530 263 539 249 539 c 0
 216 539 196 506 196 478 c 0
 196 459 202 440 230 440 c 0
 247 440 270 458 286 471 c 1
 296 454 l 1
 280 420 l 1
 258 399 237 389 218 389 c 0
 159 389 144 431 144 466 c 0xf6
 144 530 197 594 261 594 c 0
 305 594 324 558 334 536 c 1
 421 600 l 1
 439 583 446 561 446 529 c 0
 446 335 286 327 268 221 c 2
 253 152 l 2
 251 142 250 132 250 123 c 0
 250 84 273 57 352 57 c 0
 453 57 488 82 502 159 c 2
 516 221 l 1
 542 351 l 2
 545 364 546 375 546 384 c 0
 546 419 527 429 514 429 c 0
 497 429 503 421 486 421 c 0
 475 421 455 471 467 474 c 0
 495 481 561 496 614 582 c 0
 624 596 632 610 639 625 c 1
 658 622 715 604 715 585 c 1
 714 582 652 505 588 466 c 1
 596 459 636 433 636 384 c 0
 636 375 635 365 632 354 c 2
 592 166 l 2
 582 116 541 -9 336 -9 c 0xee
EndSplineSet
EndChar

StartChar: uni0E0C
Encoding: 3596 3596 225
Width: 978
VWidth: 1473
Flags: W
HStem: -9 52<209.565 292.541 459.148 510.297> 205 57<636 722.377> 385 42<288.649 343.84> 532 66<327.826 550.527>
VStem: 121 85<56.1894 121.576> 308 54<61.028 137.538> 399 56<52.1246 141.201> 579 88<396.136 505.006>
LayerCount: 2
Fore
SplineSet
455 93 m 0
 455 67 467 50 485 50 c 0
 522 50 523 96 533 141 c 0
 538 159 536 165 542 202 c 1
 478 184 466 158 458 119 c 0
 456 109 455 101 455 93 c 0
289 427 m 0
 311 427 320 446 345 446 c 0
 356 446 382 385 367 385 c 0
 292 385 260 355 240 262 c 2
 209 113 l 2
 207 104 206 95 206 88 c 0
 206 68 213 43 243 43 c 0
 287 43 308 83 308 111 c 0
 308 127 300 150 270 150 c 2
 228 150 l 1
 234 174 l 1
 281 202 l 1
 345 202 362 151 362 121 c 0
 362 55 301 -9 231 -9 c 0
 172 -9 121 28 121 97 c 0
 121 108 122 120 125 133 c 2
 152 262 l 2
 166 329 183 358 227 395 c 1
 204 409 162 447 165 470 c 0
 173 503 306 598 452 598 c 0
 571 598 667 559 667 436 c 0
 667 415 664 392 659 367 c 2
 636 262 l 1
 796 253 821 158 829 119 c 1
 836 163 l 2
 840 180 843 198 846 216 c 2
 857 268 l 2
 860 284 863 299 865 311 c 2
 925 589 l 1
 1014 589 l 1
 918 136 l 2
 916 124 899 44 899 21 c 0
 899 6 896 0 885 0 c 2
 798 0 l 1
 795 162 713 197 626 205 c 1
 616 146 l 2
 586 -3 494 -3 473 -3 c 0
 414 -3 399 36 399 74 c 0
 399 179 471 243 552 259 c 1
 562 302 564 329 566 346 c 2
 570 367 l 2
 576 396 579 421 579 441 c 0
 579 517 535 532 438 532 c 0
 348 532 259 494 253 473 c 0
 251 461 276 427 289 427 c 0
EndSplineSet
EndChar

StartChar: uni0E0D
Encoding: 3597 3597 226
Width: 976
VWidth: 1473
Flags: W
HStem: -277 59<519.968 711.073> -109 49<517.892 578.22> -9 66<612.674 785.225> -9 52<210.89 289.762> 385 42<288.649 343.84> 532 66<317.911 533.166>
VStem: 121 85<56.1894 110.458 100.454 120.461 120.461 129.823> 308 54<61.028 137.538> 452 57<-204.438 -129.004> 498 87<83.1641 147.736> 558 87<357.481 508.276> 577 48<-146 -138.977 -138.977 -134.607 -136.792 -109.238>
LayerCount: 2
Fore
SplineSet
308 111 m 0xdf20
 308 127 300 150 270 150 c 2
 228 150 l 1
 234 174 l 1
 281 202 l 1
 345 202 362 151 362 121 c 0
 362 55 301 -9 231 -9 c 0
 172 -9 121 28 121 97 c 0
 121 108 122 120 125 133 c 2
 152 262 l 2
 166 329 183 358 227 395 c 1
 204 409 162 447 165 470 c 0
 173 506 296 598 438 598 c 0
 587 598 645 535 645 440 c 0xdf20
 645 388 629 338 617 286 c 2
 602 226 l 2
 592 179 585 149 585 130 c 0
 585 86 627 57 694 57 c 0
 837 57 846 158 860 238 c 2
 875 320 l 1
 933 589 l 1
 1021 589 l 1
 937 194 l 2
 925 137 913 87 874 52 c 0
 856 36 806 -9 679 -9 c 0
 607 -9 498 9 498 99 c 0xef40
 498 118 504 157 513 194 c 2
 548 367 l 2
 555 398 558 424 558 445 c 0
 558 519 516 532 423 532 c 0
 329 532 259 493 253 473 c 0
 251 461 276 427 289 427 c 0
 311 427 320 446 345 446 c 0
 356 446 382 385 367 385 c 0
 292 385 260 355 240 262 c 2
 209 113 l 2
 207 104 206 95 206 88 c 0
 206 68 213 43 243 43 c 0
 287 43 308 83 308 111 c 0xdf20
602 -277 m 0
 474 -277 452 -216 452 -176 c 0
 452 -100 518 -60 566 -60 c 0
 602 -60 629 -80 629 -118 c 0
 629 -126 627 -136 625 -146 c 1
 592 -189 l 1
 569 -189 l 1
 577 -146 l 2
 578 -141 579 -136 579 -132 c 0
 579 -117 570 -109 555 -109 c 0
 518 -109 509 -143 509 -166 c 0xcf90
 509 -197 527 -218 610 -218 c 0
 714 -218 754 -186 779 -71 c 1
 866 -71 l 1
 857 -113 813 -277 602 -277 c 0
EndSplineSet
Substitution2: "Single Substitution lookup 27 subtable" uni0E0D.alt1
Substitution2: "Single Substitution lookup 27 subtable" uni0E0D.alt1
EndChar

StartChar: uni0E0E
Encoding: 3598 3598 227
Width: 713
VWidth: 1473
Flags: W
HStem: -268 60<208.932 287.054> -128 59<218.217 333.108> -9 52<119.806 200.924> 152 48<131.609 180> 379 61<353.024 423.102> 532 66<382.737 600.527>
VStem: 62 54<56.2985 120.604> 145 63<-206.828 -140.066> 629 88<396.136 505.006>
LayerCount: 2
Fore
SplineSet
629 441 m 0
 629 517 585 532 488 532 c 0
 394 532 324 493 318 473 c 0
 315 458 345 421 352 421 c 0
 374 421 386 440 408 440 c 0
 415 440 429 412 429 388 c 0
 429 382 427 379 423 379 c 0
 347 379 341 360 324 283 c 2
 317 238 l 2
 300 127 299 64 244 22 c 0
 218 1 188 -9 153 -9 c 256
 80 -9 62 40 62 72 c 0
 62 130 109 200 180 200 c 1
 209 175 l 1
 203 152 l 1
 169 152 l 2
 123 152 116 90 116 82 c 0
 116 66 124 43 158 43 c 0
 200 43 224 88 228 150 c 0
 237 278 233 345 292 395 c 1
 276 405 225 447 230 470 c 0
 238 506 361 598 502 598 c 0
 621 598 717 559 717 436 c 0
 717 415 714 392 709 367 c 2
 575 -265 l 1
 474 -265 l 1
 464 -238 440 -194 398 -166 c 1
 367 -214 302 -268 231 -268 c 0
 195 -268 145 -255 145 -202 c 0
 145 -145 174 -69 290 -69 c 0
 329 -69 354 -78 382 -90 c 1
 382 -90 404 -45 407 -35 c 1
 450 -46 465 -51 465 -60 c 0
 465 -70 444 -98 432 -116 c 1
 453 -130 489 -156 505 -183 c 1
 514 -148 557 70 568 117 c 2
 620 367 l 2
 626 396 629 421 629 441 c 0
208 -183 m 0
 208 -198 217 -208 243 -208 c 0
 265 -208 299 -205 351 -143 c 1
 313 -128 297 -128 283 -128 c 0
 242 -128 208 -139 208 -183 c 0
EndSplineSet
Substitution2: "Single Substitution lookup 27 subtable" uni0E0E.alt1
Substitution2: "Single Substitution lookup 27 subtable" uni0E0E.alt1
EndChar

StartChar: uni0E0F
Encoding: 3599 3599 228
Width: 713
VWidth: 1473
Flags: W
HStem: -274 60<169.557 231.692> -131 60<179.235 257.432> -9 52<119.806 200.924> 152 48<131.609 180> 379 61<353.024 423.102> 532 66<382.737 600.527>
VStem: 62 54<56.2985 120.604> 106 63<-212.712 -152.272> 331 60<-79.679 -49> 629 88<396.136 505.006>
LayerCount: 2
Fore
SplineSet
217 -131 m 0xfdc0
 179 -131 169 -167 169 -188 c 0
 169 -205 180 -214 202 -214 c 0
 223 -214 247 -200 273 -172 c 1
 247 -138 239 -131 217 -131 c 0xfdc0
116 82 m 0xfec0
 116 66 124 43 158 43 c 0
 200 43 224 88 228 150 c 0
 237 278 233 345 292 395 c 1
 276 405 225 447 230 470 c 0
 238 506 361 598 502 598 c 0
 621 598 717 559 717 436 c 0
 717 415 714 392 709 367 c 2
 570 -280 l 1
 477 -280 l 1
 417 -228 l 1
 337 -277 l 1
 296 -221 l 1
 237 -271 206 -274 183 -274 c 0
 154 -274 106 -260 106 -202 c 0xfdc0
 106 -147 140 -71 227 -71 c 0
 251 -71 274 -79 306 -116 c 1
 317 -98 328 -63 331 -49 c 1
 335 -49 394 -50 391 -68 c 0
 386 -96 344 -160 342 -164 c 1
 359 -194 l 1
 430 -153 l 1
 502 -197 l 1
 511 -168 508 -167 534 -48 c 2
 620 367 l 2
 626 396 629 421 629 441 c 0
 629 517 585 532 488 532 c 0
 394 532 324 493 318 473 c 0
 315 458 345 421 352 421 c 0
 374 421 386 440 408 440 c 0
 415 440 429 412 429 388 c 0
 429 382 427 379 423 379 c 0
 347 379 341 360 324 283 c 2
 317 238 l 2
 300 127 299 64 244 22 c 0
 218 1 188 -9 153 -9 c 256
 80 -9 62 40 62 72 c 0xfec0
 62 130 109 200 180 200 c 1
 209 175 l 1
 203 152 l 1
 169 152 l 2xfdc0
 123 152 116 90 116 82 c 0xfec0
EndSplineSet
Substitution2: "Single Substitution lookup 27 subtable" uni0E0F.alt1
Substitution2: "Single Substitution lookup 27 subtable" uni0E0F.alt1
EndChar

StartChar: uni0E10
Encoding: 3600 3600 229
Width: 602
VWidth: 1473
Flags: W
HStem: -290 56<92.2645 172.862> -159 57<91.3538 168.676> -85 41<386.732 445.154> -2 57<364.934 432.202> 255 53<229.948 316.83> 374 77<278.295 492.896> 374 56<258.114 469.095> 505 74<426.22 597.834> 523 66<274.357 372.007>
VStem: 25 58<-231.357 -168.508> 162 55<174.618 240.91> 323 66<130.191 250.105> 341 40<-149.664 -100.199> 447 58<-169.465 -85.6394> 513 91<240.677 353.072>
LayerCount: 2
Fore
SplineSet
83 -206 m 0xf866
 83 -227 101 -234 119 -234 c 256
 161 -234 179 -210 189 -196 c 1
 172 -172 154 -159 135 -159 c 0
 113 -159 83 -174 83 -206 c 0xf866
513 313 m 0
 513 349 483 374 385 374 c 0
 314 374 275 362 228 362 c 0
 195 362 172 376 172 428 c 0
 172 502 219 589 324 589 c 0xfcf6
 358 589 423 579 483 579 c 0
 551 579 626 599 648 603 c 1
 650 583 651 568 651 556 c 0
 651 531 646 523 632 519 c 0
 574 506 500 505 483 505 c 0xf976
 441 505 356 523 342 523 c 0
 288 523 268 509 258 463 c 0
 253 435 266 430 296 430 c 256xfaf6
 349 430 389 451 473 451 c 0
 563 451 604 391 604 331 c 0
 604 269 551 174 504 19 c 0
 501 10 470 -2 407 -2 c 0
 391 -2 280 -2 286 21 c 0
 309 112 323 168 323 204 c 0
 323 239 309 255 275 255 c 0
 244 255 217 229 217 199 c 0
 217 185 224 164 253 164 c 2
 298 164 l 1
 292 138 l 1
 243 112 l 1
 196 112 162 137 162 183 c 0
 162 246 212 308 287 308 c 0
 346 308 389 289 389 213 c 0xfc76
 389 183 381 137 362 65 c 0
 360 56 384 55 396 55 c 0
 404 55 434 56 436 66 c 0
 476 196 513 269 513 313 c 0
447 -117 m 0
 447 -93 437 -85 421 -85 c 0
 391 -85 381 -112 381 -128 c 0
 381 -136 384 -141 392 -149 c 2
 408 -164 l 1
 393 -180 l 1
 359 -174 l 1
 346 -161 341 -146 341 -131 c 0xf86e
 341 -91 378 -44 433 -44 c 0
 495 -44 505 -89 505 -108 c 0
 505 -153 463 -201 443 -289 c 1
 362 -289 l 1
 314 -255 l 1
 242 -292 l 1
 205 -242 l 1
 175 -271 145 -290 105 -290 c 0
 75 -290 25 -277 25 -223 c 0
 25 -165 65 -102 144 -102 c 0
 160 -102 184 -104 220 -150 c 1
 228 -134 228 -127 237 -91 c 1
 262 -91 294 -98 292 -110 c 1
 292 -128 250 -197 246 -203 c 1
 262 -224 l 1
 326 -193 l 1
 390 -231 l 1
 404 -177 447 -167 447 -117 c 0
EndSplineSet
Substitution2: "Single Substitution lookup 27 subtable" uni0E10.alt1
Substitution2: "Single Substitution lookup 27 subtable" uni0E10.alt1
EndChar

StartChar: uni0E11
Encoding: 3601 3601 230
Width: 715
VWidth: 1473
Flags: W
HStem: 0 21G<154.5 249.4 547 639.24> 393 49<198.191 271.213> 504 90<591.216 679.43> 542 52<209.37 285.263>
VStem: 145 50<454.457 527.785> 374 60<458.164 551.253 516.708 523> 646 95<473.585 534.841>
LayerCount: 2
Fore
SplineSet
233 442 m 0xde
 250 442 269 458 286 471 c 1
 296 454 l 1
 281 423 l 1
 260 403 239 393 218 393 c 0
 160 393 145 442 145 471 c 0
 145 539 204 594 258 594 c 0
 299 594 319 561 327 542 c 1xde
 399 600 l 1
 419 582 434 554 434 524 c 0
 434 410 328 408 298 256 c 2
 277 175 l 1
 324 257 524 594 651 594 c 0
 724 592 741 566 741 523 c 0
 741 508 739 489 734 467 c 2
 635 0 l 1
 547 0 l 1
 642 454 l 2
 645 465 646 474 646 481 c 0
 646 499 632 504 619 504 c 0xee
 559 504 464 373 439 338 c 1
 439 337 363 229 310 140 c 2
 256 50 l 1
 245 0 l 1
 165 0 l 2
 144 0 161 14 181 100 c 0
 228 297 210 300 298 398 c 2
 346 450 l 2
 362 467 374 488 374 510 c 0
 374 522 371 520 371 523 c 1
 309 479 l 1
 281 530 275 542 253 542 c 0
 219 542 195 513 195 482 c 0
 195 466 202 442 233 442 c 0xde
EndSplineSet
EndChar

StartChar: uni0E12
Encoding: 3602 3602 231
Width: 985
VWidth: 1473
Flags: W
HStem: -3 53<466.249 517.449> 376 51<352.749 435.944> 578 20<319.5 378.323 523.692 602 928.612 1021>
VStem: 137 74<194.037 354.008> 282 53<284.107 356.963> 406 56<52.122 140.792> 440 53<303.471 371.6> 587 88<407.808 500.946>
LayerCount: 2
Fore
SplineSet
401 376 m 0xfb
 364 376 335 343 335 313 c 0
 335 305 337 297 343 290 c 2
 364 262 l 1
 343 247 l 1
 299 253 l 1
 296 257 282 274 282 305 c 0
 282 362 341 427 410 427 c 0
 458 427 493 395 493 348 c 0xfb
 493 328 483 256 404 206 c 2
 333 162 l 2
 265 120 212 73 197 0 c 1
 125 0 l 2
 120 0 115 1 115 7 c 0
 115 29 154 86 180 115 c 0
 213 151 137 134 137 266 c 0
 137 314 155 433 216 510 c 0
 246 549 291 579 348 598 c 1
 442 536 l 1
 560 601 l 1
 644 586 675 543 675 454 c 0
 675 423 671 388 663 348 c 2
 645 267 l 1
 806 256 829 157 837 121 c 1
 868 292 866 273 872 311 c 2
 933 589 l 1
 1021 589 l 1
 944 228 l 2
 938 195 931 164 926 136 c 2
 912 63 l 2
 908 42 906 28 906 21 c 0
 906 4 903 0 893 0 c 2
 806 0 l 1
 801 163 719 197 633 205 c 1
 623 146 l 2
 593 -3 501 -3 480 -3 c 0
 421 -3 406 36 406 74 c 0xfd
 406 162 465 246 561 264 c 1
 586 436 587 424 587 456 c 0
 587 486 581 516 542 532 c 1
 427 470 l 1
 339 530 l 1
 285 514 251 485 222 357 c 0
 215 322 211 294 211 273 c 0
 211 202 235 198 249 166 c 1
 259 179 288 198 316 215 c 2
 387 258 l 2
 407 271 440 296 440 336 c 0
 440 360 424 376 401 376 c 0xfb
462 92 m 0xfd
 462 67 475 50 492 50 c 0
 531 50 528 96 541 141 c 0
 547 165 540 154 550 202 c 1
 485 184 473 158 466 119 c 0
 463 109 462 100 462 92 c 0xfd
EndSplineSet
EndChar

StartChar: uni0E13
Encoding: 3603 3603 232
Width: 970
VWidth: 1473
Flags: W
HStem: -9 52<210.544 291.825 766.492 854.227> 202 62<685.359 810.55> 385 42<288.649 343.84> 532 66<317.911 530.75>
VStem: 118 89<56.1342 115.3> 308 54<61.106 138.999> 551 87<354.835 511.262> 710 53<53.5747 146.511> 875 85<70.5798 168.714>
LayerCount: 2
Fore
SplineSet
804 50 m 0
 861 50 875 104 875 124 c 0
 875 151 859 171 826 184 c 1
 809 175 763 146 763 89 c 0
 763 63 777 50 804 50 c 0
289 427 m 0
 311 427 320 446 345 446 c 0
 356 446 382 385 367 385 c 0
 292 385 260 355 240 262 c 2
 211 118 l 2
 208 107 207 97 207 88 c 0
 207 68 214 43 242 43 c 0
 284 43 308 81 308 112 c 0
 308 128 300 152 270 152 c 2
 228 152 l 1
 234 175 l 1
 281 203 l 1
 282 203 l 2
 330 203 362 168 362 121 c 0
 362 54 299 -9 230 -9 c 0
 169 -9 118 23 118 85 c 0
 118 95 120 106 122 118 c 2
 152 262 l 2
 166 329 183 358 227 395 c 1
 204 409 162 447 165 470 c 0
 173 506 296 598 438 598 c 0
 543 598 638 567 638 443 c 0
 638 421 635 395 629 367 c 2
 607 261 l 1
 583 164 l 1
 637 227 705 264 787 264 c 0
 818 264 832 258 850 250 c 1
 854 257 858 270 862 287 c 2
 927 589 l 1
 1015 589 l 1
 947 273 l 2
 942 253 931 235 912 220 c 1
 940 201 960 170 960 137 c 0
 960 53 887 -3 807 -3 c 0
 759 -3 710 24 710 77 c 0
 710 139 752 174 787 199 c 1
 779 201 768 202 754 202 c 0
 663 202 570 102 551 0 c 1
 471 0 l 2
 450 0 468 4 519 262 c 0
 538 358 551 402 551 451 c 0
 551 519 516 532 423 532 c 0
 329 532 259 493 253 473 c 0
 251 461 276 427 289 427 c 0
EndSplineSet
EndChar

StartChar: uni0E14
Encoding: 3604 3604 233
Width: 655
VWidth: 1473
Flags: W
HStem: 0 21G<122.5 204.5 486 579.195> 376 56<361.117 443.591> 532 66<336.05 550.386>
VStem: 137 74<193.128 389.963> 290 52<295.421 356.922> 447 61<305.638 372.192> 576 83<403.602 507.753>
LayerCount: 2
Fore
SplineSet
125 0 m 2
 120 0 115 1 115 7 c 0
 115 29 154 86 180 115 c 0
 186 121 188 126 188 130 c 0
 188 150 137 158 137 266 c 0
 137 448 262 598 453 598 c 0
 619 598 659 534 659 438 c 0
 659 411 655 381 648 348 c 2
 575 0 l 1
 486 0 l 1
 557 333 l 2
 567 380 576 428 576 452 c 0
 576 516 534 532 436 532 c 0
 384 532 339 519 300 493 c 0
 235 449 211 343 211 273 c 0
 211 202 235 198 249 166 c 1
 254 172 263 180 277 188 c 2
 320 216 l 2
 380 253 447 274 447 337 c 0
 447 361 431 376 408 376 c 0
 368 376 342 339 342 314 c 0
 342 306 345 298 351 290 c 2
 371 262 l 1
 351 247 l 1
 306 253 l 1
 292 275 290 295 290 305 c 0
 290 366 353 432 418 432 c 0
 493 429 508 379 508 351 c 0
 508 333 500 262 411 206 c 2
 340 162 l 2
 261 114 212 74 197 0 c 1
 125 0 l 2
EndSplineSet
EndChar

StartChar: uni0E15
Encoding: 3605 3605 234
Width: 670
VWidth: 1473
Flags: W
HStem: 0 21G<122.5 209.5 501 593.253> 376 54<361.117 443.304> 581 20G<319.5 379.29 524.615 602>
VStem: 137 83<190.684 356.984> 290 52<295.421 356.729> 447 61<284.983 372.556> 593 82<415.089 516.251>
LayerCount: 2
Fore
SplineSet
560 601 m 1
 644 586 675 543 675 454 c 0
 675 423 671 388 663 348 c 2
 589 0 l 1
 501 0 l 1
 577 365 l 2
 588 413 593 443 593 463 c 0
 593 504 575 521 542 532 c 1
 430 470 l 1
 339 530 l 1
 278 507 249 448 230 357 c 0
 223 324 220 297 220 275 c 0
 220 211 240 188 258 174 c 1
 274 189 304 207 327 220 c 2
 367 242 l 2
 397 259 447 286 447 337 c 0
 447 361 431 376 408 376 c 0
 368 376 342 339 342 314 c 0
 342 306 345 298 351 290 c 2
 371 262 l 1
 351 247 l 1
 306 253 l 1
 292 275 290 295 290 305 c 0
 290 366 353 430 418 430 c 0
 491 429 508 378 508 350 c 0
 508 321 490 257 404 202 c 258
 334 158 l 2
 238 99 214 50 205 0 c 1
 125 0 l 2
 120 0 115 1 115 7 c 0
 115 29 154 86 180 115 c 0
 186 121 188 126 188 130 c 0
 188 150 137 158 137 266 c 0
 137 314 155 433 216 510 c 0
 246 549 291 579 348 598 c 1
 445 536 l 1
 560 601 l 1
EndSplineSet
EndChar

StartChar: uni0E16
Encoding: 3606 3606 235
Width: 662
VWidth: 1473
Flags: W
HStem: -9 52<210.89 289.762> 385 42<286.023 335.976> 532 66<335.208 555.377>
VStem: 121 85<56.1894 121.576> 308 54<61.028 137.538> 494 88<17.8448 374.787> 580 87<398.258 507.665>
LayerCount: 2
Fore
SplineSet
580 445 m 0xfa
 580 519 538 532 445 532 c 0
 352 532 259 493 253 473 c 1
 252 462 270 427 281 427 c 0
 303 427 315 446 337 446 c 0
 351 446 372 385 359 385 c 0
 304 385 264 373 240 262 c 2
 209 113 l 2
 207 104 206 95 206 88 c 0
 206 68 213 43 243 43 c 0
 287 43 308 83 308 111 c 0
 308 127 300 150 270 150 c 2
 228 150 l 1
 234 174 l 1
 281 202 l 1
 345 202 362 151 362 121 c 0
 362 55 301 -9 231 -9 c 0
 172 -9 121 28 121 97 c 0
 121 108 122 120 125 133 c 2
 152 262 l 2
 166 329 183 358 227 395 c 1
 204 409 162 447 165 470 c 0
 174 507 318 598 460 598 c 0
 610 598 667 534 667 438 c 0xfa
 667 417 664 393 659 367 c 2
 582 0 l 1
 494 0 l 1xfc
 570 367 l 2
 577 398 580 424 580 445 c 0xfa
EndSplineSet
EndChar

StartChar: uni0E17
Encoding: 3607 3607 236
Width: 733
VWidth: 1473
Flags: W
HStem: 0 21G<177 267.455 564 657.17> 527 67<567.686 657> 548 52<226.328 307.851>
VStem: 153 53<441.101 527.969> 312 75<455.074 545.711> 660 91<453.214 455 455 467.546 467.546 480.859 474.203 511.286>
LayerCount: 2
Fore
SplineSet
206 475 m 0xbc
 206 446 224 439 240 439 c 2
 273 439 l 1
 267 415 l 1
 227 389 l 1
 167 389 153 434 153 465 c 0
 153 544 230 600 293 600 c 0xbc
 368 600 387 553 387 518 c 0
 387 461 361 427 333 323 c 2
 301 208 l 1
 446 538 563 594 629 594 c 0
 731 594 755 538 755 501 c 0
 755 492 754 481 751 470 c 2
 653 0 l 1
 564 0 l 1
 660 455 l 2
 662 464 663 473 663 480 c 0
 663 501 655 527 622 527 c 0xdc
 507 527 311 178 268 22 c 2
 262 0 l 1
 183 0 l 2
 171 0 171 7 175 21 c 1
 185 42 204 124 207 136 c 0
 256 341 244 337 282 416 c 2
 298 448 l 2
 307 465 312 487 312 508 c 0
 312 535 299 548 275 548 c 0
 233 548 206 511 206 475 c 0xbc
EndSplineSet
EndChar

StartChar: uni0E18
Encoding: 3608 3608 237
Width: 621
VWidth: 1473
Flags: W
HStem: -9 66<248.782 428.392> 502 74<379.134 628.378> 520 69<258.01 420.099>
VStem: 149 81<101.087 187 194 201.538 409.255 497.766> 507 90<235.083 261.046 261.046 267.523 264.285 310.101>
LayerCount: 2
Fore
SplineSet
495 576 m 0xd8
 555 576 610 590 645 603 c 1
 647 581 648 554 648 549 c 0
 648 522 630 519 629 519 c 0
 601 513 544 502 479 502 c 0xd8
 402 502 386 520 324 520 c 0
 254 520 236 478 236 440 c 0
 236 423 250 420 290 420 c 0
 555 420 597 338 597 283 c 0
 597 273 596 263 594 252 c 2
 582 194 l 2
 570 137 558 87 519 52 c 0
 498 34 444 -9 320 -9 c 0
 248 -9 135 7 135 100 c 0
 135 123 140 158 149 194 c 2
 172 306 l 1
 256 302 l 1
 251 277 247 257 243 241 c 2
 230 187 l 2
 223 158 214 122 231 97 c 0
 252 67 281 57 334 57 c 256
 391 57 418 67 455 97 c 0
 475 117 478 134 488 169 c 2
 505 252 l 2
 507 259 507 265 507 270 c 0
 507 377 211 331 174 370 c 0
 161 383 156 397 156 415 c 0
 156 501 215 589 321 589 c 0xb8
 349 589 437 576 495 576 c 0xd8
EndSplineSet
EndChar

StartChar: uni0E19
Encoding: 3609 3609 238
Width: 701
VWidth: 1473
Flags: W
HStem: -3 53<496.855 584.799> 200 64<414.814 515.855> 548 52<227.048 309.071>
VStem: 153 53<441.101 527.802> 312 82<480.878 545.805> 440 53<53.1818 146.585> 605 85<87.7774 168.688>
LayerCount: 2
Fore
SplineSet
206 475 m 0
 206 446 224 439 240 439 c 2
 273 439 l 1
 267 415 l 1
 227 389 l 1
 167 389 153 434 153 465 c 0
 153 550 238 600 296 600 c 0
 352 600 394 571 394 515 c 0
 394 492 388 469 380 452 c 2
 365 418 l 2
 353 390 342 362 333 323 c 2
 296 149 l 1
 374 242 459 264 500 264 c 0
 524 264 550 261 580 250 c 1
 584 257 588 270 592 287 c 2
 657 589 l 1
 745 589 l 1
 678 273 l 2
 673 253 661 235 642 220 c 1
 664 205 690 176 690 135 c 0
 690 52 617 -3 538 -3 c 0
 489 -3 440 26 440 78 c 0
 440 138 483 176 517 196 c 1
 510 199 500 200 485 200 c 0
 382 200 284 91 267 0 c 1
 187 0 l 2
 166 0 182 11 209 136 c 2
 249 327 l 2
 253 345 257 365 282 416 c 2
 298 448 l 2
 307 465 312 487 312 508 c 0
 312 535 299 548 275 548 c 0
 233 548 206 511 206 475 c 0
535 50 m 0
 592 50 605 105 605 125 c 0
 605 161 576 176 557 184 c 1
 527 167 493 137 493 90 c 0
 493 63 507 50 535 50 c 0
EndSplineSet
EndChar

StartChar: uni0E1A
Encoding: 3610 3610 239
Width: 729
VWidth: 1473
Flags: W
HStem: -9 66<323.776 534.062> 548 52<226.344 307.851>
VStem: 153 54<450.716 528.626> 208 86<84.6702 149.333> 312 75<455.137 545.711>
LayerCount: 2
Fore
SplineSet
207 477 m 0
 207 462 214 439 243 439 c 2
 277 439 l 1
 271 415 l 1
 231 387 l 1
 168 387 153 439 153 466 c 0
 153 543 229 600 293 600 c 0
 368 600 387 553 387 518 c 0
 387 478 372 446 362 418 c 2
 348 376 l 2
 331 328 333 314 318 252 c 2
 302 187 l 2
 297 161 294 139 294 128 c 0
 294 68 370 57 424 57 c 0
 606 57 594 153 620 290 c 2
 685 589 l 1
 773 589 l 1
 689 194 l 2
 672 109 651 -9 410 -9 c 0
 342 -9 208 2 208 99 c 0
 208 118 213 156 221 194 c 2
 249 327 l 2
 253 345 257 365 282 416 c 2
 298 448 l 2
 307 465 312 487 312 508 c 0
 312 535 299 548 275 548 c 0
 233 548 207 511 207 477 c 0
EndSplineSet
EndChar

StartChar: uni0E1B
Encoding: 3611 3611 240
Width: 729
VWidth: 1473
Flags: W
HStem: -9 66<323.776 534.305> 548 52<226.344 307.851> 781 20G<724.734 818>
VStem: 153 54<450.716 528.626> 208 86<84.6702 149.333> 312 75<455.137 545.711>
LayerCount: 2
Fore
SplineSet
207 477 m 0
 207 462 214 439 243 439 c 2
 277 439 l 1
 271 415 l 1
 231 387 l 1
 168 387 153 439 153 466 c 0
 153 543 229 600 293 600 c 0
 368 600 387 553 387 518 c 0
 387 478 372 446 362 418 c 2
 348 376 l 2
 331 328 333 314 318 252 c 2
 302 187 l 2
 297 161 294 139 294 128 c 0
 294 68 370 57 424 57 c 0
 606 57 594 153 620 290 c 2
 729 801 l 1
 818 801 l 1
 689 194 l 2
 673 110 652 -9 410 -9 c 0
 342 -9 208 2 208 99 c 0
 208 118 213 156 221 194 c 2
 249 327 l 2
 253 345 257 365 282 416 c 2
 298 448 l 2
 307 465 312 487 312 508 c 0
 312 535 299 548 275 548 c 0
 233 548 207 511 207 477 c 0
EndSplineSet
EndChar

StartChar: uni0E1C
Encoding: 3612 3612 241
Width: 698
VWidth: 1473
Flags: W
HStem: 0 21G<83 172 522 610.5> 387 52<305 357.46> 548 52<291.844 371.458>
VStem: 377 54<456.383 533.218> 526 93<15.3289 108.954>
LayerCount: 2
Fore
SplineSet
337 600 m 0
 392 600 431 562 431 515 c 0
 431 457 376 387 305 387 c 1
 270 415 l 1
 275 439 l 1
 317 439 l 2
 356 439 377 481 377 506 c 0
 377 523 368 548 334 548 c 0
 288 548 262 490 258 442 c 0
 253 398 249 353 214 224 c 2
 202 176 l 2
 198 160 195 147 193 137 c 1
 217 166 244 196 336 264 c 2
 415 317 l 1
 463 282 532 211 557 130 c 1
 559 137 561 148 563 161 c 2
 570 204 l 2
 575 240 577 265 583 290 c 2
 648 589 l 1
 737 589 l 1
 653 194 l 2
 641 145 625 66 619 21 c 0
 619 6 616 0 605 0 c 2
 522 0 l 1
 524 15 l 1
 526 22 526 30 526 38 c 0
 526 121 405 241 401 245 c 1
 322 192 189 93 172 15 c 2
 169 0 l 1
 85 0 l 2
 81 0 76 2 76 8 c 0
 76 30 90 33 108 116 c 2
 149 317 l 2
 164 386 160 387 168 434 c 2
 175 473 l 2
 190 549 264 600 337 600 c 0
EndSplineSet
EndChar

StartChar: uni0E1D
Encoding: 3613 3613 242
Width: 698
VWidth: 1473
Flags: W
HStem: 0 21G<83 172 522 610.5> 387 52<305 357.46> 548 52<291.844 371.458> 781 20G<687.734 781>
VStem: 377 54<456.383 533.218> 526 93<15.3289 108.954>
LayerCount: 2
Fore
SplineSet
337 600 m 0
 392 600 431 562 431 515 c 0
 431 457 376 387 305 387 c 1
 270 415 l 1
 275 439 l 1
 317 439 l 2
 356 439 377 481 377 506 c 0
 377 523 368 548 334 548 c 0
 288 548 262 490 258 442 c 0
 253 398 249 353 214 224 c 2
 202 176 l 2
 198 160 195 147 193 137 c 1
 217 166 244 196 336 264 c 2
 415 317 l 1
 463 282 532 211 557 130 c 1
 559 137 561 148 563 161 c 2
 570 204 l 2
 575 240 577 265 583 290 c 2
 692 801 l 1
 781 801 l 1
 653 194 l 2
 641 145 625 66 619 21 c 0
 619 6 616 0 605 0 c 2
 522 0 l 1
 524 15 l 1
 526 22 526 30 526 38 c 0
 526 121 405 241 401 245 c 1
 322 192 189 93 172 15 c 2
 169 0 l 1
 85 0 l 2
 81 0 76 2 76 8 c 0
 76 30 90 33 108 116 c 2
 149 317 l 2
 164 386 160 387 168 434 c 2
 175 473 l 2
 190 549 264 600 337 600 c 0
EndSplineSet
EndChar

StartChar: uni0E1E
Encoding: 3614 3614 243
Width: 794
VWidth: 1473
Flags: W
HStem: 0 21G<169 268 617 706.5> 548 52<227.282 308.674>
VStem: 153 54<450.716 528.37> 312 75<430.16 545.732> 623 92<15.3757 72.0156>
LayerCount: 2
Fore
SplineSet
298 600 m 0
 353 600 387 572 387 518 c 0
 387 457 354 421 330 308 c 0
 317 240 307 228 298 174 c 1
 344 267 402 351 468 439 c 2
 561 552 l 1
 596 479 657 321 661 166 c 1
 670 215 667 228 679 290 c 2
 744 589 l 1
 832 589 l 1
 748 194 l 2
 740 160 718 56 715 21 c 0
 715 6 712 0 701 0 c 2
 617 0 l 1
 620 15 l 2
 622 23 623 32 623 43 c 0
 623 72 612 146 602 190 c 2
 585 261 l 2
 571 315 555 373 536 436 c 1
 410 261 l 1
 362 190 l 2
 316 125 279 52 268 15 c 2
 265 0 l 1
 181 0 l 2
 157 0 183 10 221 194 c 2
 246 312 l 2
 268 416 312 439 312 508 c 0
 312 535 299 548 275 548 c 0
 233 548 207 511 207 477 c 0
 207 462 214 439 243 439 c 2
 277 439 l 1
 271 415 l 1
 231 387 l 1
 168 387 153 439 153 466 c 0
 153 529 202 600 298 600 c 0
EndSplineSet
EndChar

StartChar: uni0E1F
Encoding: 3615 3615 244
Width: 794
VWidth: 1473
Flags: W
HStem: 0 21G<169 268 617 706.5> 548 52<227.282 308.674> 781 20G<783.734 877>
VStem: 153 54<450.716 528.37> 312 75<430.16 545.732> 623 92<15.3757 72.0156>
LayerCount: 2
Fore
SplineSet
298 600 m 0
 353 600 387 572 387 518 c 0
 387 457 354 421 330 308 c 0
 317 240 307 228 298 174 c 1
 344 267 402 351 468 439 c 2
 561 552 l 1
 596 479 657 321 661 166 c 1
 670 215 667 228 679 290 c 2
 788 801 l 1
 877 801 l 1
 748 194 l 2
 740 160 718 56 715 21 c 0
 715 6 712 0 701 0 c 2
 617 0 l 1
 620 15 l 2
 622 23 623 32 623 43 c 0
 623 72 612 146 602 190 c 2
 585 261 l 2
 571 315 555 373 536 436 c 1
 410 261 l 1
 362 190 l 2
 316 125 279 52 268 15 c 2
 265 0 l 1
 181 0 l 2
 157 0 183 10 221 194 c 2
 246 312 l 2
 268 416 312 439 312 508 c 0
 312 535 299 548 275 548 c 0
 233 548 207 511 207 477 c 0
 207 462 214 439 243 439 c 2
 277 439 l 1
 271 415 l 1
 231 387 l 1
 168 387 153 439 153 466 c 0
 153 529 202 600 298 600 c 0
EndSplineSet
EndChar

StartChar: uni0E20
Encoding: 3616 3616 245
Width: 713
VWidth: 1473
Flags: W
HStem: -9 52<119.806 200.924> 152 48<131.609 180> 379 61<353.024 423.102> 532 66<382.737 600.527>
VStem: 62 54<56.2985 120.604> 629 88<396.136 505.006>
LayerCount: 2
Fore
SplineSet
62 72 m 0
 62 130 109 200 180 200 c 1
 209 175 l 1
 203 152 l 1
 169 152 l 2
 123 152 116 90 116 82 c 0
 116 66 124 43 158 43 c 0
 200 43 224 88 228 150 c 0
 237 278 233 345 292 395 c 1
 276 405 225 447 230 470 c 0
 238 506 361 598 502 598 c 0
 621 598 717 559 717 436 c 0
 717 415 714 392 709 367 c 2
 632 0 l 1
 544 0 l 1
 620 367 l 2
 626 396 629 421 629 441 c 0
 629 517 585 532 488 532 c 0
 394 532 324 493 318 473 c 0
 315 458 345 421 352 421 c 0
 374 421 386 440 408 440 c 0
 415 440 429 412 429 388 c 0
 429 382 427 379 423 379 c 0
 347 379 341 360 324 283 c 2
 317 238 l 2
 300 127 299 64 244 22 c 0
 218 1 188 -9 153 -9 c 256
 80 -9 62 40 62 72 c 0
EndSplineSet
EndChar

StartChar: uni0E21
Encoding: 3617 3617 246
Width: 701
VWidth: 1473
Flags: W
HStem: -3 53<164.153 215.449> 202 57<208.016 247 343 416.942> 548 52<248.782 331.515>
VStem: 104 56<52.1758 140.611> 175 53<441.101 526.233> 334 75<456.212 545.851>
LayerCount: 2
Fore
SplineSet
228 475 m 0
 228 446 246 439 262 439 c 2
 295 439 l 1
 289 415 l 1
 249 389 l 1
 189 389 175 434 175 465 c 0
 175 544 252 600 315 600 c 0
 390 600 409 553 409 518 c 0
 409 451 374 427 354 314 c 2
 343 264 l 1
 428 264 510 236 552 119 c 1
 560 163 l 2
 562 180 566 198 570 216 c 2
 580 268 l 2
 583 284 586 299 588 311 c 2
 648 589 l 1
 737 589 l 1
 660 228 l 1
 642 136 l 2
 639 124 622 44 622 21 c 0
 622 6 619 0 608 0 c 2
 522 0 l 1
 518 125 456 194 331 205 c 1
 321 146 l 2
 291 -3 199 -3 178 -3 c 0
 143 -3 104 12 104 74 c 0
 104 179 179 244 258 259 c 1
 263 292 l 2
 270 341 286 378 302 411 c 2
 320 447 l 2
 331 469 334 496 334 508 c 0
 334 535 322 548 298 548 c 0
 257 548 228 513 228 475 c 0
160 92 m 0
 160 67 173 50 190 50 c 0
 229 50 226 96 239 141 c 0
 245 165 239 153 247 202 c 1
 183 183 171 157 164 119 c 0
 161 109 160 100 160 92 c 0
EndSplineSet
EndChar

StartChar: uni0E22
Encoding: 3618 3618 247
Width: 661
VWidth: 1473
Flags: W
HStem: -9 66<259.65 429.561> 253 71<353.031 391.995> 404 51<309 361.446> 545 55<287.475 372.308>
VStem: 119 88<87.5811 146.45> 165 85<358.978 476.649> 374 57<465.088 543.568>
LayerCount: 2
Fore
SplineSet
250 418 m 0xf6
 250 343 313 324 417 324 c 0
 432 324 380 253 370 253 c 0
 357 253 299 275 274 275 c 0
 256 275 229 246 220 199 c 2
 214 171 l 2
 210 151 207 137 207 129 c 0
 207 100 236 57 348 57 c 256
 408 57 460 71 494 97 c 0
 531 131 530 196 551 290 c 2
 616 589 l 1
 704 589 l 1
 639 290 l 2
 615 155 601 92 557 52 c 0
 496 -4 377 -9 333 -9 c 0
 279 -9 171 -1 136 52 c 0
 125 67 119 84 119 101 c 0xfa
 119 118 122 142 128 172 c 2
 134 200 l 2
 142 235 154 260 170 276 c 0
 186 293 200 304 212 311 c 1
 196 322 165 352 165 414 c 0
 165 528 255 600 340 600 c 0
 392 600 431 569 431 520 c 0
 431 478 394 404 310 404 c 2
 309 404 l 1
 271 429 l 1
 277 455 l 1
 320 455 l 2
 356 455 374 483 374 511 c 0
 374 533 363 545 340 545 c 0
 262 545 250 446 250 418 c 0xf6
EndSplineSet
EndChar

StartChar: uni0E23
Encoding: 3619 3619 248
Width: 545
VWidth: 1473
Flags: W
HStem: -9 59<290.48 363.007> 143 44<302.647 355> 498 75<301.082 575.745> 513 90<508.417 583.854> 517 72<244 449.272>
VStem: 135 88<397.534 473.208> 231 58<52.6694 115.412> 428 92<240.965 299.012>
LayerCount: 2
Fore
SplineSet
326 -9 m 0xcf
 277 -9 231 7 231 69 c 0
 231 110 254 187 355 187 c 1
 392 166 l 1
 386 143 l 1
 346 143 l 2
 300 143 289 100 289 82 c 0
 289 61 303 50 331 50 c 0
 346 50 384 53 404 137 c 2
 426 236 l 2
 428 243 428 250 428 256 c 0
 428 359 196 316 153 355 c 0
 139 369 135 386 135 407 c 0
 135 501 202 589 299 589 c 0xcf
 349 589 376 573 454 573 c 0xe7
 509 573 572 592 598 603 c 1
 602 590 604 581 604 567 c 0
 604 522 598 519 582 513 c 0xd7
 558 504 542 498 451 498 c 0xe7
 390 498 359 517 298 517 c 256
 254 517 236 497 225 452 c 0
 224 446 223 440 223 435 c 0
 223 391 275 417 406 392 c 0
 464 381 520 347 520 280 c 0
 520 269 519 257 516 243 c 2
 492 133 l 2
 476 58 412 -9 326 -9 c 0xcf
EndSplineSet
EndChar

StartChar: uni0E24
Encoding: 3620 3620 249
Width: 662
VWidth: 1473
Flags: W
HStem: -9 52<210.89 289.762> 385 42<286.023 335.976> 532 66<335.208 555.377>
VStem: 121 85<56.1894 121.576> 308 54<61.028 137.538> 446 89<-202.635 379.933> 580 87<398.258 507.665>
LayerCount: 2
Fore
SplineSet
580 445 m 0
 580 519 538 532 445 532 c 0
 352 532 259 493 253 473 c 1
 252 462 270 427 281 427 c 0
 303 427 315 446 337 446 c 0
 351 446 372 385 359 385 c 0
 304 385 264 373 240 262 c 2
 209 113 l 2
 207 104 206 95 206 88 c 0
 206 68 213 43 243 43 c 0
 287 43 308 83 308 111 c 0
 308 127 300 150 270 150 c 2
 228 150 l 1
 234 174 l 1
 281 202 l 1
 345 202 362 151 362 121 c 0
 362 55 301 -9 231 -9 c 0
 172 -9 121 28 121 97 c 0
 121 108 122 120 125 133 c 2
 152 262 l 2
 166 329 183 358 227 395 c 1
 204 409 162 447 165 470 c 0
 174 507 318 598 460 598 c 0
 610 598 667 534 667 438 c 0
 667 417 664 393 659 367 c 2
 535 -221 l 1
 446 -221 l 1
 570 367 l 2
 577 398 580 424 580 445 c 0
EndSplineSet
EndChar

StartChar: uni0E25
Encoding: 3621 3621 250
Width: 671
VWidth: 1473
Flags: W
HStem: -9 58<220.259 305.066> 302 66<291.042 436.505> 526 71<367.485 549.14>
VStem: 136 78<54.1239 167.716> 315 55<59.7769 126.246> 578 92<347.767 497.344>
LayerCount: 2
Fore
SplineSet
592 21 m 0
 592 4 589 0 579 0 c 2
 492 0 l 1
 501 41 506 78 506 110 c 0
 506 192 477 302 362 302 c 0
 359 302 l 0
 288 302 242 257 224 169 c 2
 216 128 l 2
 214 119 214 110 214 103 c 0
 214 63 232 49 259 49 c 0
 292 49 315 70 315 102 c 0
 315 117 308 136 280 136 c 2
 236 136 l 1
 242 162 l 1
 290 187 l 1
 291 187 l 2
 336 187 370 161 370 116 c 0
 370 67 335.945 -5.79501 243 -9 c 0
 156 -12 136 38 136 133 c 0
 136 168 174 368 373 368 c 0
 431 368 509 347 545 252 c 1
 567 382 578 400 578 437 c 0
 578 491 547 526 468 526 c 0
 370 526 290 466 242 418 c 0
 228 407 189 437 175 479 c 1
 217 523 372 597 477 597 c 0
 638 597 670 514 670 458 c 0
 670 395 633 310 614 233 c 0
 612 222 610 207 608 186 c 2
 600 122 l 2
 597 89 592 38 592 21 c 0
EndSplineSet
EndChar

StartChar: uni0E26
Encoding: 3622 3622 251
Width: 713
VWidth: 1473
Flags: W
HStem: -9 52<119.806 200.924> 152 48<131.188 180> 379 61<353.024 423.102> 532 66<382.737 600.527>
VStem: 62 54<56.2985 120.604> 496 89<-202.635 379.933> 629 88<396.136 505.006>
LayerCount: 2
Fore
SplineSet
62 72 m 0
 62 130 109 200 179 200 c 2
 180 200 l 1
 209 175 l 1
 203 152 l 1
 169 152 l 2
 123 152 116 90 116 82 c 0
 116 66 124 43 158 43 c 0
 200 43 224 88 228 150 c 0
 237 278 233 345 292 395 c 1
 276 405 225 447 230 470 c 0
 238 506 361 598 502 598 c 0
 621 598 717 559 717 436 c 0
 717 415 714 392 709 367 c 2
 585 -221 l 1
 496 -221 l 1
 620 367 l 2
 626 396 629 421 629 441 c 0
 629 517 585 532 488 532 c 0
 394 532 324 493 318 473 c 0
 315 458 345 421 352 421 c 0
 374 421 386 440 408 440 c 0
 415 440 429 412 429 388 c 0
 429 382 427 379 423 379 c 0
 347 379 341 360 324 283 c 2
 317 238 l 2
 300 127 299 64 244 22 c 0
 218 1 188 -9 153 -9 c 256
 80 -9 62 40 62 72 c 0
EndSplineSet
EndChar

StartChar: uni0E27
Encoding: 3623 3623 252
Width: 577
VWidth: 1473
Flags: W
HStem: -10 51<309.089 378.099> 150 52<323.11 376> 530 67<309.867 459.379>
VStem: 250 54<55.1969 132.231> 482 106<415.658 506.412>
LayerCount: 2
Fore
SplineSet
131 479 m 1
 173 523 326 597 410 597 c 0
 500 597 588 559 588 459 c 0
 588 436 587 435 568 342 c 2
 526 146 l 2
 518 110 489 -10 343 -10 c 0
 271 -10 250 38 250 74 c 0
 250 132 304 202 376 202 c 1
 410 174 l 1
 404 150 l 1
 364 150 l 2
 326 150 304 109 304 84 c 0
 304 65 312 41 346 41 c 0
 360 41 405 50 417 116 c 2
 476 393 l 2
 480 413 482 430 482 444 c 0
 482 513 435 530 404 530 c 0
 319 530 239 477 192 433 c 0
 180 424 149 447 131 479 c 1
EndSplineSet
EndChar

StartChar: uni0E28
Encoding: 3624 3624 253
Width: 655
VWidth: 1473
Flags: W
HStem: 0 21G<106.5 215.5 486 579.195> 202 51<374.855 438.879> 355 65<366.87 451.922> 532 66<338.862 534.06>
VStem: 142 86<255.492 363.778> 455 64<268.8 352.688> 576 85<411.17 499.573>
LayerCount: 2
Fore
SplineSet
759 607 m 0
 759 593 683 550 641 536 c 1
 654 515 661 489 661 458 c 0
 661 428 657 391 648 348 c 2
 575 0 l 1
 486 0 l 1
 557 333 l 2
 567 380 576 428 576 452 c 0
 576 516 534 532 436 532 c 0
 277 532 249 411 237 357 c 0
 229 322 228 300 228 285 c 0
 228 275 229 265 230 255 c 1
 288 359 353 420 436 420 c 0
 502 420 519 372 519 340 c 0
 519 272 457 202 390 202 c 0
 364 202 344 211 329 230 c 1
 331 275 l 1
 351 293 l 1
 373 267 l 1
 378 258 386 253 399 253 c 0
 439 253 455 298 455 319 c 0
 455 343 443 355 417 355 c 0
 329 355 234 155 197 0 c 1
 110 0 l 2
 103 0 101 3 101 8 c 0
 101 27 118 70 128 90 c 2
 162 161 l 2
 168 171 171 179 171 186 c 0
 171 196 142 234 142 294 c 0
 142 448 264 598 451 598 c 0
 488 598 533 598 577 577 c 1
 613 593 659 623 691 647 c 1
 755 626 759 615 759 607 c 0
EndSplineSet
EndChar

StartChar: uni0E29
Encoding: 3625 3625 254
Width: 749
VWidth: 1473
Flags: W
HStem: -9 66<362.288 514.743> 186 61<461.831 566.053> 337 49<472.886 523.059> 548 52<247.68 329.597>
VStem: 173 55<450.891 527.851> 228 86<82.7341 148.709> 333 74<457.821 544.941> 399 60<251.507 333.705> 516 53<303 314.772 314.772 331.487>
LayerCount: 2
Fore
SplineSet
501 337 m 0xfd80
 487 337 459 337 459 283 c 0xfd80
 459 261 467 247 519 247 c 0
 610 247 646 314 654 348 c 2
 706 589 l 1
 794 589 l 1
 710 194 l 2
 698 137 686 87 647 52 c 0
 584 -5 451 -9 415 -9 c 0
 345 -9 228 7 228 99 c 0
 228 118 233 157 242 194 c 2
 270 327 l 2
 284 404 333 443 333 507 c 0
 333 534 320 548 296 548 c 0
 253 548 228 511 228 477 c 0
 228 462 235 439 264 439 c 2
 298 439 l 1
 292 415 l 1
 252 387 l 1
 189 387 173 437 173 465 c 0
 173 547 253 600 314 600 c 0
 370 600 407 571 407 516 c 0xfe80
 407 506 406 495 404 483 c 2
 394 450 l 2
 391 438 387 427 382 414 c 2
 368 372 l 2
 362 357 357 338 352 317 c 2
 323 187 l 2
 319 168 314 146 314 130 c 0
 314 92 346 73 361 67 c 0
 377 60 400 57 430 57 c 256
 604 57 613 141 620 169 c 2
 636 245 l 1
 605 198 536 186 510 186 c 0
 451 186 399 203 399 269 c 0
 399 348 466 386 511 386 c 0
 538 386 573 375 573 332 c 0
 573 323 571 314 569 303 c 1
 539 271 l 1
 516 271 l 1
 522 303 l 2
 526 326 522 337 501 337 c 0xfd80
EndSplineSet
EndChar

StartChar: uni0E2A
Encoding: 3626 3626 255
Width: 652
VWidth: 1473
Flags: W
HStem: -9 58<221.317 305.168> 302 66<291.042 436.505> 526 71<367.485 535.193>
VStem: 136 78<54.4494 167.716> 315 55<59.4041 125.934> 578 92<348.813 497.585>
LayerCount: 2
Fore
SplineSet
766 607 m 0
 766 594 695 550 648 536 c 1
 663 518 670 493 670 462 c 0
 670 391 635 318 614 233 c 0
 612 222 610 207 608 186 c 2
 600 122 l 2
 597 89 592 38 592 21 c 0
 592 4 589 0 579 0 c 2
 492 0 l 1
 501 41 506 78 506 110 c 0
 506 192 477 302 362 302 c 0
 359 302 l 0
 288 302 242 257 224 169 c 2
 216 128 l 2
 214 119 214 110 214 103 c 0
 214 63 232 49 259 49 c 0
 292 49 315 70 315 102 c 0
 315 117 308 136 280 136 c 2
 236 136 l 1
 242 162 l 1
 290 187 l 1
 340 187 370 159 370 116 c 0
 370 67 336 -9 243 -9 c 0
 150 -9 136 38 136 133 c 0
 136 168 174 368 373 368 c 0
 431 368 509 347 545 252 c 1
 567 382 578 400 578 437 c 0
 578 491 547 526 468 526 c 0
 370 526 290 466 242 418 c 0
 228 407 189 437 175 479 c 1
 217 523 372 597 477 597 c 0
 499 597 524 598 585 575 c 1
 623 590 675 630 698 647 c 1
 766 624 766 614 766 607 c 0
EndSplineSet
EndChar

StartChar: uni0E2B
Encoding: 3627 3627 256
Width: 723
VWidth: 1473
Flags: W
HStem: 0 21G<183 271 554 646.226> 548 52<226.344 307.851 606.575 689.01>
VStem: 153 54<450.716 528.626> 312 75<431.793 545.711> 529 55<418.401 525.284> 694 82<448.343 541.137>
LayerCount: 2
Fore
SplineSet
207 477 m 0
 207 462 214 439 243 439 c 2
 277 439 l 1
 271 415 l 1
 231 387 l 1
 168 387 153 439 153 466 c 0
 153 543 229 600 293 600 c 0
 368 600 387 553 387 518 c 0
 387 455 351 403 333 323 c 2
 295 161 l 1
 335 220 380 268 432 304 c 0
 482 339 530 365 575 382 c 1
 566 393 529 422 529 466 c 0
 529 535 598 598 678 598 c 0
 724 598 776 571 776 514 c 0
 776 434 718 398 689 380 c 1
 702 372 718 356 713 336 c 2
 642 0 l 1
 554 0 l 1
 622 320 l 2
 623 330 617 341 601 336 c 0
 490 292 375 207 310 106 c 0
 290 76 277 46 271 18 c 2
 268 0 l 1
 189 0 l 2
 177 0 177 7 181 21 c 1
 191 42 206 113 211 136 c 2
 250 327 l 2
 269 416 312 442 312 508 c 0
 312 535 299 548 275 548 c 0
 233 548 207 511 207 477 c 0
651 545 m 0
 612 545 584 511 584 478 c 0
 584 436 606 417 617 408 c 1
 674 438 694 465 694 502 c 0
 694 536 674 545 651 545 c 0
EndSplineSet
EndChar

StartChar: uni0E2C
Encoding: 3628 3628 257
Width: 783
VWidth: 1473
Flags: W
HStem: 0 21G<169 268 617 706.5> 388 53<212.008 231 674.039 707.898 703.977 711.819> 548 52<226.344 307.851> 576 52<682.945 773.952>
VStem: 153 54<450.716 528.626> 312 75<455.137 545.711> 615 50<447.573 557.839> 623 92<15.3757 141.492> 748 83<526.141 570.706>
LayerCount: 2
Fore
SplineSet
207 477 m 0xed80
 207 462 214 439 243 439 c 2
 277 439 l 1
 271 415 l 1
 231 387 l 1
 168 387 153 439 153 466 c 0
 153 543 229 600 293 600 c 0xed80
 368 600 387 553 387 518 c 0
 387 478 372 446 362 418 c 2
 348 376 l 2
 339 356 312 234 312 234 c 2
 300 188 l 1
 292 152 l 1
 345 227 411 295 445 327 c 2
 530 405 l 1
 558 368 637 254 656 144 c 1
 677 305 697 341 712 389 c 1
 706 388 701 388 696 388 c 0
 647 388 615 428 615 485 c 0
 615 587 696 628 748 628 c 0xde80
 800 628 831 599 831 555 c 0
 831 543 829 531 825 517 c 2
 803 454 l 1
 827 465 876 505 902 557 c 1
 920 544 922 539 937 528 c 0
 946 522 950 514 950 510 c 0
 950 489 855 423 791 401 c 1
 776 333 778 356 764 288 c 2
 738 169 l 2
 726 118 721 83 715 21 c 0
 715 6 712 0 701 0 c 2
 617 0 l 1
 620 15 l 2
 622 23 623 32 623 42 c 0
 623 136 522 314 514 330 c 1
 471 288 432 247 398 208 c 2
 354 156 l 2
 302 92 277 46 268 15 c 2
 265 0 l 1
 181 0 l 2
 157 0 183 10 221 194 c 2
 249 327 l 2
 253 345 257 365 282 416 c 2
 298 448 l 2
 307 465 312 487 312 508 c 0
 312 535 299 548 275 548 c 0
 233 548 207 511 207 477 c 0xed80
665 497 m 0xde80
 665 451 692 441 709 441 c 0
 714 441 719 442 725 443 c 1
 728 451 748 527 748 551 c 0
 748 566 743 576 723 576 c 256
 688 576 665 539 665 497 c 0xde80
EndSplineSet
Substitution2: "Single Substitution lookup 27 subtable" uni0E2C.alt1
Substitution2: "Single Substitution lookup 27 subtable" uni0E2C.alt1
EndChar

StartChar: uni0E2D
Encoding: 3629 3629 258
Width: 658
VWidth: 1473
Flags: W
HStem: -9 66<231.34 450.966> 181 52<281 335.078> 323 53<260.891 345.73> 530 67<330.143 543.216>
VStem: 128 83<77.7885 200.339> 348 55<245.452 313.724> 572 82<340.752 503.246>
LayerCount: 2
Fore
SplineSet
325 376 m 2
 327 376 l 2
 374 376 403 347 403 304 c 0
 403 250 364 181 281 181 c 1
 243 206 l 1
 249 233 l 1
 292 233 l 2
 330 233 348 265 348 291 c 0
 348 304 341 323 314 323 c 0
 256 323 240 278 225 215 c 0
 220 188 211 143 211 125 c 0
 211 71 255 57 346 57 c 256
 492 57 514 126 550 289 c 0
 566 362 572 407 572 437 c 0
 572 510 537 530 432 530 c 0
 338 530 262 480 214 433 c 0
 207 427 199 430 190 442 c 2
 166 479 l 1
 203 518 325 597 446 597 c 0
 583 597 654 552 654 419 c 0
 654 346 628 165 535 67 c 0
 487 16 419 -9 331 -9 c 0
 170 -9 128 50 128 139 c 0
 128 316 246 376 325 376 c 2
EndSplineSet
EndChar

StartChar: uni0E2E
Encoding: 3630 3630 259
Width: 658
VWidth: 1473
Flags: W
HStem: -9 66<238.856 450.966> 159 52<275 330.971> 301 53<255.866 340.73> 387 64<296.039 464.777> 530 67<282.507 538.694>
VStem: 124 86<83.1627 205.581> 180 89<461.127 513.672> 343 55<222.441 291.461> 568 84<323.141 438.751>
LayerCount: 2
Fore
SplineSet
320 354 m 2xfd80
 322 354 l 2
 369 354 398 325 398 282 c 0
 398 214 349 159 275 159 c 1
 239 184 l 1
 245 211 l 1
 287 211 l 2
 327 211 343 243 343 267 c 0
 343 282 336 301 309 301 c 0
 277 301 235 291 217 193 c 0
 212 171 210 152 210 136 c 0xfd80
 210 73 262 57 346 57 c 0
 492 57 514 126 550 289 c 0
 562 350 568 387 568 411 c 0
 568 421 567 430 566 439 c 1
 492 399 424 387 355 387 c 0
 218 387 180 418 180 464 c 0xfb80
 180 504 202 540 250 566 c 0
 289 587 349 597 432 597 c 0
 536 597 598 558 620 532 c 1
 647 555 674 580 695 610 c 1
 711 602 752 578 747 567 c 1
 747 557 696 513 639 477 c 1
 648 452 652 425 652 393 c 0
 652 350 630 168 535 67 c 0
 487 16 419 -9 331 -9 c 0
 166 -9 124 47 124 130 c 0
 124 252 196 354 320 354 c 2xfd80
269 481 m 0xfb80
 269 457 321 451 385 451 c 0
 428 451 498 460 557 494 c 1
 540 512 507 530 417 530 c 0
 317 530 269 520 269 481 c 0xfb80
EndSplineSet
EndChar

StartChar: uni0E2F
Encoding: 3631 3631 260
Width: 464
VWidth: 1473
Flags: W
HStem: 0 21G<305 400.205> 386 59<190.68 300.048> 547 48<193.597 254.297>
VStem: 128 57<451.892 540.466> 253 48<510 516.523 516.523 522.523 519.523 546.173>
LayerCount: 2
Fore
SplineSet
243 445 m 0
 294 445 409 482 432 589 c 1
 510 589 l 2
 519 589 523 587 523 583 c 0
 523 580 519 577 511 547 c 2
 396 0 l 1
 305 0 l 1
 404 467 l 1
 335 389 266 386 234 386 c 0
 166 386 128 427 128 481 c 0
 128 566 201 595 240 595 c 0
 278 595 304 574 304 535 c 0
 304 527 303 519 301 510 c 1
 268 467 l 1
 245 467 l 1
 253 510 l 2
 254 515 255 519 255 523 c 0
 255 539 245 547 230 547 c 0
 194 547 185 515 185 487 c 0
 185 453 215 445 243 445 c 0
EndSplineSet
EndChar

StartChar: uni0E30
Encoding: 3632 3632 261
Width: 447
VWidth: 1473
Flags: W
HStem: 24 58<124.546 282.264> 175 52<126.438 188.308> 362 59<197.926 356.488> 514 52<200.297 260.305>
VStem: 54 65<89.1725 156.344> 126 65<427.881 494.355> 187 47<138 145.023 145.023 148.997 147.01 169.496> 259 47<477 484.023 484.023 487.997 486.01 513.197>
LayerCount: 2
Fore
SplineSet
256 421 m 0xfd
 347 421 398 455 457 542 c 1
 522 513 l 1
 477 445 388 362 256 362 c 2
 255 362 l 2
 152 362 126 414 126 449 c 0
 126 492 157 566 240 566 c 0
 280 566 310 541 310 504 c 0
 310 496 308 487 306 477 c 1
 275 442 l 1
 252 442 l 1
 259 477 l 2
 260 482 261 487 261 491 c 0
 261 506 252 514 237 514 c 0
 200 514 191 480 191 460 c 0
 191 437 206 421 256 421 c 0xfd
184 82 m 0
 264 82 320 108 385 203 c 1
 451 174 l 1
 387 78 291 24 184 24 c 0
 78 24 54 76 54 110 c 0
 54 153 85 227 168 227 c 0
 208 227 238 202 238 165 c 0
 238 157 236 148 234 138 c 1
 203 103 l 1
 180 103 l 1
 187 138 l 2xfb
 188 143 189 148 189 152 c 0
 189 161 186 175 164 175 c 0
 128 175 119 144 119 123 c 0
 119 98 134 82 184 82 c 0
EndSplineSet
EndChar

StartChar: uni0E31
Encoding: 3633 3633 262
Width: 0
VWidth: 1473
Flags: W
HStem: 673 58<-127.904 59.4389> 826 54<-129.261 -68.1383>
VStem: -200 63<742.964 808.142> -68 50<790.804 825.426>
LayerCount: 2
Fore
SplineSet
-59 731 m 0
 86 731 153 805 183 857 c 1
 261 844 l 1
 200 738 78 673 -56 673 c 0
 -173 673 -200 726 -200 761 c 0
 -200 832 -140 880 -90 880 c 0
 -49 880 -18 855 -18 816 c 0
 -18 809 -19 801 -21 793 c 1
 -53 750 l 1
 -77 750 l 1
 -69 788 l 2
 -68 793 -68 797 -68 801 c 0
 -68 817 -76 826 -91 826 c 0
 -128 826 -137 794 -137 778 c 0
 -137 759 -124 731 -59 731 c 0
EndSplineSet
Substitution2: "Single Substitution lookup 27 subtable" uni0E31.alt1
Substitution2: "Single Substitution lookup 27 subtable" uni0E31.alt1
EndChar

StartChar: uni0E32
Encoding: 3634 3634 263
Width: 536
VWidth: 1473
Flags: W
HStem: 0 21G<357 448.5> 532 66<284.829 421.127>
VStem: 452 93<386.086 501.299>
LayerCount: 2
Fore
SplineSet
457 21 m 0
 457 6 454 0 443 0 c 2
 357 0 l 1
 369 54 377 92 391 164 c 2
 404 225 l 2
 423 316 452 390 452 442 c 0
 452 514 391 532 359 532 c 0
 318 532 264 522 169 435 c 1
 158 421 131 467 124 480 c 1
 167 528 302 598 380 598 c 0
 471 598 545 560 545 463 c 0
 545 447 543 429 539 410 c 2
 516 320 l 2
 495 241 480 161 473 122 c 2
 462 60 l 2
 459 41 457 28 457 21 c 0
EndSplineSet
EndChar

StartChar: uni0E33
Encoding: 3635 3635 264
Width: 514
VWidth: 1473
Flags: W
HStem: 0 21G<334 426.5> 532 66<257.202 399.549> 688 59<13.2345 81.5526> 826 59<19.8046 90.009>
VStem: -49 60<756.69 817.112> 91 62<755.829 824.864> 430 92<382.392 500.952>
LayerCount: 2
Fore
SplineSet
153 810 m 0
 153 747 97 688 31 688 c 0
 -17 688 -49 722 -49 764 c 0
 -49 826 7 885 72 885 c 256
 122 885 153 850 153 810 c 0
11 779 m 0
 11 768 18 747 43 747 c 256
 73 747 91 774 91 796 c 0
 91 812 82 826 60 826 c 256
 38 826 11 807 11 779 c 0
435 21 m 0
 435 6 432 0 421 0 c 2
 334 0 l 1
 357 98 352 82 369 164 c 2
 382 225 l 2
 400 312 430 396 430 442 c 0
 430 514 369 532 337 532 c 0
 280 532 243 511 162 435 c 0
 160 433 158 432 155 432 c 0
 139 432 109 464 102 480 c 1
 148 531 267 598 343 598 c 0
 421 598 522 570 522 457 c 0
 522 443 520 427 517 410 c 2
 494 320 l 2
 473 241 458 161 451 122 c 2
 440 60 l 2
 437 41 435 28 435 21 c 0
EndSplineSet
Substitution2: "Single Substitution lookup 27 subtable" uni0E33.alt1
Substitution2: "Single Substitution lookup 27 subtable" uni0E33.alt1
EndChar

StartChar: uni0E34
Encoding: 3636 3636 265
Width: 0
VWidth: 1473
Flags: W
HStem: 644 62<-167.95 9> 644 216<-171 52 -203.046 102.755> 671 54<-337 -305.046 -305.046 0.755127> 798 62<-283.578 -54.7838>
VStem: -419 491<672.165 688.206> 9 63<706 750.432>
LayerCount: 2
Fore
SplineSet
52 644 m 0x48
 30 644 -145 671 -299 671 c 0x28
 -406 671 -419 658 -419 674 c 0
 -419 680 -388 860 -171 860 c 0
 12 860 72 756 72 687 c 0
 72 651 64 644 52 644 c 0x48
-273 727 m 0
 -160 727 -47 712 9 706 c 1
 11 776 -104 798 -189 798 c 0x94
 -310 798 -335 742 -337 725 c 1
 -317 726 -295 727 -273 727 c 0
EndSplineSet
Substitution2: "Single Substitution lookup 27 subtable" uni0E34.alt1
Substitution2: "Single Substitution lookup 27 subtable" uni0E34.alt1
EndChar

StartChar: uni0E35
Encoding: 3637 3637 266
Width: 0
VWidth: 1473
Flags: W
HStem: 644 62<-167.95 9> 671 54<-337 -305.046 -305.046 0.755127> 798 62<-283.578 -60.1746>
LayerCount: 2
Fore
SplineSet
-171 860 m 0x60
 -74 860 -3 825 16 800 c 1
 16 818 l 2
 16 829 18 842 21 857 c 2
 31 902 l 1
 109 902 l 1
 72 731 l 1
 73 725 73 717 73 709 c 0
 73 658 69 644 52 644 c 0xa0
 30 644 -145 671 -299 671 c 0
 -406 671 -419 658 -419 674 c 0
 -419 680 -388 860 -171 860 c 0x60
9 706 m 1
 1 754 -65 798 -189 798 c 0
 -310 798 -335 742 -337 725 c 1x60
 -317 726 -295 727 -273 727 c 0
 -160 727 -47 712 9 706 c 1
EndSplineSet
Substitution2: "Single Substitution lookup 27 subtable" uni0E35.alt1
Substitution2: "Single Substitution lookup 27 subtable" uni0E35.alt1
EndChar

StartChar: uni0E36
Encoding: 3638 3638 267
Width: 0
VWidth: 1473
Flags: W
HStem: 644 62<-167.95 9> 671 54<-337 -305.046 -305.046 0.755127> 798 62<-283.578 -85.4664> 884 41<33.3369 103.108>
VStem: -19 41<828 873.096> 106 42<807.626 873.524>
LayerCount: 2
Fore
SplineSet
9 706 m 1xbc
 11 776 -104 798 -189 798 c 0
 -310 798 -335 742 -337 725 c 1x7c
 -317 726 -295 727 -273 727 c 0
 -160 727 -47 712 9 706 c 1xbc
-171 860 m 0
 -125 860 -74 854 -19 828 c 1
 -19 879 31 925 81 925 c 0
 122 925 148 899 148 859 c 0
 148 807 99 765 62 759 c 1
 71 743 75 726 75 705 c 0
 75 649 63 644 52 644 c 0xbc
 30 644 -145 671 -299 671 c 0
 -406 671 -419 658 -419 674 c 0
 -419 680 -388 860 -171 860 c 0
53 796 m 256
 86 796 106 828 106 849 c 0
 106 863 99 884 72 884 c 256
 37 884 22 848 22 826 c 0
 22 814 28 796 53 796 c 256
EndSplineSet
Substitution2: "Single Substitution lookup 27 subtable" uni0E36.alt1
Substitution2: "Single Substitution lookup 27 subtable" uni0E36.alt1
EndChar

StartChar: uni0E37
Encoding: 3639 3639 268
Width: 0
VWidth: 1473
Flags: W
HStem: 644 62<-167.95 9> 671 54<-337 -305.046 -305.046 0.755127> 798 62<-283.578 -115.283>
VStem: 9 64<706.636 718.244 718.244 743.789>
LayerCount: 2
Fore
SplineSet
9 706 m 1xb0
 3 752 -76 798 -189 798 c 0
 -310 798 -335 742 -337 725 c 1x70
 -317 726 -295 727 -273 727 c 0
 -160 727 -47 712 9 706 c 1xb0
-171 860 m 0
 -157 860 -121 857 -102 849 c 1
 -90 902 l 1
 -19 902 l 1
 -35 831 l 1
 -14 822 3 809 15 791 c 1
 14 795 13 799 13 804 c 256
 13 812 14 821 19 846 c 2
 31 902 l 1
 109 902 l 1
 72 731 l 1
 73 725 73 717 73 709 c 0
 73 658 69 644 52 644 c 0xb0
 30 644 -145 671 -299 671 c 0
 -406 671 -419 658 -419 674 c 0
 -419 680 -388 860 -171 860 c 0
EndSplineSet
Substitution2: "Single Substitution lookup 27 subtable" uni0E37.alt1
Substitution2: "Single Substitution lookup 27 subtable" uni0E37.alt1
EndChar

StartChar: uni0E38
Encoding: 3640 3640 269
Width: 0
VWidth: 1473
Flags: W
HStem: -295 235<-243 -150> -99 39<-245.979 -151.665>
VStem: -292 184<-155 -121 -153 -120 -153 -153> -292 39<-170.177 -115.472> -184 76<-176.712 -105.798>
LayerCount: 2
Fore
SplineSet
-183 -60 m 0xa0
 -119 -60 -108 -96 -108 -120 c 0
 -108 -155 -125 -175 -134 -221 c 2
 -150 -295 l 1
 -243 -295 l 1xa0
 -227 -220 l 2
 -219 -181 -184 -165 -184 -126 c 0
 -184 -114 -189 -99 -211 -99 c 256
 -245 -99 -253 -131 -253 -145 c 0x58
 -253 -159 -241 -167 -236 -169 c 2
 -221 -177 l 1
 -231 -193 l 1
 -261 -194 l 1
 -278 -190 -292 -175 -292 -153 c 0
 -292 -121 -266 -60 -183 -60 c 0xa0
EndSplineSet
Substitution2: "Single Substitution lookup 26 subtable" a
Substitution2: "Single Substitution lookup 27 subtable" uni0E38.alt1
Substitution2: "Single Substitution lookup 26 subtable" a
Substitution2: "Single Substitution lookup 27 subtable" uni0E38.alt1
EndChar

StartChar: uni0E39
Encoding: 3641 3641 270
Width: 0
VWidth: 1473
Flags: W
HStem: -295 37<-304.147 -236.743> -91 38<-392.413 -302.747>
VStem: -437 38<-150.609 -107.582> -397 79<-255.175 -230.157 -240 -220.314> -329 60<-149.884 -96.8927>
LayerCount: 2
Fore
SplineSet
-331 -53 m 0xe8
 -276 -56 -269 -96 -269 -114 c 0xe8
 -269 -118 -269 -132 -280 -152 c 2
 -292 -173 l 2
 -310 -203 -318 -226 -318 -239 c 0
 -318 -255 -284 -258 -275 -258 c 256
 -264 -258 -228 -255 -224 -236 c 2
 -184 -52 l 1
 -91 -52 l 1
 -131 -237 l 2
 -139 -281 -238 -295 -277 -295 c 0
 -296 -295 -397 -289 -397 -243 c 0xf0
 -397 -241 -396 -239 -396 -237 c 2
 -392 -215 l 2
 -384 -174 -329 -171 -329 -120 c 0
 -329 -105 -334 -91 -354 -91 c 0
 -390 -91 -399 -122 -399 -134 c 0
 -399 -142 -396 -149 -390 -155 c 2
 -377 -169 l 1
 -392 -184 l 1
 -421 -178 l 1
 -432 -166 -437 -153 -437 -139 c 0
 -437 -88 -379 -53 -331 -53 c 0xe8
EndSplineSet
Substitution2: "Single Substitution lookup 26 subtable" b
Substitution2: "Single Substitution lookup 27 subtable" uni0E39.alt1
Substitution2: "Single Substitution lookup 26 subtable" b
Substitution2: "Single Substitution lookup 27 subtable" uni0E39.alt1
EndChar

StartChar: uni0E3A
Encoding: 3642 3642 271
Width: 0
VWidth: 1473
Flags: W
HStem: -177 118<-176.059 -96.75>
VStem: -200 127<-152.958 -82.5683>
LayerCount: 2
Fore
SplineSet
-73 -104 m 0
 -73 -144 -111 -177 -149 -177 c 256
 -180 -177 -200 -155 -200 -128 c 0
 -200 -95 -165 -59 -124 -59 c 256
 -96 -59 -73 -77 -73 -104 c 0
EndSplineSet
Substitution2: "Single Substitution lookup 26 subtable" c
Substitution2: "Single Substitution lookup 27 subtable" uni0E3A.alt1
Substitution2: "Single Substitution lookup 26 subtable" c
Substitution2: "Single Substitution lookup 27 subtable" uni0E3A.alt1
EndChar

StartChar: uni0E3F
Encoding: 3647 3647 272
Width: 629
VWidth: 1473
Flags: W
HStem: 0 77<208 286 355 446.317> 367 73<287 362 432 503.607> 635 81<329 420 491 544.18>
VStem: 536 102<213.175 323.545> 558 106<517.639 620.065>
LayerCount: 2
Fore
SplineSet
664 586 m 0xe8
 664 530 639 436 542 407 c 1
 635 390 638 296 638 276 c 0xf0
 638 213 600 -0 340 0 c 2
 339 0 l 1
 309 -133 l 1
 256 -133 l 1
 286 0 l 1
 88 0 l 1
 240 716 l 1
 438 716 l 1
 467 857 l 1
 520 857 l 1
 491 716 l 1
 495 716 l 2
 641 716 664 638 664 586 c 0xe8
362 367 m 1
 268 367 l 1
 208 77 l 1
 302 77 l 1
 362 367 l 1
420 635 m 1
 329 635 l 1
 287 440 l 1
 379 440 l 1
 420 635 l 1
558 570 m 0xe8
 558 622 522 635 477 635 c 2
 473 635 l 1
 432 440 l 1
 502 446 539 467 555 542 c 0
 557 552 558 561 558 570 c 0xe8
355 77 m 1
 462 80 506 125 529 228 c 0
 533 249 536 268 536 284 c 0xf0
 536 332 505 363 415 365 c 1
 355 77 l 1
EndSplineSet
EndChar

StartChar: uni0E40
Encoding: 3648 3648 273
Width: 313
VWidth: 1473
Flags: W
HStem: -1 58<211.029 286.192> 569 20G<212 305>
VStem: 108 88<62.6137 155.876> 300 61<70.6296 142.186>
LayerCount: 2
Fore
SplineSet
300 115 m 0
 300 134 293 152 265 152 c 2
 222 152 l 1
 228 178 l 1
 278 211 l 1
 279 211 l 2
 330 211 361 176 361 129 c 0
 361 47 272 -1 214 -1 c 256
 159 -1 108 30 108 93 c 0
 108 132 157 284 172 364 c 2
 180 410 l 2
 186 442 203 537 203 569 c 0
 203 582 206 589 218 589 c 2
 305 589 l 1
 278 459 267 357 227 224 c 2
 200 125 l 2
 197 114 196 104 196 96 c 0
 196 62 227 57 242 57 c 0
 270 57 300 80 300 115 c 0
EndSplineSet
EndChar

StartChar: uni0E41
Encoding: 3649 3649 274
Width: 608
VWidth: 1473
Flags: W
HStem: -1 58<211.029 286.192 535.029 610.192> 152 59<278 297.166 603 621.836> 569 20G<212 305 536 629>
VStem: 108 88<62.6137 155.876> 300 61<70.6296 142.186> 432 88<62.6137 155.876> 624 61<70.6296 142.186>
LayerCount: 2
Fore
SplineSet
300 115 m 0
 300 134 293 152 265 152 c 2
 222 152 l 1
 228 178 l 1
 278 211 l 1
 279 211 l 2
 330 211 361 176 361 129 c 0
 361 47 272 -1 214 -1 c 256
 159 -1 108 30 108 93 c 0
 108 132 157 284 172 364 c 2
 180 410 l 2
 186 442 203 537 203 569 c 0
 203 582 206 589 218 589 c 2
 305 589 l 1
 278 459 267 357 227 224 c 2
 200 125 l 2
 197 114 196 104 196 96 c 0
 196 62 227 57 242 57 c 0
 270 57 300 80 300 115 c 0
624 115 m 0
 624 134 617 152 589 152 c 2
 547 152 l 1
 552 178 l 1
 603 211 l 1
 604 211 l 2
 654 211 685 176 685 129 c 0
 685 47 596 -1 538 -1 c 256
 483 -1 432 30 432 93 c 0
 432 132 481 284 496 364 c 2
 504 410 l 2
 510 442 527 537 527 569 c 0
 527 582 530 589 542 589 c 2
 629 589 l 1
 602 459 591 357 551 224 c 2
 524 125 l 2
 521 114 520 104 520 96 c 0
 520 62 551 57 566 57 c 0
 594 57 624 80 624 115 c 0
EndSplineSet
EndChar

StartChar: uni0E42
Encoding: 3650 3650 275
Width: 313
VWidth: 1473
Flags: W
HStem: -1 58<211.346 285.706> 909 74<338.254 478.48> 924 69<249.398 379.132>
VStem: 109 87<62.2104 158.746> 149 393<838 955> 247 91<709.095 772.042> 300 61<71.0367 141.442>
LayerCount: 2
Fore
SplineSet
300 115 m 0xb2
 300 134 293 152 265 152 c 2
 222 152 l 1
 228 178 l 1
 278 211 l 1
 328.825 211 361 177.681 361 129 c 0xb2
 361 62 300 -1 228 -1 c 0
 173 -1 109 30 109 96 c 0
 109 119 124 176 140 236 c 2
 189 438 l 1
 240 685 l 2
 245 706 247 722 247 734 c 0xb4
 247 781 216 771 178 791 c 256
 162 800 149 812 149 838 c 0
 149 916 213 993 301 993 c 0xa8
 334 993 374 983 433 983 c 0
 460 983 504 986 541 1006 c 1
 542 996 542 991 542 955 c 0
 542 925 540 924 484 914 c 0
 469 910 447 909 418 909 c 0xc8
 346 909 339 924 303 924 c 0
 257 924 247 911 237 871 c 0
 231 834 249 850 292 838 c 0
 302 835 338 824 338 756 c 0xa4
 338 738 335 714 329 685 c 2
 294 510 l 2
 265 361 196 127 196 96 c 0
 196 62 227 57 242 57 c 0
 270 57 300 80 300 115 c 0xb2
EndSplineSet
EndChar

StartChar: uni0E43
Encoding: 3651 3651 276
Width: 321
VWidth: 1473
Flags: W
HStem: -1 58<216.978 292.456> 756 53<191.627 263.768> 933 63<235.786 375.041>
VStem: 116 87<62.7394 151.909> 134 55<818.922 901.69> 307 61<70.8165 141.744> 386 87<850.478 921.18>
LayerCount: 2
Fore
SplineSet
307 115 m 0xf6
 307 132 300 152 273 152 c 2
 230 152 l 1
 236 178 l 1
 286 211 l 1
 337 211 368 176 368 129 c 0
 368 61 305 -1 236 -1 c 0
 170 -1 116 38 116 97 c 0xf6
 116 141 154 240 196 438 c 2
 230 603 l 2
 263 749 356 714 383 847 c 0
 385 858 386 867 386 876 c 0
 386 918 365 933 295 933 c 0
 233 933 189 899 189 847 c 0
 189 828 195 809 221 809 c 0
 240 809 268 821 275 854 c 2
 284 897 l 1
 309 897 l 1
 327 854 l 1
 314 799 273 756 211 756 c 256
 149 756 134 801 134 834 c 0xee
 134 909 214 996 330 996 c 0
 445 996 473 929 473 884 c 0
 473 867 465 805 438 770 c 0
 369 683 334 676 318 603 c 0
 313 571 291 461 287 445 c 2
 242 255 l 1
 208 125 l 2
 205 113 203 103 203 95 c 0
 203 62 234 57 249 57 c 0
 277 57 307 80 307 115 c 0xf6
EndSplineSet
EndChar

StartChar: uni0E44
Encoding: 3652 3652 277
Width: 313
VWidth: 1473
Flags: W
HStem: -1 58<210.349 285.504>
VStem: 110 86<62.2008 119.967 114.59 125.344 125.344 138.382> 133 88<875.137 968.061> 300 61<70.061 142.186>
LayerCount: 2
Fore
SplineSet
300 115 m 0xd0
 300 134 293 152 265 152 c 2
 222 152 l 1
 228 178 l 1
 278 211 l 1
 279 211 l 2
 330 211 361 176 361 129 c 0
 361 70 311 -1 214 -1 c 256
 152 -1 110 35 110 97 c 0xd0
 110 110 112 125 115 140 c 2
 141 243 l 2
 149 272 157 304 166 340 c 2
 189 438 l 2
 239 674 295 761 312 832 c 0
 318 855 321 859 321 871 c 1
 282 817 205 750 177 728 c 1
 148 780 133 889 133 932 c 0
 133 973 141 986 200 1000 c 0
 210 1002 220 1003 230 1003 c 1
 223 961 220 920 220 878 c 0
 220 861 220 844 221 829 c 1xb0
 275 891 l 2
 304 925 330 964 334 984 c 2
 339 999 l 1
 417 999 l 2
 424 999 426 996 426 993 c 0
 426 979 417 972 408 924 c 0
 360 662 333 699 280 445 c 2
 234 255 l 1
 200 125 l 2
 197 114 196 104 196 96 c 0
 196 62 227 57 242 57 c 0
 270 57 300 80 300 115 c 0xd0
EndSplineSet
EndChar

StartChar: uni0E45
Encoding: 3653 3653 278
Width: 515
VWidth: 1473
Flags: W
HStem: 532 66<289.265 428.913>
VStem: 453 92<344.488 508.042>
LayerCount: 2
Fore
SplineSet
420 -200 m 0
 418 -216 415 -221 405 -221 c 2
 318 -221 l 1
 358 -22 l 2
 400 204 453 402 453 446 c 0
 453 515 403 532 374 532 c 0
 336 532 279 524 184 435 c 0
 179 429 165 429 137 461 c 0
 131 468 127 474 124 480 c 1
 167 528 302 598 380 598 c 0
 471 598 545 560 545 463 c 0
 545 421 532 389 518 320 c 0
 516 309 481 146 474 108 c 2
 438 -84 l 2
 430 -130 420 -189 420 -200 c 0
EndSplineSet
EndChar

StartChar: uni0E46
Encoding: 3654 3654 279
Width: 447
VWidth: 1473
Flags: W
HStem: 349 55<200.043 268.183> 532 57<214.77 256 408 426.998>
VStem: 123 62<408.611 503.417> 427 92<477.734 529.525>
LayerCount: 2
Fore
SplineSet
209 349 m 0
 140 349 123 392 123 431 c 0
 123 527 213 591 273 591 c 1
 331 523 l 1
 408 589 l 1
 426 589 l 2
 476 589 519 573 519 507 c 0
 519 494 517 479 513 461 c 2
 379 -140 l 1
 371 -179 l 2
 369 -189 368 -196 368 -200 c 0
 367 -213 365 -221 354 -221 c 2
 267 -221 l 1
 314 -22 l 1
 362 190 l 2
 412 409 427 485 427 513 c 0
 427 526 425 532 404 532 c 1
 320 466 l 1
 256 526 l 1
 225 526 185 499 185 445 c 0
 185 412 210 404 228 404 c 0
 244 404 261 417 267 423 c 2
 295 454 l 1
 311 442 l 1
 295 389 l 1
 271 363 235 349 209 349 c 0
EndSplineSet
EndChar

StartChar: uni0E47
Encoding: 3655 3655 280
Width: 0
VWidth: 1473
Flags: W
HStem: 676 50<-106.708 8.96662> 790 20G<-172.429 -135.5> 825 38<-30.1867 27.1229> 890 62<-77.6203 34.1268> 903 60<-208.838 -116.397>
VStem: -321 67<754.667 850.483> -76 40<762.927 809.715> 28 51<764.817 824.211>
LayerCount: 2
Fore
SplineSet
-76 779 m 0xef
 -76 814 -43 863 15 863 c 0
 68 862 79 827 79 800 c 0
 79 771 61 676 -63 676 c 0
 -113 676 -155 699 -169 732 c 1
 -227 681 l 1
 -265 681 l 1
 -301 690 -321 740 -321 779 c 0
 -321 851 -258 963 -147 963 c 0xef
 -105 963 -62 952 -35 952 c 0
 30 952 64 972 87 1036 c 1
 91 1036 l 2
 120 1036 157 1012 157 996 c 0
 157 994 108 899 22 892 c 0
 4 891 -15 890 -37 890 c 0xf7
 -82 890 -140 903 -169 903 c 0
 -207 903 -254 835 -254 784 c 0
 -254 777 -254 763 -231 740 c 1
 -149 810 l 1
 -122 750 -91 726 -52 726 c 0
 -5 726 15 740 27 784 c 0
 28 789 28 793 28 797 c 0
 28 816 19 825 1 825 c 0
 -30 825 -36 790 -36 783 c 0
 -36 776 -29 769 -27 766 c 2
 -13 751 l 1
 -28 737 l 1
 -57 742 l 1
 -70 756 -76 765 -76 779 c 0xef
EndSplineSet
Substitution2: "Single Substitution lookup 27 subtable" uni0E47.alt1
Substitution2: "Single Substitution lookup 27 subtable" uni0E47.alt1
EndChar

StartChar: uni0E48
Encoding: 3656 3656 281
Width: 0
VWidth: 1473
Flags: W
HStem: 958 200<87 113 57 169 87 87>
LayerCount: 2
Fore
SplineSet
57 958 m 1
 68 1072 l 1
 87 1158 l 1
 169 1158 l 1
 150 1072 l 1
 113 958 l 1
 57 958 l 1
EndSplineSet
Substitution2: "Single Substitution lookup 27 subtable" uni0E48.alt2
Substitution2: "Single Substitution lookup 27 subtable" uni0E48.alt2
EndChar

StartChar: uni0E49
Encoding: 3657 3657 282
Width: 0
VWidth: 1473
Flags: W
HStem: 935 54<-46.2632 10.8374> 935 214<-6 99 3 41 290 290> 1114 38<-6.63903 47.1448>
VStem: -85 375<946 1149 659 697> -51 40<1056.36 1100.12> 47 59<1032.37 1104.85>
LayerCount: 2
Fore
SplineSet
-4 971 m 1xac
 107 994 162 1001 227 1149 c 1
 290 1149 l 1x50
 224 985 141 935 3 935 c 0
 -6 935 -51 936 -85 946 c 1x90
 -84 954 -75 979 -69 989 c 1
 -62 986 -59 989 -53 989 c 0
 9 992 39 1031 47 1074 c 0
 51 1092 47 1114 25 1114 c 0
 -3 1114 -11 1085 -11 1073 c 0
 -11 1069 -10 1061 -3 1053 c 2
 9 1039 l 1
 -4 1024 l 1
 -34 1030 l 1
 -45 1042 -51 1055 -51 1069 c 0
 -51 1108 -14 1152 41 1152 c 0
 99 1151 106 1106 106 1088 c 0
 106 1053 67 990 -4 971 c 1xac
EndSplineSet
Substitution2: "Single Substitution lookup 27 subtable" uni0E49.alt2
Substitution2: "Single Substitution lookup 27 subtable" uni0E49.alt2
EndChar

StartChar: uni0E4A
Encoding: 3658 3658 283
Width: 0
VWidth: 1473
Flags: W
HStem: 921 38<-110.133 -55.3184> 1087 52<-84.8885 -6.89332 45.9181 111.739>
VStem: -161 50<959.791 1033.05> -52 41<962.241 1013.88> 85 63<1043.24 1089.73> 211 74<1092.95 1160.73>
LayerCount: 2
Fore
SplineSet
-111 988 m 0
 -111 967 -107 959 -87 959 c 0
 -66 959 -52 977 -52 995 c 0
 -52 1003 -55 1011 -60 1018 c 2
 -72 1033 l 1
 -57 1047 l 1
 -28 1042 l 1
 -17 1030 -11 1016 -11 1002 c 0
 -11 971 -36 921 -97 921 c 0
 -126 922 -161 933 -161 983 c 0
 -161 1054 -114 1139 -32 1139 c 256
 -2 1139 20 1123 28 1099 c 1
 42 1115 62 1137 96 1137 c 0
 139 1137 148 1104 148 1085 c 0
 148 1064 143 1023 113 977 c 1
 156 1005 214 1098 211 1162 c 1
 273 1162 l 2
 284 1162 285 1159 285 1153 c 0
 285 1120 224 993 99 937 c 1
 60 937 l 2
 49 937 61 943 80 1019 c 0
 83 1034 85 1047 85 1057 c 0
 85 1075 79 1084 69 1084 c 0
 47 1084 33 1059 13 1039 c 1
 5 1085 -25 1087 -37 1087 c 0
 -80 1087 -98 1061 -109 1006 c 0
 -110 1000 -111 994 -111 988 c 0
EndSplineSet
Substitution2: "Single Substitution lookup 27 subtable" uni0E4A.alt2
Substitution2: "Single Substitution lookup 27 subtable" uni0E4A.alt2
EndChar

StartChar: uni0E4B
Encoding: 3659 3659 284
Width: 0
VWidth: 1473
Flags: W
HStem: 949 215<87 110> 1031 56<-9 63 152 221 -21 233 -9 -9>
LayerCount: 2
Fore
SplineSet
221 1031 m 1x40
 137 1031 l 1x40
 110 949 l 1
 55 949 l 1x80
 63 1031 l 1
 -21 1031 l 1
 -9 1087 l 1
 71 1087 l 1x40
 87 1164 l 1
 168 1164 l 1x80
 152 1087 l 1
 233 1087 l 1
 221 1031 l 1x40
EndSplineSet
Substitution2: "Single Substitution lookup 27 subtable" uni0E4B.alt2
Substitution2: "Single Substitution lookup 27 subtable" uni0E4B.alt2
EndChar

StartChar: uni0E4C
Encoding: 3660 3660 285
Width: 0
VWidth: 1473
Flags: W
HStem: 902 48<11.1372 79.1209>
VStem: -49 58<951.307 1022.17> 88 43<970.266 1020.34>
LayerCount: 2
Fore
SplineSet
40 950 m 256
 78 950 88 983 88 1006 c 0
 88 1014 82 1023 72 1033 c 1
 88 1044 l 1
 119 1040 l 1
 127 1030 131 1019 131 1006 c 0
 131 981 113 902 25 902 c 0
 -33 902 -49 942 -49 969 c 0
 -49 1066 57 1078 100 1120 c 0
 114 1133 124 1153 130 1179 c 1
 193 1179 l 2
 196 1179 199 1178 199 1174 c 0
 199 1163 181 1116 149 1090 c 0
 92 1046 9 1038 9 981 c 0
 9 962 22 950 40 950 c 256
EndSplineSet
Substitution2: "Single Substitution lookup 27 subtable" uni0E4C.alt2
Substitution2: "Single Substitution lookup 27 subtable" uni0E4C.alt2
EndChar

StartChar: uni0E4D
Encoding: 3661 3661 286
Width: 0
VWidth: 1473
Flags: W
HStem: 688 59<13.2345 83.4058> 826 59<19.8046 90.3597>
VStem: -49 60<756.69 817.112> 92 61<756.053 824.737>
LayerCount: 2
Fore
SplineSet
153 810 m 0
 153 747 97 688 31 688 c 0
 -17 688 -49 722 -49 764 c 0
 -49 826 7 885 72 885 c 256
 122 885 153 850 153 810 c 0
43 747 m 256
 67 747 92 768 92 795 c 0
 92 814 79 826 60 826 c 256
 38 826 11 807 11 779 c 0
 11 768 18 747 43 747 c 256
EndSplineSet
Substitution2: "Single Substitution lookup 27 subtable" uni0E4D.alt1
Substitution2: "Single Substitution lookup 27 subtable" uni0E4D.alt1
EndChar

StartChar: uni0E4E
Encoding: 3662 3662 287
Width: 0
VWidth: 1473
Flags: W
HStem: 667 39<-92.1665 -33.073> 776 20<-49 -4 26 32> 819 49<-3.08524 26.899> 926 58<-9.28439 122.312>
VStem: -157 63<716.409 785.004> -82 63<870.202 913.061> -27 37<732.655 759.237>
LayerCount: 2
Fore
SplineSet
-68 706 m 0xfc
 -35 706 -27 738 -27 747 c 0
 -27 753 -30 760 -35 766 c 2
 -49 781 l 1
 -34 796 l 1
 -4 790 l 1
 7 774 14 758 10 740 c 0xfa
 -1 687 -47 667 -82 667 c 0
 -150 667 -157 715 -157 729 c 0
 -157 787 -96 832 -41 846 c 1
 -61 846 -82 863 -82 883 c 0
 -82 943 15 984 100 984 c 0
 123 984 137 981 151 976 c 1
 153 976 154 974 154 971 c 0
 154 967 152 958 148 951 c 2
 127 913 l 1
 110 922 88 926 62 926 c 0
 34 926 -19 918 -19 885 c 0
 -19 872 8 868 21 868 c 0
 26 868 38 869 49 871 c 1
 51 851 37 826 27 818 c 1
 25 819 13 819 0 819 c 0
 -50 819 -94 775 -94 736 c 0
 -94 724 -89 706 -68 706 c 0xfc
EndSplineSet
Substitution2: "Single Substitution lookup 27 subtable" uni0E4E.alt1
Substitution2: "Single Substitution lookup 27 subtable" uni0E4E.alt1
EndChar

StartChar: uni0E4F
Encoding: 3663 3663 288
Width: 708
VWidth: 1473
Flags: W
HStem: 16 62<281.16 471.253> 172 67<359.385 463.047> 389 68<381.805 485.761> 547 61<370.55 561.03>
VStem: 112 70<175.467 358.626> 276 70<251.583 351.805> 500 69<276.807 375.773> 655 73<266.333 451.498>
LayerCount: 2
Fore
SplineSet
112 249 m 0
 112 428 280 608 483 608 c 256
 633 608 728 504 728 378 c 0
 728 189 552 16 358 16 c 256
 216 16 112 109 112 249 c 0
182 262 m 0
 182 154 264 78 371 78 c 0
 515 78 655 213 655 360 c 0
 655 460 587 547 470 547 c 0
 319 547 182 405 182 262 c 0
276 281 m 0
 276 380 368 457 452 457 c 0
 527 457 569 403 569 343 c 0
 569 252 477 172 392 172 c 0
 321 172 276 221 276 281 c 0
346 296 m 0
 346 270 365 239 407 239 c 256
 459 239 500 288 500 331 c 0
 500 363 475 389 439 389 c 256
 389 389 346 343 346 296 c 0
EndSplineSet
EndChar

StartChar: uni0E50
Encoding: 3664 3664 289
Width: 621
VWidth: 1473
Flags: W
HStem: -12 67<228.024 420.397> 417 66<296.071 492.594>
VStem: 94 99<89.4834 238.223> 527 100<227.569 382.453>
LayerCount: 2
Fore
SplineSet
627 299 m 0
 627 157 524 -12 308 -12 c 0
 185 -12 94 47 94 169 c 0
 94 322 200 483 412 483 c 256
 590 483 627 373 627 299 c 0
193 163 m 0
 193 74 245 55 321 55 c 256
 417 55 483 85 519 236 c 0
 524 264 527 288 527 308 c 0
 527 395 480 417 399 417 c 256
 317 417 237 397 203 236 c 0
 197 207 193 183 193 163 c 0
EndSplineSet
EndChar

StartChar: uni0E51
Encoding: 3665 3665 290
Width: 620
VWidth: 1473
Flags: W
HStem: 47 63<208.964 340.895> 217 48<297.272 369.428> 411 69<302.844 469.472>
VStem: 97 88<134.657 294.254> 372 56<136.442 214.916> 529 93<169.799 352.504>
LayerCount: 2
Fore
SplineSet
372 182 m 0
 372 201 359 217 339 217 c 256
 320 217 295 206 289 177 c 2
 280 137 l 1
 256 137 l 1
 242 177 l 1
 251 227 295 265 349 265 c 0
 394 265 428 235 428 192 c 0
 428 148 382 47 245 47 c 0
 156 47 97 114 97 197 c 0
 97 333 226 480 410 480 c 0
 543 480 622 400 622 287 c 0
 622 231 599 99 492 7 c 0
 390 -82 266 -114 256 -114 c 0
 232 -114 219 -87 217 -34 c 1
 333 -11 417 25 480 114 c 0
 516 167 529 235 529 275 c 0
 529 356 474 411 389 411 c 0
 286 411 185 328 185 199 c 0
 185 157 202 110 270 110 c 0
 330 110 372 141 372 182 c 0
EndSplineSet
EndChar

StartChar: uni0E52
Encoding: 3666 3666 291
Width: 724
VWidth: 1473
Flags: W
HStem: -9 66<258.002 485.725> 124 53<355.712 443.459>
VStem: 94 97<95.7634 152.059> 148 102<386.042 523.531> 276 72<184.104 321.523> 456 55<189.989 257.471> 635 94<318.862 324 324 335.523 335.523 348.477 342 394.738>
LayerCount: 2
Fore
SplineSet
456 232 m 0xee
 456 248 449 268 420 268 c 2
 376 268 l 1
 382 295 l 1
 432 320 l 1
 478 320 511 293 511 247 c 0
 511 183 456 124 386 124 c 0
 298 124 276 183 276 230 c 0
 276 331 338 423 461 473 c 1
 530 410 l 1
 611 471 l 1
 629 471 l 2
 686 471 732 423 732 361 c 0
 732 352 731 344 729 336 c 2
 700 194 l 2
 679 94 657 71 636 52 c 0
 581 2 439 -9 365 -9 c 0
 299 -9 139 1 106 52 c 0
 98 64 94 80 94 99 c 0xee
 94 118 99 157 108 194 c 2
 137 333 l 2
 144 368 148 399 148 426 c 0
 148 484 129 531 97 567 c 1
 113 580 158 605 200 605 c 0
 210 605 217 603 221 598 c 0
 234 581 250 548 250 487 c 0xde
 250 451 244 408 233 359 c 2
 200 202 l 2
 194 174 191 145 191 130 c 0
 191 116 193 105 199 97 c 0
 216 73 307 57 380 57 c 256
 463 57 541 75 567 97 c 0
 585 115 598 144 605 184 c 2
 635 324 l 2
 637 332 638 340 638 347 c 0
 638 375 622 399 604 399 c 1
 513 329 l 1
 445 390 l 1
 407 371 348 335 348 231 c 0
 348 205 358 177 398 177 c 0
 427 177 456 200 456 232 c 0xee
EndSplineSet
EndChar

StartChar: uni0E53
Encoding: 3667 3667 292
Width: 636
VWidth: 1473
Flags: W
HStem: -9 480<195 283 208 298 272.991 281.66> -9 53<174.897 264.376> 404 67<235.78 322.839 485.812 599.529>
VStem: 78 88<52.1027 136.778 136.111 137.446 137.446 152 155 167.853> 277 55<56.6812 126.287> 338 52<323 390.527> 560 94<312.312 320 329 333.991 333.991 342.66 338.326 401.691>
LayerCount: 2
Fore
SplineSet
277 103 m 0x7e
 277 118 270 136 242 136 c 2
 199 136 l 1
 205 162 l 1
 252 187 l 1
 302 187 332 159 332 116 c 0
 332 54 283 -9 208 -9 c 0
 135 -9 78 30 78 110 c 0
 78 123 79 137 82 152 c 2
 116 306 l 2
 136 397 195 471 298 471 c 0x9e
 353 471 390 449 390 343 c 2
 390 323 l 1
 409 376 458 471 560 471 c 0
 638 471 658 419 658 369 c 0
 658 356 657 343 654 329 c 2
 585 0 l 1
 492 0 l 1
 560 320 l 2
 563 335 564 348 564 359 c 0
 564 389 555 404 527 404 c 0
 483 404 437 326 404 215 c 1
 334 215 l 1
 337 246 338 274 338 297 c 0
 338 367 327 404 281 404 c 0
 234 404 215 358 203 301 c 2
 172 155 l 2
 169 138 166 117 166 104 c 0
 166 68 181 44 220 44 c 0
 252 44 277 70 277 103 c 0x7e
EndSplineSet
EndChar

StartChar: uni0E54
Encoding: 3668 3668 293
Width: 618
VWidth: 1473
Flags: W
HStem: -6 68<225.75 355.025> 10 68<408.181 568.107> 265 49<361.57 442.664> 399 70<264.669 411.919 407.422 416.416 411.919 547.947>
VStem: 88 96<83.357 229.883> 270 69<132.638 242.863> 446 49<202.625 261.257>
LayerCount: 2
Fore
SplineSet
371 469 m 0xbe
 408 469 380 467 464 467 c 0
 545 467 593 519 618 562 c 2
 647 614 l 1
 668 607 721 581 721 558 c 0
 721 531 615 395 449 395 c 0
 405 395 414 399 361 399 c 0
 271 399 227 379 196 236 c 0
 188 201 184 172 184 150 c 0
 184 104 202 67 245 64 c 0
 262 63 279 62 296 62 c 0xbe
 333 62 345 64 357 66 c 1
 279 76 270 141 270 165 c 0
 270 241 325 314 418 314 c 0
 464 314 495 281 495 241 c 0
 495 229 492 189 451 155 c 1
 408 150 l 1
 395 164 l 1
 426 189 l 2
 429 191 446 205 446 229 c 0
 446 250 430 265 407 265 c 0
 356 265 339 210 339 181 c 0
 339 119 432 78 508 78 c 0
 581 78 589 74 611 63 c 1
 569 -4 l 1
 550 2 528 10 466 10 c 0x7e
 413 10 364 -6 271 -6 c 0
 184 -6 88 14 88 142 c 0
 88 197 112 358 212 428 c 0
 254 457 304 469 371 469 c 0xbe
EndSplineSet
EndChar

StartChar: uni0E55
Encoding: 3669 3669 294
Width: 620
VWidth: 1473
Flags: W
HStem: -6 68<225.75 355.025> 10 68<408.181 568.107> 265 49<361.57 442.664> 386 77<432.215 469.652> 401 68<254.364 337.977 337.977 346> 554 53<418.764 481.489>
VStem: 88 96<83.357 230.077> 270 69<132.638 242.863> 344 62<471.278 543.853> 446 49<202.625 261.257> 483 64<476.729 553.175>
LayerCount: 2
Fore
SplineSet
722 560 m 0xafa0
 722 554 664 386 468 386 c 0x37a0
 441 386 417 391 398 402 c 1
 390.962 400.827 386.167 401 362 401 c 0
 259 401 230 398 196 236 c 0
 188 201 184 172 184 150 c 0
 184 104 202 67 245 64 c 0
 262 63 279 62 296 62 c 0xafa0
 333 62 345 64 357 66 c 1
 279 76 270 141 270 165 c 0
 270 241 325 314 418 314 c 0
 464 314 495 281 495 241 c 0
 495 229 492 189 451 155 c 1
 408 150 l 1
 395 164 l 1
 426 189 l 2
 429 191 446 205 446 229 c 0
 446 250 430 265 407 265 c 0
 356 265 339 210 339 181 c 0
 339 119 432 78 508 78 c 0
 581 78 589 74 611 63 c 1
 569 -4 l 1
 550 2 528 10 466 10 c 0x67c0
 413 10 364 -6 271 -6 c 0
 184 -6 88 14 88 142 c 0
 88 212 129 469 330 469 c 0
 335 469 340 468 346 468 c 1
 345 472 344 476 344 481 c 0
 344 551 407 607 467 607 c 0
 510 607 547 578 547 536 c 0
 547 511 535 476 510 451 c 1
 588 470 623 550 648 614 c 1
 677 607 722 580 722 560 c 0xafa0
418 463 m 1
 464 465 483 493 483 523 c 0
 483 542 473 554 455 554 c 0
 423 554 406 521 406 492 c 0
 406 479 410 470 418 463 c 1
EndSplineSet
EndChar

StartChar: uni0E56
Encoding: 3670 3670 295
Width: 608
VWidth: 1473
Flags: W
HStem: -7 70<232.304 412.9> 184 55<230.142 309.729> 402 71<351.354 490.141>
VStem: 153 63<81.3681 169.797> 200 74<407.099 511.576> 311 51<140 145.5 145.5 152.523 149.012 180.543> 519 93<228.414 374.528>
LayerCount: 2
Fore
SplineSet
365 165 m 0xf6
 365 157 364 149 362 140 c 1
 327 96 l 1
 301 96 l 1
 311 140 l 2
 312 144 312 147 312 151 c 0
 312 172 294 184 274 184 c 0xee
 251 184 216 166 216 122 c 0xf6
 216 73 269 63 324 63 c 0
 363 63 476 72 508 228 c 0
 515 259 519 286 519 307 c 0
 519 380 478 402 402 402 c 0
 350 402 295 382 267 348 c 1
 192 348 l 1
 197 367 200 387 200 406 c 0
 200 490 160 556 127 597 c 1
 147 617 192 635 222 635 c 0
 232 635 239 632 242 626 c 0
 262 586 274 529 274 477 c 0xee
 274 459 273 441 270 424 c 1
 350 475 411 473 423 473 c 0
 569 473 612 384 612 303 c 0
 612 95 443 -7 312 -7 c 0
 181 -7 153 60 153 104 c 0
 153 174 213 239 285 239 c 0
 350 239 365 195 365 165 c 0xf6
EndSplineSet
EndChar

StartChar: uni0E57
Encoding: 3671 3671 296
Width: 767
VWidth: 1473
Flags: W
HStem: -9 53<176.775 265.801> 404 67<460 497.543> 575 20G<723 742>
VStem: 84 85<50.564 157.516> 278 55<56.4893 125.934> 505 96<334.83 398.648> 698 99<320.341 504.575>
LayerCount: 2
Fore
SplineSet
698 392 m 0
 698 478 664 538 642 563 c 1
 664 581 706 595 740 595 c 0
 744 595 759 595 763 585 c 0
 781 551 797 493 797 432 c 0
 797 320 750 97 513 0 c 1
 439 0 l 2
 422 0 434 6 439 31 c 2
 501 324 l 2
 504 336 505 347 505 356 c 0
 505 388 490 404 460 404 c 1
 342 281 l 1
 261 392 l 1
 218 369 213 347 192 249 c 2
 181 199 l 2
 173 161 169 130 169 105 c 0
 169 71 176 44 221 44 c 0
 253 44 278 69 278 102 c 0
 278 117 271 136 243 136 c 2
 199 136 l 1
 205 162 l 1
 253 187 l 1
 303 187 333 159 333 116 c 0
 333 54 284 -9 209 -9 c 0
 129 -9 84 41 84 123 c 0
 84 144 87 168 93 196 c 2
 105 255 l 2
 127 356 191 433 283 473 c 1
 359 365 l 1
 458 471 l 1
 480 471 l 2
 543 471 601 434 601 370 c 0
 601 361 600 352 598 343 c 2
 542 81 l 1
 626 125 666 201 689 314 c 0
 695 341 698 367 698 392 c 0
EndSplineSet
EndChar

StartChar: uni0E58
Encoding: 3672 3672 297
Width: 636
VWidth: 1473
Flags: W
HStem: -6 69<194.331 296.794 400.293 534.528> 240 47<513.713 584.745> 387 76<426.885 573.379> 399 70<291.353 451.95>
VStem: 89 92<74.3019 217.376> 455 47<159.273 214.987> 588 59<145.065 238.952>
LayerCount: 2
Fore
SplineSet
370 196 m 0xde
 370 193 367 184 367 165 c 0
 367 114 397 60 454 60 c 0
 532 60 567 96 585 169 c 256
 587 180 588 190 588 198 c 0
 588 223 579 240 558 240 c 0
 515 240 502 202 502 183 c 0
 502 176 505 170 510 165 c 2
 530 140 l 1
 511 127 l 1
 470 131 l 1
 460 144 455 159 455 175 c 0
 455 230 505 287 567 287 c 0
 615 287 647 265 647 200 c 0
 647 109 575 -6 464 -6 c 0
 383 -6 360 34 334 34 c 0
 321 34 281 -6 205 -6 c 0
 135 -6 89 49 89 139 c 0
 89 249 141 432 298 462 c 0
 320 467 341 469 361 469 c 0xde
 387 469 453 463 492 463 c 0
 602 463 648 559 676 614 c 1
 700 606 740 585 740 566 c 0
 740 532 620 387 477 387 c 0xee
 441 387 405 399 348 399 c 0
 277 399 226 378 196 236 c 0
 185 184 181 152 181 131 c 0
 181 78 199 63 259 63 c 0
 271 63 285 66 321 78 c 1
 292 116 288 138 289 153 c 0
 291 181 342 199 363 199 c 0
 367 199 370 198 370 196 c 0xde
EndSplineSet
EndChar

StartChar: uni0E59
Encoding: 3673 3673 298
Width: 624
VWidth: 1473
Flags: W
HStem: 0 53<195.692 282.02> 339 268<616 698> 404 66<280.449 364.138 498.102 566.535>
VStem: 89 91<68.6287 227.041> 296 55<66.666 133.029> 467 93<0 173.896> 640 89<513.713 594.783>
LayerCount: 2
Fore
SplineSet
569 371 m 0xde
 569 402 551 410 529 410 c 0
 521 410 494 409 463 362 c 1
 516 233 554 74 560 0 c 1
 467 0 l 1
 450 219 410 404 324 404 c 0
 267 404 225 386 190 222 c 0
 184 194 180 162 180 140 c 0
 180 103 191 53 237 53 c 0
 272 53 296 84 296 108 c 0
 296 122 289 144 259 144 c 2
 215 144 l 1
 221 171 l 1
 271 196 l 1
 318 196 351 169 351 123 c 0
 351 66 300 0 224 0 c 0
 116 0 89 75 89 148 c 0
 89 195 119 423 263 460 c 0
 287 467 312 470 337 470 c 0xbe
 399 470 431 432 440 415 c 1
 459 439 494 473 538 473 c 0
 578 473 602 454 611 417 c 1
 639 459 640 542 640 550 c 0
 640 565 638 580 635 595 c 1
 652 602 676 607 698 607 c 0
 721 607 729 601 729 591 c 0
 729 500 641 339 616 339 c 0
 572 339 587 342 567 342 c 1
 564 343 564 344 564 344 c 1
 565 347 569 360 569 371 c 0xde
EndSplineSet
EndChar

StartChar: uni0E5A
Encoding: 3674 3674 299
Width: 640
VWidth: 1473
Flags: W
HStem: 0 21G<305 400.205 482 577.205> 374 64<209.962 293.897> 547 48<193.297 254.297>
VStem: 126 59<448.943 539.743> 253 48<510 516.523 516.523 522.523 519.523 546.173>
LayerCount: 2
Fore
SplineSet
249 438 m 0
 323 438 399 482 435 589 c 1
 510 589 l 2
 519 589 522 588 522 583 c 0
 522 578 516 567 511 547 c 2
 396 0 l 1
 305 0 l 1
 402 458 l 1
 326 374 250 374 225 374 c 0
 146 374 126 434 126 469 c 0
 126 554 190 595 240 595 c 0
 278 595 304 574 304 535 c 0
 304 527 303 519 301 510 c 1
 268 467 l 1
 245 467 l 1
 253 510 l 2
 254 515 255 519 255 523 c 0
 255 539 245 547 230 547 c 0
 194 547 185 515 185 488 c 0
 185 448 225 438 249 438 c 0
604 589 m 1
 687 589 l 2
 696 589 700 587 700 583 c 0
 700 580 696 577 688 547 c 2
 573 0 l 1
 482 0 l 1
 604 589 l 1
EndSplineSet
LCarets2: 1 0 
Ligature2: "'liga' Standard Ligatures in Latin lookup 24 subtable" uni0E2F uni0E2F
EndChar

StartChar: uni0E5B
Encoding: 3675 3675 300
Width: 1026
VWidth: 1473
Flags: W
HStem: 35 49<259.962 417.031> 190 40<332.412 402.787> 247 17<958.489 1004.73> 312 40<340.314 408.202> 455 46<320.415 447.593>
VStem: 161 54<129.813 316.536> 291 39<232.619 300.893> 461 48<342.581 440.408>
LayerCount: 2
Fore
SplineSet
882 342 m 1
 909 335 950 264 1033 264 c 2
 1042 264 l 1
 1019 253 998 247 977 247 c 0
 944 247 919 259 900 284 c 1
 883 237 864 210 841 203 c 1
 819 203 822 306 806 324 c 1
 787 234 765 189 738 189 c 0
 721 189 725 291 709 317 c 1
 683 221 654 172 623 172 c 0
 605.039 172 612.533 284.824 597 317 c 1
 558 129 465 35 318 35 c 0
 193 35 161 127 161 199 c 0
 161 304 224 501 393 501 c 0
 486 501 509 442 509 393 c 0
 509 324 463 190 355 190 c 0
 316 190 291 221 291 254 c 0
 291 304 335 352 389 352 c 0
 400 352 428 351 446 323 c 1
 446 326 l 1
 454 341 461 369 461 391 c 0
 461 434 436 455 387 455 c 0
 260 455 215 276 215 214 c 0
 215 112 276 84 329 84 c 0
 522 84 567 327 570 396 c 1
 621 386 647 336 647 247 c 2
 647 240 l 1
 682 309 682 348 682 367 c 0
 682 375 682 384 681 393 c 1
 720 382 747 339 762 265 c 1
 785 325 784 326 784 374 c 1
 824 363 847 321 853 250 c 1
 872 271 882 302 882 342 c 1
364 230 m 256
 388 230 415 255 415 278 c 0
 415 296 402 312 382 312 c 256
 356 312 330 288 330 262 c 0
 330 245 345 230 364 230 c 256
EndSplineSet
EndChar

StartChar: zerowidthnonjoiner
Encoding: 8204 8204 301
Width: 0
VWidth: 1473
Flags: W
LayerCount: 2
Back
SplineSet
-34 -374 m 1
 -122 -374 l 1
 44 417 l 1
 133 417 l 1
 -34 -374 l 1
EndSplineSet
EndChar

StartChar: zerowidthjoiner
Encoding: 8205 8205 302
Width: 0
VWidth: 1473
Flags: W
LayerCount: 2
Back
SplineSet
-34 -374 m 1
 -122 -374 l 1
 10 258 l 1
 -29 236 l 1
 -53 293 l 1
 22 329 l 1
 -29 385 l 1
 24 436 l 1
 78 371 l 1
 159 436 l 1
 193 385 l 1
 116 329 l 1
 178 293 l 1
 130 236 l 1
 99 258 l 1
 -34 -374 l 1
EndSplineSet
EndChar

StartChar: lefttorightmark
Encoding: 8206 8206 303
Width: 0
VWidth: 1473
Flags: W
LayerCount: 2
Back
SplineSet
-34 -374 m 1
 -122 -374 l 1
 35 380 l 1
 239 380 l 1
 214 421 l 1
 274 457 l 1
 326 336 l 1
 224 215 l 1
 178 252 l 1
 221 293 l 1
 106 293 l 1
 -34 -374 l 1
EndSplineSet
EndChar

StartChar: righttoleftmark
Encoding: 8207 8207 304
Width: 0
VWidth: 1473
Flags: W
LayerCount: 2
Back
SplineSet
18 293 m 1
 -96 293 l 1
 -71 252 l 1
 -131 215 l 1
 -183 336 l 1
 -81 457 l 1
 -35 421 l 1
 -78 380 l 1
 124 380 l 1
 -34 -374 l 1
 -122 -374 l 1
 18 293 l 1
EndSplineSet
EndChar

StartChar: endash
Encoding: 8211 8211 305
Width: 559
VWidth: 1473
Flags: W
HStem: 267 64<69 616>
LayerCount: 2
Fore
SplineSet
56 267 m 1
 69 331 l 1
 629 331 l 1
 616 267 l 1
 56 267 l 1
EndSplineSet
EndChar

StartChar: emdash
Encoding: 8212 8212 306
Width: 1119
VWidth: 1473
Flags: W
HStem: 267 64<69 1176>
LayerCount: 2
Fore
SplineSet
1176 267 m 1
 56 267 l 1
 69 331 l 1
 1189 331 l 1
 1176 267 l 1
EndSplineSet
EndChar

StartChar: quoteleft
Encoding: 8216 8216 307
Width: 278
VWidth: 1473
Flags: W
HStem: 536 285<181 311 311 311>
LayerCount: 2
Fore
SplineSet
181 536 m 1
 206 653 l 1
 311 821 l 1
 386 821 l 1
 277 653 l 1
 331 653 l 1
 306 536 l 1
 181 536 l 1
EndSplineSet
EndChar

StartChar: quoteright
Encoding: 8217 8217 308
Width: 278
VWidth: 1473
Flags: W
HStem: 541 283<255 386 386 386>
LayerCount: 2
Fore
SplineSet
386 824 m 1
 362 709 l 1
 255 541 l 1
 183 541 l 1
 289 709 l 1
 236 709 l 1
 259 824 l 1
 386 824 l 1
EndSplineSet
EndChar

StartChar: quotesinglbase
Encoding: 8218 8218 309
Width: 278
VWidth: 1473
Flags: W
HStem: -168 283<103 236 236 236>
LayerCount: 2
Fore
SplineSet
236 115 m 1
 212 0 l 1
 103 -168 l 1
 31 -168 l 1
 146 0 l 1
 85 0 l 1
 109 115 l 1
 236 115 l 1
EndSplineSet
EndChar

StartChar: quotedblleft
Encoding: 8220 8220 310
Width: 524
VWidth: 1473
Flags: W
HStem: 536 285<221 352 539 561>
LayerCount: 2
Fore
SplineSet
221 536 m 1
 246 653 l 1
 352 821 l 1
 424 821 l 1
 324 653 l 1
 371 653 l 1
 346 536 l 1
 221 536 l 1
407 536 m 1
 432 653 l 1
 539 821 l 1
 611 821 l 1
 511 653 l 1
 558 653 l 1
 533 536 l 1
 407 536 l 1
EndSplineSet
EndChar

StartChar: quotedblright
Encoding: 8221 8221 311
Width: 524
VWidth: 1473
Flags: W
HStem: 541 284<461 592 592 614>
LayerCount: 2
Fore
SplineSet
592 825 m 1
 567 709 l 1
 461 541 l 1
 389 541 l 1
 489 709 l 1
 442 709 l 1
 467 825 l 1
 592 825 l 1
407 825 m 1
 382 709 l 1
 274 541 l 1
 202 541 l 1
 302 709 l 1
 255 709 l 1
 280 825 l 1
 407 825 l 1
EndSplineSet
EndChar

StartChar: quotedblbase
Encoding: 8222 8222 312
Width: 511
VWidth: 1473
Flags: W
HStem: -168 283<311 442 442 464>
LayerCount: 2
Fore
SplineSet
442 115 m 1
 418 0 l 1
 311 -168 l 1
 252 -168 l 1
 339 0 l 1
 293 0 l 1
 317 115 l 1
 442 115 l 1
240 115 m 1
 217 0 l 1
 109 -168 l 1
 50 -168 l 1
 138 0 l 1
 90 0 l 1
 113 115 l 1
 240 115 l 1
EndSplineSet
EndChar

StartChar: dagger
Encoding: 8224 8224 313
Width: 559
VWidth: 1473
Flags: W
HStem: 591 21G<443.565 610> 801 20G<402.217 502>
VStem: 189 421<526 610 526 526> 231 59<-80.7188 -46.3666>
LayerCount: 2
Fore
SplineSet
231 -90 m 1xd0
 303 362 l 1
 362 547 l 1
 189 526 l 1
 206 610 l 1
 373 591 l 1
 405 821 l 1
 502 821 l 1
 438 591 l 1
 610 610 l 1xe0
 592 526 l 1
 427 547 l 1
 410 362 l 1
 290 -90 l 1
 231 -90 l 1xd0
EndSplineSet
EndChar

StartChar: daggerdbl
Encoding: 8225 8225 314
Width: 559
VWidth: 1473
Flags: W
HStem: 591 21G<443.565 610> 801 20G<402.217 502>
LayerCount: 2
Fore
SplineSet
592 526 m 1
 427 547 l 1
 410 365 l 1
 351 184 l 1
 524 203 l 1
 507 121 l 1
 340 138 l 1
 309 -90 l 1
 212 -90 l 1
 275 138 l 1
 103 121 l 1
 121 203 l 1
 286 184 l 1
 303 365 l 1
 362 547 l 1
 189 526 l 1
 206 610 l 1
 373 591 l 1
 405 821 l 1
 502 821 l 1
 438 591 l 1
 610 610 l 1
 592 526 l 1
EndSplineSet
EndChar

StartChar: bullet
Encoding: 8226 8226 315
Width: 559
VWidth: 1473
Flags: W
HStem: 202 403<309.297 415.062>
VStem: 157 415<358.477 453.337>
LayerCount: 2
Fore
SplineSet
157 363 m 0
 157 481 268 605 407 605 c 0
 501 605 572 542 572 449 c 0
 572 323 451 202 321 202 c 0
 229 202 157 266 157 363 c 0
EndSplineSet
EndChar

StartChar: ellipsis
Encoding: 8230 8230 316
Width: 1119
VWidth: 1473
Flags: W
HStem: 0 116<146 252 520 626 890 996>
LayerCount: 2
Fore
SplineSet
122 0 m 1
 146 116 l 1
 275 116 l 1
 252 0 l 1
 122 0 l 1
496 0 m 1
 520 116 l 1
 650 116 l 1
 626 0 l 1
 496 0 l 1
866 0 m 1
 890 116 l 1
 1019 116 l 1
 996 0 l 1
 866 0 l 1
EndSplineSet
EndChar

StartChar: perthousand
Encoding: 8240 8240 317
Width: 1208
VWidth: 1473
Flags: W
HStem: 0 69<564.066 682.999 922.066 1041> 256 68<595.707 714.486 953.707 1072.49> 390 70<284.249 403.815> 645 71<314.781 434.865>
VStem: 193 71<481.111 594.152> 455 71<511.625 625.054> 473 72<88.5354 203.175> 736 71<121.762 233.717> 831 72<88.5354 203.175> 1094 71<121.762 233.717>
LayerCount: 2
Fore
SplineSet
193 519 m 0xfdc0
 193 620 296 716 393 716 c 0
 473 716 526 658 526 586 c 0
 526 494 436 390 324 390 c 0
 242 390 193 450 193 519 c 0xfdc0
455 575 m 0
 455 616 423 645 379 645 c 0
 317 645 264 592 264 530 c 0
 264 492 295 460 339 460 c 0
 400 460 455 512 455 575 c 0
473 129 m 0xfbc0
 473 222 566 324 673 324 c 0
 750 324 807 273 807 196 c 0
 807 95 704 0 605 0 c 0
 537 0 473 52 473 129 c 0xfbc0
736 182 m 0
 736 219 709 256 659 256 c 0
 595 256 545 196 545 139 c 0
 545 101 573 69 619 69 c 0
 681 69 736 124 736 182 c 0
262 -10 m 1
 187 -10 l 1
 738 726 l 1
 815 726 l 1
 262 -10 l 1
831 129 m 0
 831 222 924 324 1031 324 c 0
 1108 324 1165 273 1165 196 c 0
 1165 95 1062 0 963 0 c 0
 895 0 831 52 831 129 c 0
1094 182 m 0
 1094 219 1067 256 1017 256 c 0
 953 256 903 196 903 139 c 0
 903 101 931 69 977 69 c 0
 1039 69 1094 124 1094 182 c 0
EndSplineSet
EndChar

StartChar: minute
Encoding: 8242 8242 318
Width: 235
VWidth: 1473
Flags: W
HStem: 517 237<233 271 183 321 233 233>
LayerCount: 2
Fore
SplineSet
233 754 m 1
 321 754 l 1
 271 517 l 1
 183 517 l 1
 233 754 l 1
EndSplineSet
EndChar

StartChar: second
Encoding: 8243 8243 319
Width: 331
VWidth: 1473
Flags: W
HStem: 517 237<203 242 358 396 153 446 203 203>
LayerCount: 2
Fore
SplineSet
203 754 m 1
 292 754 l 1
 242 517 l 1
 153 517 l 1
 203 754 l 1
358 754 m 1
 446 754 l 1
 396 517 l 1
 308 517 l 1
 358 754 l 1
EndSplineSet
EndChar

StartChar: guilsinglleft
Encoding: 8249 8249 320
Width: 372
VWidth: 1473
Flags: W
HStem: 119 344<261 306 261 261>
VStem: 133 246<295 463 295 295>
LayerCount: 2
Fore
SplineSet
234 295 m 1
 306 119 l 1
 203 119 l 1
 133 295 l 1
 261 463 l 1
 379 463 l 1
 234 295 l 1
EndSplineSet
EndChar

StartChar: guilsinglright
Encoding: 8250 8250 321
Width: 372
VWidth: 1473
Flags: W
HStem: 119 344<190 220 190 190>
VStem: 118 243<119 289 119 119>
LayerCount: 2
Fore
SplineSet
262 289 m 1
 190 463 l 1
 292 463 l 1
 361 289 l 1
 220 119 l 1
 118 119 l 1
 262 289 l 1
EndSplineSet
EndChar

StartChar: fraction
Encoding: 8260 8260 322
Width: 238
VWidth: 1473
Flags: W
HStem: 0 21G<-53 19.3538>
VStem: -53 493<0 701 1.53064e-18 1.53064e-18>
LayerCount: 2
Fore
SplineSet
7 0 m 1
 -53 0 l 1
 380 701 l 1
 440 701 l 1
 7 0 l 1
EndSplineSet
EndChar

StartChar: Euro
Encoding: 8364 8364 323
Width: 558
VWidth: 1473
Flags: W
HStem: -10 79<250.071 451.957> 221 78<37 113 223 449> 410 78<77 146 269 491> 591 21G<598.5 625.429> 644 79<363.548 565.579>
VStem: 111 100<109.53 203.658 200.885 206.431 206.431 221> 146 100<320.62 410>
LayerCount: 2
Back
SplineSet
491 410 m 1
 60 410 l 1
 77 488 l 1
 507 488 l 1
 491 410 l 1
449 221 m 1
 19 221 l 1
 37 299 l 1
 467 299 l 1
 449 221 l 1
134 357 m 256
 148 421.667 164.333 477 183 523 c 128
 201.667 569 224.667 607 252 637 c 128
 279.333 667 312 688.833 350 702.5 c 128
 388 716.167 432.333 723 483 723 c 0
 515.667 723 549.167 717.833 583.5 707.5 c 128
 617.833 697.167 646.333 681.667 669 661 c 1
 608 591 l 1
 589.333 610.333 568 624 544 632 c 128
 520 640 493.333 644 464 644 c 0
 429.333 644 400 639 376 629 c 128
 352 619 331.5 602.833 314.5 580.5 c 128
 297.5 558.167 282.833 528.833 270.5 492.5 c 128
 258.167 456.167 246 411 234 357 c 256
 222.667 302.333 215.5 256.833 212.5 220.5 c 128
 209.5 184.167 211.833 154.833 219.5 132.5 c 128
 227.167 110.167 240.833 94 260.5 84 c 128
 280.167 74 307.333 69 342 69 c 0
 371.333 69 400 73 428 81 c 128
 456 89 482.667 102.667 508 122 c 1
 539 52 l 1
 507.667 31.3333 472.667 15.8333 434 5.5 c 128
 395.333 -4.83333 359.667 -10 327 -10 c 0
 275.667 -10 234.167 -3.16667 202.5 10.5 c 128
 170.833 24.1667 147.5 46 132.5 76 c 128
 117.5 106 110.5 144 111.5 190 c 128
 112.5 236 120 291.667 134 357 c 256
EndSplineSet
Fore
SplineSet
170 488 m 1xfa
 218 621 285 723 483 723 c 0
 534 723 616 709 669 661 c 1
 608 591 l 1
 589 611 550 644 464 644 c 0
 359 644 308 603 269 488 c 1
 507 488 l 1
 491 410 l 1
 246 410 l 1xfa
 235 366 229 333 223 299 c 1
 467 299 l 1
 449 221 l 1
 212 221 l 1
 211 210 211 200 211 192 c 0
 211 103 249 69 342 69 c 0
 442 69 495 112 508 122 c 1
 539 52 l 1
 469 6 380 -10 327 -10 c 0
 201 -10 111 28 111 181 c 0xfc
 111 192 112 205 113 221 c 1
 19 221 l 1
 37 299 l 1
 123 299 l 1
 128 333 136 372 146 410 c 1
 60 410 l 1
 77 488 l 1
 170 488 l 1xfa
EndSplineSet
EndChar

StartChar: uni2113
Encoding: 8467 8467 324
Width: 307
VWidth: 1473
Flags: W
HStem: -4 67<144.415 217.231> 659 60<291.651 337.09>
VStem: 90 81<42.5073 85.7422> 341 73<488.289 658.14>
LayerCount: 2
Fore
SplineSet
327 719 m 0
 396 719 414 651 414 601 c 0
 414 530 390 372 202 228 c 1
 172 87 l 2
 171 84 171 81 171 79 c 0
 171 68 177 63 194 63 c 0
 207 63 220 65 233 70 c 2
 271 84 l 1
 255 13 l 1
 238 2 203 -4 168 -4 c 0
 112 -4 90 22 90 62 c 0
 90 69 91 77 93 85 c 2
 113 187 l 1
 62 156 l 1
 38 220 l 1
 133 274 l 1
 203 607 l 2
 220 682 261 719 327 719 c 0
222 321 m 1
 305 398 341 537 341 609 c 0
 341 642 332 659 314 659 c 0
 300 659 290 644 284 614 c 2
 222 321 l 1
EndSplineSet
EndChar

StartChar: trademark
Encoding: 8482 8482 325
Width: 1043
VWidth: 1473
Flags: W
HStem: 571 20G<1012.68 1014> 650 65<196 323 402 539>
LayerCount: 2
Fore
SplineSet
539 650 m 1
 402 650 l 1
 318 253 l 1
 239 253 l 1
 323 650 l 1
 181 650 l 1
 196 715 l 1
 554 715 l 1
 539 650 l 1
809 376 m 1
 1018 715 l 1
 1121 715 l 1
 1022 253 l 1
 944 253 l 1
 1017 591 l 1
 1014 591 l 1
 797 253 l 1
 763 253 l 1
 691 591 l 1
 688 591 l 1
 616 253 l 1
 538 253 l 1
 636 715 l 1
 740 715 l 1
 809 376 l 1
EndSplineSet
EndChar

StartChar: Ohm
Encoding: 8486 8486 326
Width: 692
VWidth: 1473
Flags: W
HStem: 0 74<66 225 496 641> 639 90<377.207 581.628>
VStem: 132 95<267.368 428.854> 642 96<412.195 579.047>
LayerCount: 2
Fore
SplineSet
483 639 m 0
 424 639 278 627 236 420 c 0
 230 393 227 369 227 348 c 0
 227 262 277 222 345 206 c 1
 302 0 l 1
 52 0 l 1
 66 74 l 1
 225 74 l 1
 242 150 l 1
 171 175 132 246 132 343 c 0
 132 516 262 729 501 729 c 256
 645 729 738 650 738 501 c 0
 738 349 645 191 513 150 c 1
 496 74 l 1
 656 74 l 1
 641 0 l 1
 390 0 l 1
 433 206 l 1
 575 238 618 343 633 420 c 0
 639 447 642 471 642 493 c 0
 642 581 599 639 483 639 c 0
EndSplineSet
EndChar

StartChar: estimated
Encoding: 8494 8494 327
Width: 713
VWidth: 1473
Flags: W
HStem: -12 69<298.68 487.652> 311 69<249 616> 614 68<397.542 573.361>
VStem: 132 94<137.005 295.148> 624 93<412.014 564.452>
LayerCount: 2
Fore
SplineSet
501 682 m 0
 674 682 717 579 717 471 c 0
 717 425 711 372 698 311 c 1
 234 311 l 1
 229 285 226 261 226 236 c 0
 226 135 276 57 383 57 c 0
 488 57 557 114 607 174 c 1
 666 131 l 1
 633 90 545 -12 362 -12 c 0
 216 -12 132 100 132 234 c 0
 132 390 241 682 501 682 c 0
624 469 m 0
 624 572 582 614 483 614 c 256
 389 614 288 547 249 380 c 1
 616 380 l 1
 621 414 624 444 624 469 c 0
EndSplineSet
EndChar

StartChar: partialdiff
Encoding: 8706 8706 328
Width: 559
VWidth: 1473
Flags: W
HStem: -12 69<210.482 380.441> 526 68<328.963 457.175> 789 20G<401.821 471.5>
VStem: 90 91<88.5106 257.811> 501 100<331.721 544.768>
LayerCount: 2
Fore
SplineSet
501 421 m 0
 501 494 467 526 390 526 c 256
 275 526 232 455 199 292 c 0
 182 216 181 175 181 163 c 0
 181 88 212 57 292 57 c 256
 423 57 451 148 485 292 c 0
 499 368 501 408 501 421 c 0
505 572 m 1
 497 611 436 693 345 742 c 1
 426 809 l 1
 517 736 601 628 601 458 c 0
 601 394 581 182 483 74 c 0
 428 15 359 -12 277 -12 c 0
 180 -12 90 25 90 171 c 0
 90 268 123 496 286 571 c 0
 320 586 360 594 405 594 c 0
 444 594 468 588 502 569 c 1
 505 572 l 1
EndSplineSet
EndChar

StartChar: Delta
Encoding: 8710 8710 329
Width: 573
VWidth: 1473
Flags: W
HStem: 0 74<125 464> 696 20G<376.19 478.346>
LayerCount: 2
Fore
SplineSet
560 0 m 1
 0 0 l 1
 387 716 l 1
 476 716 l 1
 560 0 l 1
464 74 m 1
 408 605 l 1
 125 74 l 1
 464 74 l 1
EndSplineSet
EndChar

StartChar: product
Encoding: 8719 8719 330
Width: 692
VWidth: 1473
Flags: W
HStem: 0 21G<96 197.22 477 579.232> 635 81<327 611> 645 71<187 201.5 740 770>
LayerCount: 2
Fore
SplineSet
575 0 m 1xa0
 477 0 l 1
 611 635 l 1
 327 635 l 1xc0
 193 0 l 1
 96 0 l 1
 231 638 l 1
 172 645 l 1
 187 716 l 1
 785 716 l 1
 770 645 l 1
 710 638 l 1
 575 0 l 1xa0
EndSplineSet
EndChar

StartChar: summation
Encoding: 8721 8721 331
Width: 646
VWidth: 1473
Flags: W
HStem: 0 74<149 595> 642 74<287 709>
LayerCount: 2
Fore
SplineSet
595 0 m 1
 52 0 l 1
 74 110 l 1
 376 368 l 1
 186 608 l 1
 209 716 l 1
 725 716 l 1
 709 642 l 1
 287 642 l 1
 471 407 l 1
 457 339 l 1
 149 74 l 1
 610 74 l 1
 595 0 l 1
EndSplineSet
EndChar

StartChar: minus
Encoding: 8722 8722 332
Width: 592
VWidth: 1473
Flags: W
HStem: 264 81<110 583>
LayerCount: 2
Fore
SplineSet
94 264 m 1
 110 345 l 1
 600 345 l 1
 583 264 l 1
 94 264 l 1
EndSplineSet
EndChar

StartChar: radical
Encoding: 8730 8730 333
Width: 570
VWidth: 1473
Flags: W
HStem: 0 21G<241.203 323.026> 295 73<122 189>
LayerCount: 2
Fore
SplineSet
312 0 m 1
 245 0 l 1
 189 295 l 1
 99 295 l 1
 122 368 l 1
 250 368 l 1
 299 106 l 1
 591 653 l 1
 672 653 l 1
 312 0 l 1
EndSplineSet
EndChar

StartChar: infinity
Encoding: 8734 8734 334
Width: 822
VWidth: 1473
Flags: W
HStem: 147 67<222.361 333.627 584.913 700.504> 424 65<250.984 371.57 621.435 736.948>
VStem: 122 77<237.286 370.007> 758 76<273.666 403.242>
LayerCount: 2
Fore
SplineSet
199 294 m 0
 199 257 227 214 270 214 c 0
 336 214 397 276 435 326 c 1
 379 404 358 424 314 424 c 0
 246 424 199 363 199 294 c 0
834 363 m 0
 834 233 735 147 631 147 c 0
 541.496 147 489.288 243.737 464 281 c 1
 364 165 297 147 255 147 c 0
 148 147 122 220 122 275 c 0
 122 408 226 489 326 489 c 0
 392 489 433.019 439.819 491 357 c 1
 592 471 659 489 701 489 c 0
 801 489 834 424 834 363 c 0
642 212 m 0
 688 212 758 262 758 349 c 0
 758 408 712 423 687 423 c 0
 654 423 594 404 520 311 c 1
 578 231 600 212 642 212 c 0
EndSplineSet
EndChar

StartChar: integral
Encoding: 8747 8747 335
Width: 356
VWidth: 1473
Flags: W
HStem: -152 81<-20.0026 93.6287> 632 78<359.649 439.348 432.92 445.777 445.777 464>
LayerCount: 2
Fore
SplineSet
-19 -68 m 1
 -7 -70 14 -71 22 -71 c 0
 98 -71 116 -33 127 15 c 2
 246 579 l 2
 252 607 276 710 396 710 c 0
 462 710 491 706 491 706 c 1
 464 631 l 1
 457 632 446 632 427 632 c 0
 371 632 349 614 337 561 c 2
 214 -16 l 2
 194 -100 110 -152 29 -152 c 0
 -7 -152 -29 -148 -43 -144 c 1
 -19 -68 l 1
EndSplineSet
EndChar

StartChar: approxequal
Encoding: 8776 8776 336
Width: 578
VWidth: 1473
Flags: W
HStem: 118 78<358.598 490.829> 186 75<174.629 294.647> 320 78<403.128 534.812> 387 76<218.188 341.514>
LayerCount: 2
Fore
SplineSet
435 196 m 0x80
 472 196 489 213 539 265 c 1
 577 208 l 1
 562 187 543 167 518 148 c 0
 494 128 463 118 426 118 c 0x80
 356 118 286 186 220 186 c 0
 174 186 135 155 118 121 c 1
 80 178 l 1
 95 198 115 217 139 234 c 0
 163 252 193 261 230 261 c 0x40
 294.189 261 373.331 196 435 196 c 0x80
479 398 m 0x20
 514 398 533 413 583 467 c 1
 623 410 l 1
 608 389 588 369 563 350 c 0
 538 330 508 320 471 320 c 0x20
 400.862 320 333.611 387 264 387 c 0
 218 387 179 357 162 323 c 1
 124 380 l 1
 139 400 159 419 184 436 c 0
 208 454 238 463 274 463 c 0x10
 340.625 463 414.938 398 479 398 c 0x20
EndSplineSet
EndChar

StartChar: notequal
Encoding: 8800 8800 337
Width: 568
VWidth: 1473
Flags: W
HStem: 0 21G<102 170.346> 159 78<97 224 327 554> 383 78<144 380 483 603>
LayerCount: 2
Fore
SplineSet
224 159 m 1
 80 159 l 1
 97 237 l 1
 274 237 l 1
 380 383 l 1
 128 383 l 1
 144 461 l 1
 430 461 l 1
 558 626 l 1
 611 626 l 1
 483 461 l 1
 619 461 l 1
 603 383 l 1
 433 383 l 1
 327 237 l 1
 572 237 l 1
 554 159 l 1
 277 159 l 1
 155 0 l 1
 102 0 l 1
 224 159 l 1
EndSplineSet
EndChar

StartChar: lessequal
Encoding: 8804 8804 338
Width: 671
VWidth: 1473
Flags: W
HStem: 0 75<59 628>
LayerCount: 2
Fore
SplineSet
131 410 m 1
 754 604 l 1
 735 519 l 1
 217 368 l 1
 670 211 l 1
 653 127 l 1
 113 330 l 1
 131 410 l 1
59 75 m 1
 642 75 l 1
 628 0 l 1
 44 0 l 1
 59 75 l 1
EndSplineSet
EndChar

StartChar: greaterequal
Encoding: 8805 8805 339
Width: 671
VWidth: 1473
Flags: W
HStem: 0 75<59 628>
LayerCount: 2
Fore
SplineSet
697 330 m 1
 72 127 l 1
 90 211 l 1
 611 368 l 1
 155 519 l 1
 174 604 l 1
 715 410 l 1
 697 330 l 1
628 0 m 1
 44 0 l 1
 59 75 l 1
 642 75 l 1
 628 0 l 1
EndSplineSet
EndChar

StartChar: lozenge
Encoding: 9674 9674 340
Width: 534
VWidth: 1473
Flags: W
VStem: 141 403<359 359 359 359>
LayerCount: 2
Fore
SplineSet
452 359 m 1
 385 554 l 1
 236 359 l 1
 302 162 l 1
 452 359 l 1
544 359 m 1
 317 82 l 1
 253 82 l 1
 141 359 l 1
 371 633 l 1
 435 633 l 1
 544 359 l 1
EndSplineSet
EndChar

StartChar: dottedcircle
Encoding: 9676 9676 341
Width: 797
VWidth: 1473
Flags: W
HStem: 35 80<375.058 440.356> 55 81<270.797 331.456 491.619 554.381> 116 80<188.068 251.997 598.577 660.203> 214 79<146.614 211.717 679.061 743.49> 324 80<149.544 213.289 727.701 789.88> 432 79<194.463 258.129 723.366 788.991> 529 79<276.729 340.999 683.652 747.851> 589 81<384.164 446.784 604.204 667.75> 608 81<496.278 561.544>
VStem: 139 81<223.387 284.899 332.681 394.978> 180 82<129.747 188.513 440.681 501.875> 261 80<64.0224 126.683> 268 81<537.387 599.729> 366 83<43.6813 106.352> 375 80<596.998 661.758> 482 82<64.125 126.875 617.675 675.5> 590 80<125.317 187.961 597.039 656.685> 671 81<225.332 284.613 536.539 574.768> 719 79<333 396.374 440.719 494>
LayerCount: 2
Fore
SplineSet
639 196 m 256x3c0180
 661 196 670 183 670 167 c 0
 670 144 651 116 622 116 c 256
 600 116 590 131 590 147 c 0
 590 170 608 196 639 196 c 256x3c0180
798 371 m 0x1c01a0
 798 343 772 324 747 324 c 0
 727 324 719 338 719 354 c 0
 719 377 736 404 765 404 c 0
 785 404 798 391 798 371 c 0x1c01a0
189 404 m 0
 211 404 222 389 222 372 c 0
 222 350 204 324 171 324 c 0
 150 324 140 338 140 354 c 0
 140 377 159 404 189 404 c 0
309 136 m 256x5c1180
 332 136 341 122 341 105 c 0
 341 82 322 55 292 55 c 256
 270 55 261 69 261 85 c 0
 261 108 280 136 309 136 c 256x5c1180
375 616 m 0x1d0380
 375 644 393 670 423 670 c 256
 445 670 455 655 455 637 c 0
 455 615 438 589 407 589 c 0
 386 589 375 598 375 616 c 0x1d0380
675 558 m 0
 675 572 685 608 725 608 c 0
 746 608 756 594 756 577 c 0
 756 555 739 529 709 529 c 0x1e0180
 685 529 675 542 675 558 c 0
532 136 m 256x5c0180
 554 136 564 122 564 105 c 0
 564 82 545 55 514 55 c 256
 492 55 482 69 482 86 c 0
 482 109 501 136 532 136 c 256x5c0180
234 511 m 256
 257 511 267 497 267 480 c 0
 267 458 248 432 218 432 c 256
 195 432 185 446 185 462 c 0
 185 484 205 511 234 511 c 256
139 246 m 0x1c4180
 139 274 163 293 189 293 c 256
 210 293 220 279 220 262 c 0
 220 240 203 214 171 214 c 256
 151 214 139 226 139 246 c 0x1c4180
315 608 m 256x1e0980
 338 608 349 593 349 576 c 0
 349 554 331 529 299 529 c 256
 277 529 268 543 268 559 c 0
 268 581 286 608 315 608 c 256x1e0980
180 147 m 0x3c2180
 180 175 201 196 228 196 c 256
 251 196 262 182 262 166 c 0
 262 143 242 116 211 116 c 256
 186 116 180 135 180 147 c 0x3c2180
722 293 m 0
 742 293 752 279 752 263 c 0
 752 241 734 214 704 214 c 0
 682 214 671 229 671 246 c 0x1c01c0
 671 268 689 293 722 293 c 0
644 670 m 256x1d0180
 666 670 676 655 676 638 c 0
 676 615 659 589 628 589 c 256
 604 589 594 603 594 619 c 0
 594 642 614 670 644 670 c 256x1d0180
366 66 m 0x9c0580
 366 92 388 115 415 115 c 256
 438 115 449 100 449 83 c 0
 449 61 431 35 399 35 c 256
 379 35 366 48 366 66 c 0x9c0580
797 480 m 0
 797 453 774 432 750 432 c 0
 725 432 714 446 714 463 c 0
 714 485 734 511 766 511 c 0
 791 511 797 491 797 480 c 0
571 658 m 0
 571 632 548 608 520 608 c 256
 495 608 488 628 488 641 c 0
 488 669 512 689 538 689 c 256x1c8180
 564 689 571 669 571 658 c 0
EndSplineSet
EndChar

StartChar: uni0E10.alt1
Encoding: 63232 63232 342
Width: 602
VWidth: 1473
Flags: W
HStem: -2 57<364.934 432.202> 255 53<229.948 316.83> 374 77<278.295 492.896> 374 56<258.114 469.095> 505 74<426.22 597.834> 523 66<274.357 372.007>
VStem: 162 55<174.618 240.91> 323 66<130.191 250.105> 513 91<240.677 353.072>
LayerCount: 2
Back
SplineSet
292 138 m 1
 243 112 l 1
 213.667 112 191.667 120.833 177 138.5 c 128
 162.333 156.167 158.333 179.667 165 209 c 0
 171 238.333 185.5 262.167 208.5 280.5 c 128
 231.5 298.833 257.667 308 287 308 c 0
 318.333 308 341.667 302.5 357 291.5 c 128
 372.333 280.5 382.167 264.5 386.5 243.5 c 128
 390.833 222.5 390.333 197 385 167 c 128
 379.667 137 372 103 362 65 c 0
 361.333 61.6667 364.5 59.1667 371.5 57.5 c 128
 378.5 55.8333 386.667 55 396 55 c 128
 405.333 55 414.167 55.8333 422.5 57.5 c 128
 430.833 59.1667 435.333 62 436 66 c 0
 450 110.667 464 150.833 478 186.5 c 128
 492 222.167 503 257.333 511 292 c 0
 513 301.333 513.5 311 512.5 321 c 128
 511.5 331 507.167 339.833 499.5 347.5 c 128
 491.833 355.167 478.833 361.5 460.5 366.5 c 128
 442.167 371.5 417 374 385 374 c 0
 354.333 374 325.5 372 298.5 368 c 128
 271.5 364 248 362 228 362 c 0
 200 362 182.667 371.167 176 389.5 c 128
 169.333 407.833 168.667 430.333 174 457 c 0
 182.667 497 200.333 527.5 227 548.5 c 128
 253.667 569.5 285 580 321 580 c 0
 327.667 580 337.167 579.5 349.5 578.5 c 128
 368 577 368 577 391 575 c 128
 406.333 573.667 421.833 572.5 437.5 571.5 c 128
 453.167 570.5 468 570 482 570 c 0
 499.333 570 517.667 571.167 537 573.5 c 128
 556.333 575.833 574.333 578.667 591 582 c 0
 647 594 l 1
 647.667 584 648 574.667 648 566 c 0
 648 558 648.333 550.333 649 543 c 128
 649.667 535.667 649 529.333 647 524 c 1
 645.667 518.667 640.333 514 631 510 c 1
 625 508.667 616.5 507 605.5 505 c 128
 594.5 503 582.167 501.5 568.5 500.5 c 128
 554.833 499.5 540.333 498.5 525 497.5 c 128
 509.667 496.5 495.333 496 482 496 c 0
 469.333 496 456 497 442 499 c 128
 421 502 421 502 401.5 505 c 128
 388.5 507 376.5 509 365.5 511 c 128
 354.5 513 346 514 340 514 c 0
 312 514 292.5 510.333 281.5 503 c 128
 270.5 495.667 262.667 480.667 258 458 c 0
 254.667 447.333 255.333 440 260 436 c 128
 264.667 432 276.667 430 296 430 c 256
 316 430 341.333 432 372 436 c 128
 402.667 440 435.333 442 470 442 c 0
 495.333 442 517.167 438 535.5 430 c 128
 553.833 422 568.667 411.5 580 398.5 c 128
 591.333 385.5 598.667 370.667 602 354 c 128
 605.333 337.333 605 319.667 601 301 c 0
 598.333 287 593.333 269.5 586 248.5 c 128
 578.667 227.5 570 204.333 560 179 c 128
 550 153.667 540.167 127.333 530.5 100 c 128
 520.833 72.6667 512 45.6667 504 19 c 0
 502.667 14.3333 496.167 10.1667 484.5 6.5 c 128
 472.833 2.83333 458.667 0.333333 442 -1 c 128
 425.333 -2.33333 407.667 -2.66667 389 -2 c 128
 370.333 -1.33333 353.167 -0.333333 337.5 1 c 128
 321.833 2.33333 309 4.66667 299 8 c 128
 289 11.3333 284.667 15.6667 286 21 c 0
 296 61 304.333 95.5 311 124.5 c 128
 317.667 153.5 321.5 177.833 322.5 197.5 c 128
 323.5 217.167 320.333 231.667 313 241 c 128
 305.667 250.333 293 255 275 255 c 0
 261.667 255 249.333 250.5 238 241.5 c 128
 226.667 232.5 220 221.667 218 209 c 0
 215.333 198.333 216.833 188.167 222.5 178.5 c 128
 228.167 168.833 238.333 164 253 164 c 2
 298 164 l 1
 292 138 l 1
EndSplineSet
Fore
SplineSet
513 313 m 0xe380
 513 349 483 374 385 374 c 0
 314 374 275 362 228 362 c 0
 195 362 172 376 172 428 c 0
 172 502 219 589 324 589 c 0xe780
 358 589 423 579 483 579 c 0
 551 579 626 599 648 603 c 1
 650 583 651 568 651 556 c 0
 651 531 646 523 632 519 c 0
 574 506 500 505 483 505 c 0xcb80
 441 505 356 523 342 523 c 0
 288 523 268 509 258 463 c 0
 253 435 266 430 296 430 c 256xd780
 349 430 389 451 473 451 c 0
 563 451 604 391 604 331 c 0
 604 269 551 174 504 19 c 0
 501 10 470 -2 407 -2 c 0
 391 -2 280 -2 286 21 c 0
 309 112 323 168 323 204 c 0
 323 239 309 255 275 255 c 0
 244 255 217 229 217 199 c 0
 217 185 224 164 253 164 c 2
 298 164 l 1
 292 138 l 1
 243 112 l 1
 196 112 162 137 162 183 c 0
 162 246 212 308 287 308 c 0
 346 308 389 289 389 213 c 0
 389 183 381 137 362 65 c 0
 360 56 384 55 396 55 c 0
 404 55 434 56 436 66 c 0
 476 196 513 269 513 313 c 0xe380
EndSplineSet
EndChar

StartChar: uni0E34.alt1
Encoding: 63233 63233 343
Width: 0
VWidth: 1473
Flags: W
HStem: 644 62<-286.457 -137> 644 216<-116 -101 -274 -94 -274 -274> 671 54<-440 -402.454 -402.454 -290.392> 798 62<-386.438 -174.763>
VStem: -523 451<672.091 688.807> -137 65<706 763.247>
LayerCount: 2
Fore
SplineSet
-94 644 m 0x44
 -116 644 -262 671 -405 671 c 0
 -513 671 -523 657 -523 675 c 0x28
 -523 680 -490 860 -274 860 c 0
 -101 860 -72 765 -72 702 c 0
 -72 649 -83 644 -94 644 c 0x44
-365 728 m 0
 -319 728 -296 727 -137 706 c 1
 -134.397 778.884 -202.636 798 -292 798 c 0x94
 -413 798 -438 742 -440 725 c 1
 -414 727 -389 728 -365 728 c 0
EndSplineSet
EndChar

StartChar: uni0E35.alt1
Encoding: 63234 63234 344
Width: 0
VWidth: 1473
Flags: W
HStem: 644 62<-286.457 -137> 644 258<-115 -75.3675> 671 54<-440 -402.454 -402.454 -290.392> 798 62<-391.618 -192.48>
VStem: -523 486<675 902 712.546 824.608>
LayerCount: 2
Fore
SplineSet
-523 675 m 1x28
 -523 675 -496 860 -281 860 c 0x38
 -180 860 -141 822 -130 800 c 1
 -130 818 l 2
 -130 829 -128 842 -125 857 c 2
 -115 902 l 1
 -37 902 l 1
 -74 731 l 1
 -73 725 -73 717 -73 709 c 0
 -73 658 -77 644 -94 644 c 0x48
 -116 644 -262 671 -405 671 c 0
 -513 671 -523 657 -523 675 c 1x28
-137 706 m 1x88
 -142 730 -165 798 -299 798 c 0
 -419 798 -438 742 -440 725 c 1x38
 -414 727 -389 728 -365 728 c 0
 -319 728 -296 727 -137 706 c 1x88
EndSplineSet
EndChar

